<svg xmlns="http://www.w3.org/2000/svg" width="130" height="130" viewBox="0 0 130 130">
  <g id="Grupo_957767" data-name="Grupo 957767" transform="translate(-4863 11365)">
    <circle id="Elipse_6672" data-name="Elipse 6672" cx="65" cy="65" r="65" transform="translate(4863 -11365)" fill="#fce9c7"/>
    <g id="calculador" transform="translate(4902 -11326)">
      <path id="Trazado_724829" data-name="Trazado 724829" d="M343.278,200H329.7a1.7,1.7,0,0,0-1.7,1.7v22.068a1.7,1.7,0,0,0,1.7,1.7h13.58a1.7,1.7,0,0,0,1.7-1.7V201.7A1.7,1.7,0,0,0,343.278,200Zm0,0" transform="translate(-293.2 -178.781)" fill="#fcd770"/>
      <path id="Trazado_724830" data-name="Trazado 724830" d="M24,40V60.277l5.492,5.186H56.253v-6.79a1.7,1.7,0,0,1,1.7-1.7h5.093V40Zm0,0" transform="translate(-21.454 -35.756)" fill="#e6e9ed"/>
      <path id="Trazado_724831" data-name="Trazado 724831" d="M360,232h10.185v5.093H360Zm0,0" transform="translate(-321.805 -207.386)" fill="#69d6f4"/>
      <path id="Trazado_724832" data-name="Trazado 724832" d="M268.371,104v3.4H248V104Zm0,0" transform="translate(-221.688 -92.966)" fill="#b4dd7f"/>
      <path id="Trazado_724833" data-name="Trazado 724833" d="M268.371,72v3.4H248V72Zm0,0" transform="translate(-221.688 -64.361)" fill="#ff826e"/>
      <path id="Trazado_724834" data-name="Trazado 724834" d="M205.093,75.4v3.4L200,75.4l5.093-3.4Zm0,0" transform="translate(-178.781 -64.361)" fill="#f5e0cd"/>
      <path id="Trazado_724835" data-name="Trazado 724835" d="M445.093,74.546v1.7a2.543,2.543,0,0,1-2.546,2.546H440V72h2.546A2.543,2.543,0,0,1,445.093,74.546Zm0,0" transform="translate(-393.317 -64.361)" fill="#ffeaa7"/>
      <path id="Trazado_724836" data-name="Trazado 724836" d="M8,241.463V216l1.7,1.6,5.492,5.186,23.367,22.068H8Zm5.093-13.648v11.951H25.748Zm0,0" transform="translate(-7.151 -193.083)" fill="#ffeaa7"/>
      <path id="Trazado_724837" data-name="Trazado 724837" d="M50.439,8.849v1.7a.851.851,0,0,1-.849.849H8.849A.851.851,0,0,1,8,10.546v-1.7A.851.851,0,0,1,8.849,8H49.59A.851.851,0,0,1,50.439,8.849Zm0,0" transform="translate(-7.151 -7.151)" fill="#838f9b"/>
      <path id="Trazado_724838" data-name="Trazado 724838" d="M49.229,15.278a3.4,3.4,0,0,0,3.4-3.4v-1.7a3.4,3.4,0,0,0-3.4-3.4h-6.79v-1.7a1.7,1.7,0,0,0,1.7-1.7V1.7a1.7,1.7,0,0,0-1.7-1.7H1.7A1.7,1.7,0,0,0,0,1.7V3.4a1.7,1.7,0,0,0,1.7,1.7V22.551L0,20.948V52.624H33.539L10.173,30.556H33.951V44.985A2.55,2.55,0,0,0,36.5,47.531h13.58a2.55,2.55,0,0,0,2.546-2.546V22.917a2.55,2.55,0,0,0-2.546-2.546H42.439V15.278Zm-3.4-5.093H27.161v-1.7H45.834ZM25.463,12.844,22.75,11.034l2.713-1.809Zm1.7-.961H45.834v1.7H27.161Zm23.766-1.7v1.7a1.7,1.7,0,0,1-1.7,1.7h-1.7V8.488h1.7A1.7,1.7,0,0,1,50.926,10.185ZM1.7,1.7H42.439V3.4H1.7Zm0,49.229v-1.7H3.4v-1.7H1.7v-1.7H3.4v-1.7H1.7v-1.7H3.4v-1.7H1.7v-1.7H3.4v-1.7H1.7v-1.7H3.4v-1.7H1.7v-1.7H3.4v-1.7H1.7v-5.67L29.27,50.926Zm49.229-28.01V44.985a.85.85,0,0,1-.849.849H36.5a.85.85,0,0,1-.849-.849V22.917a.85.85,0,0,1,.849-.849h13.58A.85.85,0,0,1,50.926,22.917ZM40.741,20.371H26.312v1.7h7.8a2.511,2.511,0,0,0-.156.849v.849H26.312v1.7h7.639v3.4H8.376L3.4,24.154V5.093H40.741v1.7H26.055l-6.366,4.244,6.366,4.244H40.741Zm0,0"/>
      <path id="Trazado_724839" data-name="Trazado 724839" d="M60.732,96H54.9l-1.534,11.5-2.409-3.011H48v1.7h2.139l4.381,5.477L56.382,97.7h4.35Zm0,0" transform="translate(-42.907 -85.815)"/>
      <path id="Trazado_724840" data-name="Trazado 724840" d="M146.832,138.344l-3.644,3.644-3.644-3.644-1.2,1.2,3.644,3.644-3.644,3.644,1.2,1.2,3.644-3.644,3.644,3.644,1.2-1.2-3.644-3.644,3.644-3.644Zm0,0" transform="translate(-123.666 -123.666)"/>
      <path id="Trazado_724841" data-name="Trazado 724841" d="M248,160h12.732v1.7H248Zm0,0" transform="translate(-221.688 -143.025)"/>
      <path id="Trazado_724842" data-name="Trazado 724842" d="M48,308.8V323.57H63.637Zm1.7,3.938,9.67,9.133H49.7Zm0,0" transform="translate(-42.907 -276.038)"/>
      <path id="Trazado_724843" data-name="Trazado 724843" d="M363.883,224H352v6.79h11.883Zm-1.7,5.093H353.7v-3.4h8.488Zm0,0" transform="translate(-314.654 -200.234)"/>
      <path id="Trazado_724844" data-name="Trazado 724844" d="M416,320h5.093v1.7H416Zm0,0" transform="translate(-371.864 -286.049)"/>
      <path id="Trazado_724845" data-name="Trazado 724845" d="M352,368h5.093v1.7H352Zm0,0" transform="translate(-314.654 -328.956)"/>
      <path id="Trazado_724846" data-name="Trazado 724846" d="M352,400h5.093v1.7H352Zm0,0" transform="translate(-314.654 -357.561)"/>
      <path id="Trazado_724847" data-name="Trazado 724847" d="M353.7,309.093h1.7v-1.7h1.7v-1.7h-1.7V304h-1.7v1.7H352v1.7h1.7Zm0,0" transform="translate(-314.654 -271.747)"/>
      <path id="Trazado_724848" data-name="Trazado 724848" d="M421.739,370.344l-1.1,1.1-1.1-1.1-1.2,1.2,1.1,1.1-1.1,1.1,1.2,1.2,1.1-1.1,1.1,1.1,1.2-1.2-1.1-1.1,1.1-1.1Zm0,0" transform="translate(-373.959 -331.052)"/>
    </g>
  </g>
</svg>
