<svg xmlns="http://www.w3.org/2000/svg" width="105" height="105" viewBox="0 0 105 105">
  <g id="Grupo_957783" data-name="Grupo 957783" transform="translate(-368 -1362)">
    <circle id="Elipse_6702" data-name="Elipse 6702" cx="52.5" cy="52.5" r="52.5" transform="translate(368 1362)" fill="#34bc85"/>
    <g id="virus" transform="translate(390.002 1376.955)">
      <g id="Grupo_956611" data-name="Grupo 956611" transform="translate(0.876 8.924)">
        <path id="Trazado_720891" data-name="Trazado 720891" d="M54.345,59.152c.007.22.012.44.012.661q0,.442-.019.879a.765.765,0,0,0,.549.77l2.894.846a1.9,1.9,0,0,1,2.169-1.553,1.593,1.593,0,0,1,1.621,1.9l-.5,3.163a1.9,1.9,0,0,1-3.754-.573l-3.083-.1a.764.764,0,0,0-.754.539,19.828,19.828,0,0,1-2.121,4.648.765.765,0,0,0,.11.949l1.78,1.763a1.863,1.863,0,0,1,2.476,2.736l-.824.989a1.9,1.9,0,0,1-2.6.322,1.863,1.863,0,0,1-.634-2.048l-2.2-1.28a.765.765,0,0,0-.928.122A19.93,19.93,0,0,1,40.8,78.7a.765.765,0,0,0-.52.79l.256,3a1.9,1.9,0,0,1,2.25,1.56,1.934,1.934,0,0,1-1.528,2.169l-3.164.68a1.507,1.507,0,0,1-1.9-1.535,1.9,1.9,0,0,1,1.435-2.25L36.6,80.2a.764.764,0,0,0-.775-.509q-.695.049-1.4.049A19.847,19.847,0,0,1,21.62,75.082a.763.763,0,0,0-.877-.074l-2.65,1.552.371.4a2.754,2.754,0,0,1-.031,3.811,2.711,2.711,0,0,1-3.9-.078l-2.792-3.015a2.754,2.754,0,0,1,.031-3.811,2.711,2.711,0,0,1,3.9.078l.415.448,1.8-2.593a.764.764,0,0,0,.006-.862A19.836,19.836,0,0,1,14.5,59.814a20.064,20.064,0,0,1,.139-2.356.765.765,0,0,0-.49-.808l-2.822-1.058a1.9,1.9,0,0,1-2.279,1.388,1.477,1.477,0,0,1-1.5-1.9L8.3,51.9a1.934,1.934,0,0,1,2.2-1.483A1.9,1.9,0,0,1,12.009,52.7l3.067.326a.765.765,0,0,0,.793-.483,19.881,19.881,0,0,1,2.21-4.125.764.764,0,0,0-.053-.943l-1.991-2.262a1.9,1.9,0,0,1-2.737.084,1.934,1.934,0,0,1-.061-2.653l1.9-2.154A1.9,1.9,0,0,1,18,42.981l2.556,1.734a.764.764,0,0,0,.926-.052,19.843,19.843,0,0,1,10.686-4.65.764.764,0,0,0,.673-.663l.38-2.99a1.9,1.9,0,0,1-1.872-2,1.934,1.934,0,0,1,1.95-1.8h2.818a1.934,1.934,0,0,1,1.95,1.8,1.9,1.9,0,0,1-1.872,2l.389,3.063a.765.765,0,0,0,.653.661c.555.078,1.1.182,1.64.3l2.915.833a17.745,17.745,0,0,1,10.2,7.706,16.226,16.226,0,0,1,2.353,10.225Z" transform="translate(-7.492 -30.569)" fill="#f79595"/>
        <g id="Grupo_956609" data-name="Grupo 956609" transform="translate(0 1.993)">
          <path id="Trazado_720892" data-name="Trazado 720892" d="M21.945,59.641A22.728,22.728,0,0,1,36.459,38.449l-.266-2.092a1.9,1.9,0,0,0,1.872-2,1.934,1.934,0,0,0-1.95-1.8H33.3a1.934,1.934,0,0,0-1.95,1.8,1.9,1.9,0,0,0,1.873,2l-.38,2.99a.764.764,0,0,1-.673.663,19.843,19.843,0,0,0-10.686,4.65.764.764,0,0,1-.926.052L18,42.978a1.9,1.9,0,0,0-2.865-2.493l-1.9,2.154a1.934,1.934,0,0,0,.061,2.653,1.9,1.9,0,0,0,2.737-.084l1.991,2.262a.764.764,0,0,1,.053.943,19.881,19.881,0,0,0-2.21,4.125.765.765,0,0,1-.793.483L12.009,52.7A1.9,1.9,0,0,0,10.5,50.413,1.934,1.934,0,0,0,8.3,51.9l-.752,3.18a1.477,1.477,0,0,0,1.5,1.9,1.9,1.9,0,0,0,2.279-1.388l2.822,1.058a.765.765,0,0,1,.49.808,20.091,20.091,0,0,0-.139,2.356A19.836,19.836,0,0,0,17.89,70.935a.764.764,0,0,1-.006.862l-1.8,2.593-.415-.448a2.711,2.711,0,0,0-3.9-.078,2.754,2.754,0,0,0-.031,3.811L14.53,80.69a2.711,2.711,0,0,0,3.9.078,2.754,2.754,0,0,0,.031-3.811l-.371-.4L20.744,75a.763.763,0,0,1,.877.074,19.849,19.849,0,0,0,12.439,4.657,22.718,22.718,0,0,1-12.114-20.1Z" transform="translate(-7.492 -32.559)" fill="#f37c7c"/>
        </g>
        <g id="Grupo_956610" data-name="Grupo 956610" transform="translate(19.419 31.618)">
          <circle id="Elipse_5452" data-name="Elipse 5452" cx="4.434" cy="4.434" r="4.434" transform="translate(0 3.644)" fill="#f37c7c"/>
          <circle id="Elipse_5453" data-name="Elipse 5453" cx="2.225" cy="2.225" r="2.225" transform="translate(14.594)" fill="#f37c7c"/>
        </g>
        <path id="Trazado_720893" data-name="Trazado 720893" d="M251.318,110.429a17.745,17.745,0,0,0-10.2-7.706l-1.744-.5-5.228,8.426a5.784,5.784,0,0,0,4.915,8.833h14.689A16.23,16.23,0,0,0,251.318,110.429Z" transform="translate(-206.818 -92.071)" fill="#f37c7c"/>
        <path id="Trazado_720894" data-name="Trazado 720894" d="M279.33,40.617H256.762a3.441,3.441,0,0,1-2.924-5.256l11.284-18.187a3.441,3.441,0,0,1,5.849,0l11.284,18.187A3.441,3.441,0,0,1,279.33,40.617Z" transform="translate(-224.521 -15.547)" fill="#cbbfbb"/>
        <path id="Trazado_720895" data-name="Trazado 720895" d="M287.463,66.8l10.22-16.473a.519.519,0,0,1,.882,0L308.785,66.8a.519.519,0,0,1-.441.792H287.9A.519.519,0,0,1,287.463,66.8Z" transform="translate(-254.599 -46.032)" fill="#fbe98c"/>
        <circle id="Elipse_5454" data-name="Elipse 5454" cx="7.411" cy="7.411" r="7.411" transform="translate(13.887 16.967)" fill="#f9c6c6"/>
      </g>
      <g id="Grupo_956613" data-name="Grupo 956613" transform="translate(-0.002 8.045)">
        <g id="Grupo_956612" data-name="Grupo 956612" transform="translate(0 0)">
          <path id="Trazado_720896" data-name="Trazado 720896" d="M214.612,238.876a.879.879,0,0,0-1.139.5,6.392,6.392,0,0,1-2.852,3.242.878.878,0,1,0,.849,1.538,8.152,8.152,0,0,0,3.637-4.136.878.878,0,0,0-.5-1.139Z" transform="translate(-185.549 -211.783)"/>
          <path id="Trazado_720897" data-name="Trazado 720897" d="M126.664,156.118a6.36,6.36,0,0,1,4.148,1.541.878.878,0,1,0,1.146-1.331,8.117,8.117,0,1,0-5.576,14.264h.031a.878.878,0,0,0,.03-1.756,6.361,6.361,0,0,1,.222-12.717Z" transform="translate(-104.66 -137.222)"/>
          <path id="Trazado_720898" data-name="Trazado 720898" d="M171.085,319.717a5.312,5.312,0,1,0-5.312-5.312A5.318,5.318,0,0,0,171.085,319.717Zm0-8.868a3.555,3.555,0,1,1-3.555,3.555A3.559,3.559,0,0,1,171.085,310.849Z" transform="translate(-146.355 -273.829)"/>
          <path id="Trazado_720899" data-name="Trazado 720899" d="M296.574,281.085a3.1,3.1,0,1,0-3.1,3.1A3.108,3.108,0,0,0,296.574,281.085Zm-4.451,0a1.347,1.347,0,1,1,1.347,1.347A1.348,1.348,0,0,1,292.123,281.085Z" transform="translate(-256.354 -246.362)"/>
          <path id="Trazado_720900" data-name="Trazado 720900" d="M276.356,28.274,265.072,10.088a4.32,4.32,0,0,0-7.342,0l-2.771,4.466a.879.879,0,1,0,1.493.926l2.771-4.466a2.563,2.563,0,0,1,4.356,0L274.863,29.2a2.563,2.563,0,0,1-2.178,3.914H250.118A2.563,2.563,0,0,1,247.94,29.2l6.485-10.453a.879.879,0,1,0-1.493-.926l-6.485,10.453a4.32,4.32,0,0,0,3.671,6.6h22.567a4.32,4.32,0,0,0,3.671-6.6Z" transform="translate(-216.999 -8.045)"/>
          <path id="Trazado_720901" data-name="Trazado 720901" d="M295.168,57.459a.878.878,0,0,0,.879.879h3.5A.879.879,0,0,0,300.29,57L289.137,39.019a.878.878,0,0,0-1.493,0L276.491,57a.879.879,0,0,0,.746,1.342H292.3a.879.879,0,1,0,0-1.757H278.817l9.574-15.431,9.574,15.431h-1.918A.878.878,0,0,0,295.168,57.459Z" transform="translate(-243.988 -35.025)"/>
          <path id="Trazado_720902" data-name="Trazado 720902" d="M372.454,156.3a.878.878,0,0,0-.879.879v.95a.879.879,0,0,0,1.757,0v-.95A.878.878,0,0,0,372.454,156.3Z" transform="translate(-328.051 -138.935)"/>
          <path id="Trazado_720903" data-name="Trazado 720903" d="M373.332,89.282a.879.879,0,0,0-1.757,0v4.7a.879.879,0,1,0,1.757,0Z" transform="translate(-328.051 -78.99)"/>
          <path id="Trazado_720904" data-name="Trazado 720904" d="M53.4,53.255a2.791,2.791,0,0,0-2.769,1.361L48.6,54.022c.011-.278.017-.557.017-.831,0-.211,0-.437-.012-.69a.878.878,0,0,0-1.756.057c.007.234.011.441.011.633,0,.277-.006.56-.019.84a1.641,1.641,0,0,0,1.18,1.652l2.894.846a.879.879,0,0,0,1.112-.694A1.023,1.023,0,0,1,53.2,55a.879.879,0,0,0,.138.011.718.718,0,0,1,.754.883l-.5,3.163a1.021,1.021,0,0,1-1.169.848,1.024,1.024,0,0,1-.849-1.155.878.878,0,0,0-.842-1.005l-3.082-.1a1.643,1.643,0,0,0-1.622,1.159,18.962,18.962,0,0,1-2.027,4.442,1.636,1.636,0,0,0,.237,2.037l1.78,1.763a.878.878,0,0,0,1.111.1A.985.985,0,0,1,48.429,68.6l-.856,1.028a.985.985,0,0,1-1.694-.933.878.878,0,0,0-.394-1.029l-2.2-1.28a1.645,1.645,0,0,0-1.992.261,19.147,19.147,0,0,1-7.4,4.6,1.641,1.641,0,0,0-1.114,1.7l.256,3a.879.879,0,0,0,1.049.786,1.014,1.014,0,0,1,1.2.77.986.986,0,0,1-.139.754,1.1,1.1,0,0,1-.69.484l-3.167.681a.635.635,0,0,1-.837-.676.882.882,0,0,0-.02-.185,1.024,1.024,0,0,1,.771-1.209A.878.878,0,0,0,31.84,76.2l-1.024-2.913A1.645,1.645,0,0,0,29.151,72.2c-.445.031-.9.047-1.34.047a19.065,19.065,0,0,1-12.242-4.455,1.645,1.645,0,0,0-1.886-.159l-2.65,1.552a.879.879,0,0,0-.2,1.355l.415.448a1.833,1.833,0,1,1-2.689,2.491L5.721,70.411A1.833,1.833,0,1,1,8.41,67.92l.415.448a.879.879,0,0,0,1.366-.1l1.8-2.593A1.632,1.632,0,0,0,12,63.825a18.973,18.973,0,0,1-1.957-3.741l-.011-.029A19.016,19.016,0,0,1,8.76,53.192a19.284,19.284,0,0,1,.133-2.253A1.641,1.641,0,0,0,7.838,49.2L5.017,48.147a.879.879,0,0,0-1.161.61,1.024,1.024,0,0,1-1.224.746.878.878,0,0,0-.2-.024.688.688,0,0,1-.558-.225.688.688,0,0,1-.09-.594l.753-3.184a1.1,1.1,0,0,1,.5-.68.985.985,0,0,1,.756-.123,1.015,1.015,0,0,1,.746,1.212A.879.879,0,0,0,5.3,46.95l3.067.326a1.647,1.647,0,0,0,1.7-1.036A19.023,19.023,0,0,1,12.18,42.3a1.64,1.64,0,0,0-.112-2.028l-1.992-2.262a.879.879,0,0,0-.653-.3H9.417A.878.878,0,0,0,8.766,38a1.015,1.015,0,0,1-1.42.092.986.986,0,0,1-.337-.688,1.1,1.1,0,0,1,.267-.8l1.9-2.157a1.02,1.02,0,0,1,1.54,1.34.878.878,0,0,0,.173,1.3l2.556,1.734a1.647,1.647,0,0,0,1.99-.111,18.925,18.925,0,0,1,10.211-4.444,1.641,1.641,0,0,0,1.447-1.426l.38-2.99a.878.878,0,0,0-.86-.989,1.021,1.021,0,0,1,.013-2.041h2.924a1.021,1.021,0,0,1,.013,2.041.878.878,0,0,0-.86.989l.389,3.063a1.648,1.648,0,0,0,1.4,1.42c.5.071,1.03.169,1.567.291a.879.879,0,0,0,.391-1.713c-.555-.127-1.1-.229-1.628-.306l-.276-2.173a2.777,2.777,0,0,0-1-5.368H26.628a2.777,2.777,0,0,0-1,5.368l-.267,2.1A20.683,20.683,0,0,0,19.4,34.154L18.081,31.7a.879.879,0,1,0-1.548.832l1.289,2.4a20.852,20.852,0,0,0-3.462,2.383l-1.814-1.23a2.777,2.777,0,0,0-4.687-2.8l-1.9,2.157a2.866,2.866,0,0,0-.7,2.085,2.729,2.729,0,0,0,.946,1.9A2.76,2.76,0,0,0,9.3,39.78l1.394,1.584a20.785,20.785,0,0,0-2.225,4.155l-2.17-.231a2.761,2.761,0,0,0-2.077-2.319,2.729,2.729,0,0,0-2.1.325,2.866,2.866,0,0,0-1.3,1.777L.072,48.255a2.435,2.435,0,0,0,.422,2.089,2.421,2.421,0,0,0,1.833.89,2.791,2.791,0,0,0,2.83-1.158l1.98.742A21.032,21.032,0,0,0,7,53.192q0,.6.034,1.195l-2.266.308a.879.879,0,1,0,.237,1.741l2.2-.3a20.678,20.678,0,0,0,.921,3.833l-1.25.658A.879.879,0,1,0,7.7,62.182l1.079-.568A20.778,20.778,0,0,0,10.5,64.742L9.353,66.4a3.59,3.59,0,0,0-4.921,5.207l2.836,3.062a3.59,3.59,0,0,0,5.568-4.508l1.665-.975a20.72,20.72,0,0,0,4.374,2.794l-.826,1.963a.878.878,0,1,0,1.619.682l.824-1.958a20.894,20.894,0,0,0,3.357.949v.668a.879.879,0,1,0,1.757,0v-.4a20.792,20.792,0,0,0,3.581.075l.727,2.068A2.791,2.791,0,0,0,28.7,78.837a2.448,2.448,0,0,0,.883,1.842,2.388,2.388,0,0,0,1.51.519,2.708,2.708,0,0,0,.568-.061l3.167-.681a2.867,2.867,0,0,0,1.8-1.259A2.729,2.729,0,0,0,37,77.107a2.76,2.76,0,0,0-2.276-2.124l-.179-2.1a20.715,20.715,0,0,0,3.911-1.817l1.085,1.48a.878.878,0,0,0,1.417-1.039L39.928,70.1a20.842,20.842,0,0,0,2.553-2.156l1.595.929a2.743,2.743,0,0,0,4.848,1.874l.856-1.028a2.741,2.741,0,0,0-2.971-4.356L45.531,64.1a20.72,20.72,0,0,0,2.142-4.7l2.187.069a2.791,2.791,0,0,0,2.278,2.165,2.778,2.778,0,0,0,3.18-2.307l.5-3.163A2.469,2.469,0,0,0,53.4,53.255Z" transform="translate(0.002 -23.068)"/>
        </g>
      </g>
    </g>
  </g>
</svg>
