<svg xmlns="http://www.w3.org/2000/svg" width="105" height="105" viewBox="0 0 105 105">
  <g id="Grupo_957785" data-name="Grupo 957785" transform="translate(-1125 -1362)">
    <circle id="Elipse_6704" data-name="Elipse 6704" cx="52.5" cy="52.5" r="52.5" transform="translate(1125 1362)" fill="#34bc85"/>
    <g id="molde" transform="translate(1146.335 1387)">
      <g id="Grupo_956614" data-name="Grupo 956614" transform="translate(4.494 0.83)">
        <path id="Trazado_720905" data-name="Trazado 720905" d="M55.644,37.16c.723-2.55,8.912-2.555,8.912-4.866,0-2.273-8.5-2.036-9.314-4.32-.011-.038-.022-.076-.034-.114h0a18.58,18.58,0,0,0-3.57-6.516c-1.707-2.37,7.219-9.378,4.293-12.3-2.872-2.872-9.89,7.294-12.893,6.564a18.509,18.509,0,0,0-3.146-.7c-2.982-.65-2.6-7.4-5.059-7.4-2.424,0-2.407,7.656-4.265,8.537l-.095.039a1.141,1.141,0,0,0-.116.047,18.667,18.667,0,0,0-7.136,5.184c-3.162,3.162-9.409-1.41-11.7.885s7.329,7.329,7.329,9.793c0,.044-.005.088-.008.131-.265,2.243-7.412-.074-7.412,2.949s7.284,1.424,8.2,3.81c.016.052.034.1.05.156l0,.013a2.519,2.519,0,0,0,.132.4,18.65,18.65,0,0,0,5.666,8.2c3.307,3.307-3.456,7.16-.222,8.854,3.118,1.633,3.937-5.518,7.82-5.034A18.643,18.643,0,0,0,52.07,44.842c2.73-2.73,5.864,1.467,6.886-1.1.991-2.484-3.731-3.944-3.363-6.354C55.611,37.315,55.628,37.238,55.644,37.16Z" transform="translate(-11.162 -7.5)" fill="#cec330"/>
        <path id="Trazado_720906" data-name="Trazado 720906" d="M138.924,115.99c0,.014,0,.028,0,.042a2.179,2.179,0,0,1-2.772,2.065,3.408,3.408,0,1,0-.874,6.7,3.378,3.378,0,0,0,1.03-.159,15.6,15.6,0,1,1,2.616-8.649Z" transform="translate(-97.05 -90.116)" fill="#43b59f"/>
        <circle id="Elipse_5455" data-name="Elipse 5455" cx="3.84" cy="3.84" r="3.84" transform="translate(19.681 16.73)" fill="#30ceb3"/>
        <circle id="Elipse_5456" data-name="Elipse 5456" cx="2.163" cy="2.163" r="2.163" transform="translate(22.061 32.955)" fill="#30ceb3"/>
        <path id="Trazado_720907" data-name="Trazado 720907" d="M375.116,380.115c-.736-1.786,1.5-5.708.524-6.685s-3.539,3.279-5.37,3.279a5.126,5.126,0,0,0-3.061,1.009.54.54,0,0,0-.1.077l-.095.074c-.931.6-3.911-1.162-4.628.027-.744,1.232,2.734,2.734,2.734,3.962a5.15,5.15,0,1,0,10-1.744Z" transform="translate(-323.424 -332.804)" fill="#cfc64f"/>
      </g>
      <g id="Grupo_956615" data-name="Grupo 956615" transform="translate(3.665)">
        <path id="Trazado_720908" data-name="Trazado 720908" d="M53.588,22.629c-1.48-.339-3.949-.9-4.226-1.588l-.028-.094,0-.005a19.3,19.3,0,0,0-3.7-6.77c-.365-.592,1.08-2.717,1.558-3.42a.83.83,0,1,0-1.373-.933c-1.373,2.02-2.523,3.949-1.52,5.341.013.017.026.035.04.051a17.656,17.656,0,0,1,3.41,6.225h0l.032.108c0,.013.008.026.013.039.552,1.548,2.919,2.09,5.425,2.664a22.068,22.068,0,0,1,2.971.815c.722.29.869.518.869.563,0,.09-.17.322-.806.621a19.773,19.773,0,0,1-2.753.917c-2.376.677-4.833,1.376-5.322,3.1-.005.019-.01.038-.014.058-.013.062-.027.124-.04.186l-.008.036c0,.018-.007.036-.01.054-.239,1.565.948,2.706,1.995,3.713,1.178,1.134,1.7,1.746,1.418,2.459-.16.4-.2.5-1.582.064-1.325-.415-3.326-1.042-5.121.753a.826.826,0,0,0-.066.074,17.7,17.7,0,0,1-14,6.817A17.883,17.883,0,0,1,26.6,43.99a.823.823,0,0,0-.09-.016c-2.429-.3-3.836,1.683-4.967,3.278-1.278,1.8-1.77,2.263-2.57,1.844-.25-.131-.4-.267-.439-.4-.121-.4.359-1.27.782-2.035.9-1.627,2.262-4.085.08-6.267-.017-.017-.036-.034-.054-.05A17.809,17.809,0,0,1,13.93,32.5c-.006-.018-.013-.036-.021-.053a1.689,1.689,0,0,1-.09-.269c0-.016-.008-.032-.013-.047l-.006-.021-.021-.065-.027-.084q-.008-.027-.018-.053c-.6-1.564-2.678-1.855-4.687-2.136-2.026-.284-3.46-.549-3.46-1.376,0-.2,0-.468.691-.679a11.188,11.188,0,0,1,2.531-.275c1.865-.073,3.979-.156,4.184-1.9,0-.014,0-.028,0-.042l.008-.127c0-.02,0-.04,0-.059,0-1.375-1.5-2.731-3.937-4.83C7.5,19.14,5.36,17.3,5.325,16.36a.3.3,0,0,1,.111-.25c.739-.738,2.437-.382,4.235,0,2.552.536,5.445,1.144,7.47-.881q.024-.024.046-.049A17.9,17.9,0,0,1,24,10.221l.037-.016.03-.013.044-.016.09-.037.051-.022c1.188-.564,1.663-2.407,2.213-4.541.352-1.368,1.009-3.916,1.7-3.916.6,0,1.1,1.516,1.5,2.733.651,1.976,1.389,4.215,3.386,4.65l.067.012a17.744,17.744,0,0,1,3.005.669l.054.015A2.2,2.2,0,0,0,36.7,9.8c1.634,0,3.588-1.666,5.815-3.565,2.271-1.936,5.1-4.346,6.164-3.28.7.7.349,2.026-1.125,4.312a.83.83,0,0,0,1.4.9c.855-1.326,2.857-4.432.9-6.386-1-1-2.418-1.008-4.2-.01a29.36,29.36,0,0,0-4.215,3.2c-1.658,1.413-3.924,3.346-4.848,3.158a19.411,19.411,0,0,0-3.215-.717c-1.053-.258-1.627-2-2.134-3.541C30.611,1.969,29.962,0,28.166,0c-1.975,0-2.651,2.624-3.3,5.162-.307,1.194-.82,3.184-1.3,3.448l-.03.012-.018.008c-.05.018-.1.039-.153.063a19.567,19.567,0,0,0-7.414,5.38c-1.392,1.362-3.7.877-5.932.409-2.151-.452-4.376-.919-5.75.455a1.955,1.955,0,0,0-.6,1.486c.062,1.659,2.132,3.438,4.323,5.323C9.234,22.816,11.31,24.6,11.347,25.3l0,.061c-.022.071-.213.162-.485.23a11.872,11.872,0,0,1-2.114.2,12.215,12.215,0,0,0-2.953.347A2.279,2.279,0,0,0,3.927,28.4c0,2.336,2.711,2.715,4.89,3.02,1.376.193,3.085.432,3.36,1.07l.023.073.012.038a3.326,3.326,0,0,0,.157.472,19.47,19.47,0,0,0,5.879,8.519c1.179,1.2.641,2.416-.383,4.265-.639,1.153-1.242,2.242-.92,3.316a2.362,2.362,0,0,0,1.259,1.4,2.741,2.741,0,0,0,1.277.335,2.638,2.638,0,0,0,1.6-.578A9.443,9.443,0,0,0,22.9,48.212c1.174-1.656,2.047-2.736,3.366-2.6a19.473,19.473,0,0,0,19.758-6.89c1-.973,1.961-.766,3.417-.309,1.135.356,2.851.893,3.62-1.033.73-1.828-.678-3.182-1.809-4.27-.821-.79-1.6-1.536-1.508-2.243v0c.013-.057.025-.114.037-.171.269-.824,2.523-1.466,4.173-1.936,2.45-.7,4.764-1.357,4.764-3.134C58.719,23.8,56.227,23.233,53.588,22.629Z" transform="translate(-3.665)"/>
        <path id="Trazado_720909" data-name="Trazado 720909" d="M186.173,151.175a4.67,4.67,0,1,0,4.67,4.67A4.675,4.675,0,0,0,186.173,151.175Zm0,7.68a3.01,3.01,0,1,1,3.01-3.01A3.013,3.013,0,0,1,186.173,158.855Z" transform="translate(-161.822 -134.445)"/>
        <path id="Trazado_720910" data-name="Trazado 720910" d="M206,297.781a2.993,2.993,0,1,0,2.993,2.993A3,3,0,0,0,206,297.781Zm0,4.327a1.333,1.333,0,1,1,1.333-1.333A1.335,1.335,0,0,1,206,302.108Z" transform="translate(-180.945 -264.826)"/>
        <path id="Trazado_720911" data-name="Trazado 720911" d="M367.419,366.175a12.236,12.236,0,0,0-1.526,1.31c-.718.682-1.8,1.713-2.366,1.713A5.931,5.931,0,0,0,360,370.353a1.368,1.368,0,0,0-.167.127,5.515,5.515,0,0,1-1.4-.224c-1.239-.293-2.781-.657-3.5.53-.772,1.279.543,2.421,1.5,3.255a5.152,5.152,0,0,1,1.112,1.153,5.98,5.98,0,1,0,11.607-2.042c-.007-.019-.014-.038-.022-.056-.269-.606.092-1.979.382-3.083.427-1.624.8-3.026-.029-3.851C369.18,365.859,368.508,365.457,367.419,366.175Zm.489,3.417c-.389,1.481-.792,3.011-.308,4.147a4.32,4.32,0,1,1-8.393,1.44c0-.927-.818-1.638-1.683-2.389a6.169,6.169,0,0,1-1.132-1.151,5.491,5.491,0,0,1,1.656.234,3.565,3.565,0,0,0,2.67.016.841.841,0,0,0,.078-.057l.054-.042.025-.02.046-.038.038-.027a4.284,4.284,0,0,1,2.567-.846c1.226,0,2.387-1.1,3.51-2.17a13.1,13.1,0,0,1,1.284-1.124A11.482,11.482,0,0,1,367.908,369.592Z" transform="translate(-315.851 -325.293)"/>
        <path id="Trazado_720912" data-name="Trazado 720912" d="M128.4,112.15a2.6,2.6,0,0,1,.864.078,3.049,3.049,0,0,0,2.656-.526,2.938,2.938,0,0,0,1.158-2.338v-.045a16.423,16.423,0,1,0-27.421,12.17.83.83,0,0,0,1.114-1.231,14.755,14.755,0,1,1,24.647-10.939v.04a1.273,1.273,0,0,1-.509,1.026,1.4,1.4,0,0,1-1.221.238,4.239,4.239,0,0,0-5.314,3.794,4.2,4.2,0,0,0,1.127,3.192A4.256,4.256,0,0,0,127.9,118.9a14.733,14.733,0,0,1-11.237,5.186h-.077a14.7,14.7,0,0,1-6.958-1.8.83.83,0,0,0-.8,1.456,16.368,16.368,0,0,0,7.746,2h.086a16.4,16.4,0,0,0,13.668-7.313.83.83,0,0,0-.943-1.252,2.578,2.578,0,0,1-3.348-2.644A2.583,2.583,0,0,1,128.4,112.15Z" transform="translate(-89.549 -82.615)"/>
        <path id="Trazado_720913" data-name="Trazado 720913" d="M321.951,183.462a.829.829,0,1,0-.922-.48A.836.836,0,0,0,321.951,183.462Z" transform="translate(-285.846 -161.699)"/>
        <path id="Trazado_720914" data-name="Trazado 720914" d="M412,435.432a.83.83,0,1,0-.34,1.03A.838.838,0,0,0,412,435.432Z" transform="translate(-365.388 -386.788)"/>
        <path id="Trazado_720915" data-name="Trazado 720915" d="M443.566,454.748a.83.83,0,1,0-.266.979A.839.839,0,0,0,443.566,454.748Z" transform="translate(-393.464 -403.967)"/>
        <path id="Trazado_720916" data-name="Trazado 720916" d="M169.77,262.743a.83.83,0,1,0,.272,1.081A.836.836,0,0,0,169.77,262.743Z" transform="translate(-150.24 -233.542)"/>
      </g>
    </g>
  </g>
</svg>
