<svg xmlns="http://www.w3.org/2000/svg" width="130" height="130" viewBox="0 0 130 130">
  <g id="Grupo_957782" data-name="Grupo 957782" transform="translate(-11251 11740)">
    <circle id="Elipse_6672" data-name="Elipse 6672" cx="65" cy="65" r="65" transform="translate(11251 -11740)" fill="#fce9c7"/>
    <g id="escala-de-peso" transform="translate(11294 -11694)">
      <g id="Grupo_956558" data-name="Grupo 956558" transform="translate(0.878 0.878)">
        <path id="Trazado_720818" data-name="Trazado 720818" d="M50.13,140.215H38.724a3.129,3.129,0,0,0-3.081,2.347L29.988,162.9a2.167,2.167,0,0,0,2.135,3.041H68.136a2.167,2.167,0,0,0,2.135-3.041l-5.654-20.34a3.129,3.129,0,0,0-3.081-2.347Zm0,0" transform="translate(-28.105 -128.772)" fill="#cbe558" fill-rule="evenodd"/>
        <path id="Trazado_720819" data-name="Trazado 720819" d="M163.235,179.949a9.38,9.38,0,1,0,6.633,2.745,9.349,9.349,0,0,0-6.633-2.745Zm0,0" transform="translate(-141.211 -165.015)" fill="#f9fceb" fill-rule="evenodd"/>
        <path id="Trazado_720820" data-name="Trazado 720820" d="M53.223,9.988H9.989a5.676,5.676,0,0,0,5.662,5.657h31.91a5.676,5.676,0,0,0,5.662-5.657Zm0,0" transform="translate(-9.989 -9.988)" fill="#cbe558" fill-rule="evenodd"/>
        <path id="Trazado_720821" data-name="Trazado 720821" d="M165.414,74.363h3.672V80.15h-3.672Zm0,0" transform="translate(-151.757 -68.707)" fill="#ffc15a" fill-rule="evenodd"/>
        <path id="Trazado_720822" data-name="Trazado 720822" d="M309.2,74.363h3.674V80.15H309.2Zm0,0" transform="translate(-282.904 -68.707)" fill="#ffc15a" fill-rule="evenodd"/>
        <path id="Trazado_720823" data-name="Trazado 720823" d="M244.244,268.063a1.632,1.632,0,1,0,1.579,1.63A1.605,1.605,0,0,0,244.244,268.063Zm0,0" transform="translate(-222.219 -245.386)" fill="#ff6977" fill-rule="evenodd"/>
      </g>
      <path id="Trazado_720824" data-name="Trazado 720824" d="M146.918,187.5a10.248,10.248,0,0,0,14.412,0c.016-.014.033-.028.048-.043s.028-.031.042-.046a10.226,10.226,0,0,0,.019-14.382c-.019-.023-.039-.046-.061-.067a.887.887,0,0,0-.068-.061,10.249,10.249,0,0,0-14.371,0c-.023.019-.046.039-.068.061s-.042.044-.06.067a10.226,10.226,0,0,0,.019,14.382c.013.015.027.031.042.046S146.9,187.488,146.918,187.5Zm-1.254-6.413h1.005a.878.878,0,1,0,0-1.755h-1.005a8.45,8.45,0,0,1,1.861-4.475l.708.707a.878.878,0,1,0,1.241-1.242l-.706-.706a8.47,8.47,0,0,1,4.479-1.857v1a.877.877,0,1,0,1.755,0v-1a8.47,8.47,0,0,1,4.48,1.857l-.707.706a.878.878,0,1,0,1.24,1.242l.708-.708a8.45,8.45,0,0,1,1.861,4.475h-1.005a.878.878,0,0,0,0,1.755h1.005a8.455,8.455,0,0,1-1.861,4.476l-.709-.708a.878.878,0,0,0-1.24,1.242l.708.707A8.472,8.472,0,0,1,155,188.663v-1a.877.877,0,1,0-1.755,0v1a8.471,8.471,0,0,1-4.481-1.858l.708-.707a.878.878,0,1,0-1.241-1.242l-.709.708a8.453,8.453,0,0,1-1.86-4.476Zm0,0" transform="translate(-131.222 -155.027)"/>
      <path id="Trazado_720825" data-name="Trazado 720825" d="M235.129,241.208a2.517,2.517,0,0,0,.877-4.852v-1.4a.878.878,0,0,0-1.755,0v1.4a2.517,2.517,0,0,0,.878,4.852Zm0-1.755a.756.756,0,1,1,.7-.755A.731.731,0,0,1,235.129,239.453Zm0,0" transform="translate(-212.227 -213.514)"/>
      <path id="Trazado_720826" data-name="Trazado 720826" d="M38.235,14.432a3.991,3.991,0,0,0-3.927-2.989H31.721V7.412h6.73A6.544,6.544,0,0,0,44.99.878.878.878,0,0,0,44.112,0H.878A.878.878,0,0,0,0,.878,6.545,6.545,0,0,0,6.54,7.412h7.118v4.031H11.5A3.991,3.991,0,0,0,7.57,14.432L5.5,21.873a.877.877,0,1,0,1.691.47L9.261,14.9A2.251,2.251,0,0,1,11.5,13.2H34.308a2.251,2.251,0,0,1,2.236,1.7L42.2,35.242a1.685,1.685,0,0,1-.113,1.432,1.5,1.5,0,0,1-1.177.5H4.9a1.5,1.5,0,0,1-1.176-.5,1.683,1.683,0,0,1-.113-1.432l1.631-5.876a.878.878,0,1,0-1.691-.47L1.916,34.772a3.237,3.237,0,0,0,.406,2.964A3.216,3.216,0,0,0,4.9,38.926H40.909a3.035,3.035,0,0,0,2.98-4.154ZM1.837,1.755H43.154a4.791,4.791,0,0,1-4.7,3.9H6.54a4.79,4.79,0,0,1-4.7-3.9ZM26.292,7.412v4.031H19.085V7.412ZM15.413,11.443V7.412h1.916v4.031Zm12.634,0V7.412h1.919v4.031Zm0,0" transform="translate(0 0)"/>
      <path id="Trazado_720827" data-name="Trazado 720827" d="M51.082,285.428a.878.878,0,0,0,1.11-.555l.005-.015a.878.878,0,0,0-1.665-.555l-.005.015a.878.878,0,0,0,.555,1.11Zm0,0" transform="translate(-46.046 -258.774)"/>
    </g>
  </g>
</svg>
