<svg xmlns="http://www.w3.org/2000/svg" width="130" height="130" viewBox="0 0 130 130">
  <g id="Grupo_957613" data-name="Grupo 957613" transform="translate(-667 -756)">
    <circle id="Elipse_6682" data-name="Elipse 6682" cx="65" cy="65" r="65" transform="translate(667 756)" fill="#fce9c7"/>
    <g id="quimica" transform="translate(700 789)">
      <g id="Grupo_956716" data-name="Grupo 956716">
        <g id="Grupo_956690" data-name="Grupo 956690">
          <path id="Trazado_721027" data-name="Trazado 721027" d="M21,42l1.73,12.09v.01a1.609,1.609,0,0,0-.58-.1,1.854,1.854,0,0,0-1.66,1.02L20,56H17l2-14Z" fill="#ffeaa7"/>
        </g>
        <g id="Grupo_956691" data-name="Grupo 956691">
          <path id="Trazado_721028" data-name="Trazado 721028" d="M22.75,39.37,21,42H19l-1.75-2.62L20,38Z" fill="#fcd770"/>
        </g>
        <g id="Grupo_956692" data-name="Grupo 956692">
          <path id="Trazado_721029" data-name="Trazado 721029" d="M26,51v5.18A2.772,2.772,0,0,0,25,56H24v-.15a1.835,1.835,0,0,0-1.27-1.75v-.01L21,42l1.75-2.63L26,41Z" fill="#b4dd7f"/>
        </g>
        <g id="Grupo_956693" data-name="Grupo 956693">
          <path id="Trazado_721030" data-name="Trazado 721030" d="M17.25,39.38,19,42,17,56H14V41Z" fill="#b4dd7f"/>
        </g>
        <g id="Grupo_956694" data-name="Grupo 956694">
          <path id="Trazado_721031" data-name="Trazado 721031" d="M26,34v7l-3.25-1.63L20,38l4-4Z" fill="#a0d468"/>
        </g>
        <g id="Grupo_956695" data-name="Grupo 956695">
          <path id="Trazado_721032" data-name="Trazado 721032" d="M20,38l-2.75,1.38L14,41V34.28A14.589,14.589,0,0,1,16,34Z" fill="#a0d468"/>
        </g>
        <g id="Grupo_956696" data-name="Grupo 956696">
          <path id="Trazado_721033" data-name="Trazado 721033" d="M30,34A16,16,0,0,0,46,18v3a2.015,2.015,0,0,0,2,2,2.006,2.006,0,0,0,2-2V19a2.015,2.015,0,0,0,2,2v2.78a21,21,0,0,1-8,16.5V39a1,1,0,0,0-1-1H41a1,1,0,0,0-1,1v3.76a21.517,21.517,0,0,1-4.88,1.62L32,45v5H27a1,1,0,0,0-1,1V34Z" fill="#e6e9ed"/>
        </g>
        <g id="Grupo_956697" data-name="Grupo 956697">
          <path id="Trazado_721034" data-name="Trazado 721034" d="M14,56h6v6H12A10,10,0,0,1,2,52V49.04A15.065,15.065,0,0,1,14,34.28V56Z" fill="#e6e9ed"/>
        </g>
        <g id="Grupo_956698" data-name="Grupo 956698">
          <path id="Trazado_721035" data-name="Trazado 721035" d="M50,8v5H46V8a2.006,2.006,0,0,1,2-2,2.015,2.015,0,0,1,2,2Z" fill="#ccd1d9"/>
        </g>
        <g id="Grupo_956699" data-name="Grupo 956699">
          <path id="Trazado_721036" data-name="Trazado 721036" d="M50,19v2a2.006,2.006,0,0,1-2,2,2.015,2.015,0,0,1-2-2V13h4v6Z" fill="#69d6f4"/>
        </g>
        <g id="Grupo_956700" data-name="Grupo 956700">
          <path id="Trazado_721037" data-name="Trazado 721037" d="M36,18a6,6,0,0,1-6,6h-.07a5.14,5.14,0,0,0,.07-.88v-3.3a2.988,2.988,0,0,0,0-5.64V12a2.006,2.006,0,0,0-2-2H20a4,4,0,0,0-4,4v2H14.47a2.469,2.469,0,0,0-1.1,4.68L16,22v7.46A3.89,3.89,0,0,1,14,30a4,4,0,0,1-4-4,4,4,0,0,1-2.9-6.75A6,6,0,0,1,10,8a6,6,0,0,1,6-6,5.931,5.931,0,0,1,4,1.54,5.986,5.986,0,0,1,8.62.63A5.67,5.67,0,0,1,30,4a6,6,0,0,1,6,6,5.931,5.931,0,0,1-1.54,4A5.931,5.931,0,0,1,36,18Z" fill="#656d78"/>
        </g>
        <g id="Grupo_956701" data-name="Grupo 956701">
          <path id="Trazado_721038" data-name="Trazado 721038" d="M30,14.17v.01A2.772,2.772,0,0,0,29,14a2.968,2.968,0,0,0-2.82,2H21.84l-.02.01a2.985,2.985,0,0,0-5.66.05L16,16V14a4,4,0,0,1,4-4h8a2.006,2.006,0,0,1,2,2Z" fill="#f0d0b4"/>
        </g>
        <g id="Grupo_956702" data-name="Grupo 956702">
          <path id="Trazado_721039" data-name="Trazado 721039" d="M30,19.83v3.29a5.14,5.14,0,0,1-.07.88,6.832,6.832,0,0,1-6.69,5.99V30L24,34l-4,4-4-4V22l-2.63-1.32A2.469,2.469,0,0,1,14.47,16H16l.16.06A2.653,2.653,0,0,0,16,17a3,3,0,1,0,6,0,2.718,2.718,0,0,0-.18-.99l.02-.01h4.34A2.772,2.772,0,0,0,26,17a3,3,0,0,0,3,3,2.772,2.772,0,0,0,1-.18Z" fill="#f0d0b4"/>
        </g>
        <g id="Grupo_956703" data-name="Grupo 956703">
          <path id="Trazado_721040" data-name="Trazado 721040" d="M29,14a2.772,2.772,0,0,1,1,.18,2.988,2.988,0,0,1,0,5.64A2.772,2.772,0,0,1,29,20a3,3,0,0,1-3-3,2.772,2.772,0,0,1,.18-1A2.968,2.968,0,0,1,29,14Z" fill="#69d6f4"/>
        </g>
        <g id="Grupo_956704" data-name="Grupo 956704">
          <path id="Trazado_721041" data-name="Trazado 721041" d="M21.82,16.01A2.718,2.718,0,0,1,22,17a3,3,0,0,1-6,0,2.653,2.653,0,0,1,.16-.94,2.985,2.985,0,0,1,5.66-.05Z" fill="#69d6f4"/>
        </g>
        <g id="Grupo_956705" data-name="Grupo 956705">
          <path id="Trazado_721042" data-name="Trazado 721042" d="M54,19a2.006,2.006,0,0,1-2,2,2.015,2.015,0,0,1-2-2V15a2.006,2.006,0,0,1,2-2,2.015,2.015,0,0,1,2,2Z" fill="#f0d0b4"/>
        </g>
        <g id="Grupo_956706" data-name="Grupo 956706">
          <path id="Trazado_721043" data-name="Trazado 721043" d="M45.41,13.59A2,2,0,0,1,44,17a2.006,2.006,0,0,1-2-2,1.994,1.994,0,0,1,3.41-1.41Z" fill="#f0d0b4"/>
        </g>
        <g id="Grupo_956707" data-name="Grupo 956707">
          <path id="Trazado_721044" data-name="Trazado 721044" d="M28,59a2.989,2.989,0,0,1-1.32,2.49h-.01A2.994,2.994,0,0,1,25,62H20V56l.49-.98A1.854,1.854,0,0,1,22.15,54a1.609,1.609,0,0,1,.58.1A1.835,1.835,0,0,1,24,55.85V56h1a2.772,2.772,0,0,1,1,.18,2.838,2.838,0,0,1,1.12.7A2.993,2.993,0,0,1,28,59Z" fill="#f0d0b4"/>
        </g>
        <g id="Grupo_956708" data-name="Grupo 956708">
          <path id="Trazado_721045" data-name="Trazado 721045" d="M36,58v2a2.006,2.006,0,0,1-.91,1.68A2.046,2.046,0,0,1,34,62H28a1.94,1.94,0,0,1-1.32-.51,3,3,0,0,0,.44-4.61,2.838,2.838,0,0,0-1.12-.7V51a1,1,0,0,1,1-1h8a1,1,0,0,1,1,1v7Z" fill="#ffeaa7"/>
        </g>
        <g id="Grupo_956709" data-name="Grupo 956709">
          <path id="Trazado_721046" data-name="Trazado 721046" d="M56,39v5H52V39a1,1,0,0,1,1-1h2A1,1,0,0,1,56,39Z" fill="#cf9e76"/>
        </g>
        <g id="Grupo_956710" data-name="Grupo 956710">
          <path id="Trazado_721047" data-name="Trazado 721047" d="M44,40.28V44H40V39a1,1,0,0,1,1-1h2a1,1,0,0,1,1,1Z" fill="#cf9e76"/>
        </g>
        <g id="Grupo_956711" data-name="Grupo 956711">
          <path id="Trazado_721048" data-name="Trazado 721048" d="M40,44h4v4H40Z" fill="#ccd1d9"/>
        </g>
        <g id="Grupo_956712" data-name="Grupo 956712">
          <path id="Trazado_721049" data-name="Trazado 721049" d="M44.67,56C42,56,42,58,39.33,58c-1.76,0-2.36-.87-3.33-1.47v-.2L40,51V48h4v3l2.28,3.04,2.92,3.89C47.3,57.58,47.03,56,44.67,56Z" fill="#e6e9ed"/>
        </g>
        <g id="Grupo_956713" data-name="Grupo 956713">
          <path id="Trazado_721050" data-name="Trazado 721050" d="M62,55.87a.57.57,0,0,1-.01.13c-2.66-.01-2.66-2-5.32-2S54,56,51.33,56c-2.56,0-2.66-1.85-5.04-1.99a6.088,6.088,0,0,1,1.92-2.85L52,48V44h4v4l3.79,3.16A6.135,6.135,0,0,1,62,55.87Z" fill="#e6e9ed"/>
        </g>
        <g id="Grupo_956714" data-name="Grupo 956714">
          <path id="Trazado_721051" data-name="Trazado 721051" d="M36,56.53c.97.6,1.57,1.47,3.33,1.47C42,58,42,56,44.67,56c2.36,0,2.63,1.58,4.53,1.93l.35.47a2.247,2.247,0,0,1-.2,2.93l-.01.01a2.237,2.237,0,0,1-1.59.66H36.25a2.294,2.294,0,0,1-1.16-.32A2.006,2.006,0,0,0,36,60V56.53Z" fill="#4fc1e9"/>
        </g>
        <g id="Grupo_956715" data-name="Grupo 956715">
          <path id="Trazado_721052" data-name="Trazado 721052" d="M46.29,54.01c2.38.14,2.48,1.99,5.04,1.99C54,56,54,54,56.67,54s2.66,1.99,5.32,2a6.108,6.108,0,0,1-6.12,6H52.13a6.037,6.037,0,0,1-2.78-.67,2.247,2.247,0,0,0,.2-2.93l-.35-.47-2.92-3.89c0-.01.01-.02.01-.03Z" fill="#69d6f4"/>
        </g>
      </g>
      <g id="Grupo_956717" data-name="Grupo 956717">
        <path id="Trazado_721053" data-name="Trazado 721053" d="M25,23.764a2.236,2.236,0,0,1-4,0l-.1-.211-1.789.9.1.21a4.236,4.236,0,0,0,7.578,0l.1-.211-1.789-.9Z"/>
        <path id="Trazado_721054" data-name="Trazado 721054" d="M60.436,50.394,57,47.532V39a2,2,0,0,0-2-2H53a2,2,0,0,0-2,2v8.532l-3.436,2.862a7.1,7.1,0,0,0-1.479,1.719L45,50.667V40.746a21.873,21.873,0,0,0,8-16.961V21.817A3,3,0,0,0,55,19V15a3,3,0,0,0-3-3,2.966,2.966,0,0,0-1,.184V8a3,3,0,0,0-6,0v4.184A2.966,2.966,0,0,0,44,12a3,3,0,0,0,0,6,2.966,2.966,0,0,0,1-.184V18A15.017,15.017,0,0,1,30,33H24.828l-.4-2.118a7.893,7.893,0,0,0,6.348-5.927A6.989,6.989,0,0,0,35.737,14,6.99,6.99,0,0,0,28.978,3.079,6.985,6.985,0,0,0,20,2.263a6.992,6.992,0,0,0-10.938,4.8A7,7,0,0,0,5.675,19.5,4.952,4.952,0,0,0,5,22a5.009,5.009,0,0,0,4.084,4.916A4.944,4.944,0,0,0,15,30.888v2.226A16.125,16.125,0,0,0,1,49.036V52A11.013,11.013,0,0,0,12,63H25a3.965,3.965,0,0,0,1.619-.349A2.987,2.987,0,0,0,28,63h6a2.972,2.972,0,0,0,1.1-.216A3.253,3.253,0,0,0,36.25,63h11.5a3.222,3.222,0,0,0,1.74-.515A7.154,7.154,0,0,0,52.129,63h3.742a7.13,7.13,0,0,0,4.565-12.606ZM55,39v4H53V39ZM48.846,51.93,53,48.468V45h2v3.468l4.154,3.462a5.113,5.113,0,0,1,1.73,2.863,4.546,4.546,0,0,1-.951-.593,5.049,5.049,0,0,0-6.535,0,3.068,3.068,0,0,1-4.132,0,5.948,5.948,0,0,0-1.553-.913,5.08,5.08,0,0,1,1.133-1.357Zm-3,3.2A5.226,5.226,0,0,0,44.665,55,4.912,4.912,0,0,0,41.4,56.2a2.97,2.97,0,0,1-2.067.8,2.9,2.9,0,0,1-2.011-.76L41,51.333V49h2v2.333ZM33,45.82l2.314-.463A22.118,22.118,0,0,0,39,44.274v6.393l-2,2.667V51a2,2,0,0,0-2-2H33ZM43,47H41V45h2Zm0-4H41V39h2Zm9-29a1,1,0,0,1,1,1v4a1,1,0,0,1-2,0V15A1,1,0,0,1,52,14ZM48,7a1,1,0,0,1,1,1v4H47V8A1,1,0,0,1,48,7Zm-4,9a1,1,0,1,1,1-1A1,1,0,0,1,44,16Zm3-2h2v7a1,1,0,0,1-2,0Zm-.868,9.329a2.968,2.968,0,0,0,4.752-1.549c.037.015.078.022.116.036v1.969a19.872,19.872,0,0,1-6.161,14.432A2,2,0,0,0,43,37H41a2,2,0,0,0-2,2v3.106a20.067,20.067,0,0,1-4.078,1.29L33,43.78V41H31v8H27V35h3A17.02,17.02,0,0,0,46.132,23.329ZM25,55h-.131a2.856,2.856,0,0,0-1.225-1.564l-1.6-11.2,1.048-1.572L25,41.618Zm-5.407-.422L19.382,55H18.153l1.714-12h.265l1.44,10.08a2.818,2.818,0,0,0-1.979,1.5ZM15.636,35.05l2.676,2.676L15,39.382V35.127c.21-.032.423-.055.636-.077ZM24.414,35H25v4.382l-3.312-1.656Zm-3.949,6h-.93l-.825-1.237L20,39.118l1.29.645ZM15,41.618l1.908-.954,1.048,1.572L16.132,55H15Zm14-18.5A5.882,5.882,0,0,1,21.257,28.7l-1.94-.647-.633,1.9,1.94.647a7.89,7.89,0,0,0,1.779.347l.516,2.724L20,36.586l-3-3v-12.2l-3.187-1.593A1.472,1.472,0,0,1,14.472,17H15a4,4,0,0,0,8,0h2a4,4,0,0,0,4,4ZM28,11a1,1,0,0,1,1,1v1a3.987,3.987,0,0,0-3.444,2H22.443a3.931,3.931,0,0,0-5.4-1.469A3,3,0,0,1,20,11Zm1,8a2,2,0,1,1,2-2A2,2,0,0,1,29,19ZM19,15a2,2,0,1,1-2,2A2,2,0,0,1,19,15ZM14,29a3,3,0,0,1-3-3V25H10a2.991,2.991,0,0,1-2.171-5.058L8.719,19l-1.132-.625A5,5,0,0,1,10,9h1V8a4.993,4.993,0,0,1,8.333-3.719l.667.6.667-.6a4.99,4.99,0,0,1,7.18.525l.4.477.6-.143a4.991,4.991,0,0,1,4.872,8.192l-.6.668.6.668A4.992,4.992,0,0,1,31,22.9V20.444a3.965,3.965,0,0,0,0-6.888V12a3,3,0,0,0-3-3H24a1,1,0,0,1,0-2h1V5H24a3,3,0,0,0-3,3,2.966,2.966,0,0,0,.184,1H20a5.006,5.006,0,0,0-5,5v1h-.528a3.472,3.472,0,0,0-1.553,6.577L15,22.618v6.188A2.986,2.986,0,0,1,14,29ZM3,52V49.036A14.128,14.128,0,0,1,13,35.581V55H12a3,3,0,0,1-3-3V45H7v7a5.006,5.006,0,0,0,5,5h7v4H12A9.01,9.01,0,0,1,3,52Zm18,9V56.236l.382-.764A.854.854,0,0,1,23,55.854V57h2a2,2,0,1,1,0,4Zm7.444,0A3.936,3.936,0,0,0,27,55.556V51h8v2H31v2h4v2H33v2h2v1a1,1,0,0,1-1,1ZM47.75,61H36.816A2.966,2.966,0,0,0,37,60V58.428A4.626,4.626,0,0,0,39.331,59,4.912,4.912,0,0,0,42.6,57.8a3.072,3.072,0,0,1,4.135,0,5.627,5.627,0,0,0,1.867,1l.15.2a1.25,1.25,0,0,1-1,2Zm8.121,0H52.129a5.138,5.138,0,0,1-1.325-.178A3.2,3.2,0,0,0,51,59.75a3.266,3.266,0,0,0-.65-1.95L49.5,56.661A4.772,4.772,0,0,0,51.331,57,4.912,4.912,0,0,0,54.6,55.8a3.072,3.072,0,0,1,4.135,0A5.229,5.229,0,0,0,60.9,56.889,5.137,5.137,0,0,1,55.871,61Z"/>
      </g>
    </g>
  </g>
</svg>
