<svg id="Grupo_957380" data-name="Grupo 957380" xmlns="http://www.w3.org/2000/svg" width="100" height="100" viewBox="0 0 100 100">
  <circle id="Elipse_5386" data-name="Elipse 5386" cx="50" cy="50" r="50" fill="#badc61"/>
  <g id="tubo-de-ensayo_2_" data-name="tubo-de-ensayo (2)" transform="translate(25.217 25.217)">
    <path id="Trazado_720601" data-name="Trazado 720601" d="M38.671,387.11l-9.241,9.241a7.269,7.269,0,0,0,10.268,0l4.107-4.107Z" transform="translate(-26.581 -349.635)" fill="#ffbe8f"/>
    <path id="Trazado_720602" data-name="Trazado 720602" d="M13.729,334.077l-4.107,4.107a7.269,7.269,0,0,0,0,10.268c1.7,1.7,5.384.777,8.214-2.054,0,0-4.107-12.322-4.107-12.322Z" transform="translate(-6.772 -301.736)" fill="#ffe4ad"/>
    <path id="Trazado_720603" data-name="Trazado 720603" d="M120.476,183.5a7.253,7.253,0,0,1-6.157,2.05l17.237-29.558,8.214,8.214Z" transform="translate(-103.252 -140.89)" fill="#adf2f5"/>
    <path id="Trazado_720604" data-name="Trazado 720604" d="M79.559,142.992,75.452,147.1,57.185,159.206l3.08,3.08-4.1,4.1a7.256,7.256,0,0,1-4.111-12.318l19.294-19.294Z" transform="translate(-45.094 -121.73)" fill="#e0feff"/>
    <path id="Trazado_720605" data-name="Trazado 720605" d="M110.313,262.057l-17.24,15.186a4.356,4.356,0,0,0,6.161,0l15.186-15.186Z" transform="translate(-84.063 -236.688)" fill="#ffb433"/>
    <path id="Trazado_720606" data-name="Trazado 720606" d="M85.276,275.19l13.133-13.133H90.194l-9.025,9.025a4.356,4.356,0,0,0,0,6.161C81.736,277.81,83.574,276.891,85.276,275.19Z" transform="translate(-72.158 -236.688)" fill="#946907"/>
    <path id="Trazado_720607" data-name="Trazado 720607" d="M335.823,166.6l-1.027,7.188H338.9Z" transform="translate(-302.385 -150.47)" fill="#46d3db"/>
    <path id="Trazado_720608" data-name="Trazado 720608" d="M278.344,137.858l-7.188-3.08v4.107l6.161,6.161,2.054-2.054Z" transform="translate(-244.906 -121.73)" fill="#80e7ed"/>
    <path id="Trazado_720609" data-name="Trazado 720609" d="M353.616,111.172l-8.214-8.214,1.027,11.295,2.054,2.054Z" transform="translate(-311.964 -92.991)" fill="#01b1bc"/>
    <path id="Trazado_720610" data-name="Trazado 720610" d="M0,0H11.617V7.261H0Z" transform="translate(31.382 7.91) rotate(45)" fill="#46d3db"/>
    <path id="Trazado_720611" data-name="Trazado 720611" d="M406.649,113.565h-8.214v8.214l2.054,2.054,8.214-8.214Z" transform="translate(-359.863 -102.571)" fill="#46d3db"/>
    <path id="Trazado_720612" data-name="Trazado 720612" d="M0,0H11.617V14.521H0Z" transform="translate(28.3 8.943) rotate(-45)" fill="#80e7ed"/>
    <path id="Trazado_720613" data-name="Trazado 720613" d="M49.353,12.534,37.032.213A.726.726,0,0,0,36,.213L27.79,8.427a.726.726,0,0,0,0,1.027l.513.513L11.983,26.288a.726.726,0,0,0,1.027,1.027L25.524,14.8v2.354a.726.726,0,0,0,.213.513L31.9,23.829a.726.726,0,0,0,.513.213h2.354L16.711,42.1a6.534,6.534,0,0,1-9.242-9.24l3.487-3.487a.726.726,0,0,0-1.027-1.027L6.443,31.828,2.336,35.935A7.987,7.987,0,0,0,13.631,47.23L39.6,21.262l.513.513a.726.726,0,0,0,1.027,0l8.214-8.214a.726.726,0,0,0,0-1.027ZM12.6,46.2a6.535,6.535,0,0,1-9.241-9.241l.866-.866a7.975,7.975,0,0,0,7.862,9.363,8.1,8.1,0,0,0,1.378-.12ZM26.976,16.854V14.8l7.789,7.789H32.712Zm9.542,5.435-9.241-9.241,2.054-2.054,9.241,9.241Zm4.107-2.054L29.33,8.941l7.188-7.188L47.813,13.048Z" transform="translate(0 0)"/>
    <path id="Trazado_720614" data-name="Trazado 720614" d="M73.9,270.985a5.082,5.082,0,0,0,7.188,0L96.276,255.8a.726.726,0,0,0-.513-1.239H83.441a.726.726,0,0,0-.513.213L73.9,263.8A5.088,5.088,0,0,0,73.9,270.985Zm9.84-14.974H94.01L80.063,269.958a3.63,3.63,0,0,1-5.134-5.134Z" transform="translate(-65.405 -229.916)"/>
  </g>
</svg>
