<svg xmlns="http://www.w3.org/2000/svg" width="130" height="130" viewBox="0 0 130 130">
  <g id="Grupo_957767" data-name="Grupo 957767" transform="translate(-4862.92 11365.248)">
    <circle id="Elipse_6672" data-name="Elipse 6672" cx="65" cy="65" r="65" transform="translate(4862.92 -11365.248)" fill="#fce9c7"/>
    <g id="libro" transform="translate(4899.92 -11327.251)">
      <path id="Trazado_724849" data-name="Trazado 724849" d="M2,18H53.689V52.459H2Z" transform="translate(-0.139 -2.354)" fill="#4d8c28"/>
      <path id="Trazado_724850" data-name="Trazado 724850" d="M28.4,21.169A5.169,5.169,0,0,0,23.23,16H6V45.291H20.079A11.766,11.766,0,0,1,28.4,48.736Z" transform="translate(-0.693 -2.077)" fill="#f2f2f2"/>
      <path id="Trazado_724851" data-name="Trazado 724851" d="M15.307,45.307A4.307,4.307,0,0,0,11,41v4.307Z" transform="translate(-1.385 -5.54)" fill="#6bc13b"/>
      <path id="Trazado_724852" data-name="Trazado 724852" d="M8,50v3.446H28.676A11.766,11.766,0,0,0,20.356,50Z" transform="translate(-0.97 -6.787)" fill="#ddd"/>
      <path id="Trazado_724853" data-name="Trazado 724853" d="M52.676,50v3.446H32A11.766,11.766,0,0,1,40.319,50Z" transform="translate(-4.294 -6.787)" fill="#b5b5b5"/>
      <path id="Trazado_724854" data-name="Trazado 724854" d="M32,21.169A5.169,5.169,0,0,1,37.169,16H54.4V45.291H40.319A11.766,11.766,0,0,0,32,48.736Z" transform="translate(-4.294 -2.077)" fill="#ddd"/>
      <path id="Trazado_724855" data-name="Trazado 724855" d="M51.169,50V60.338l-2.584-2.584L46,60.338V50" transform="translate(-6.233 -6.787)" fill="#f4a93c"/>
      <path id="Trazado_724856" data-name="Trazado 724856" d="M46,50V60.338l2.584-2.584V50Z" transform="translate(-6.233 -6.787)" fill="#f6b940"/>
      <path id="Trazado_724857" data-name="Trazado 724857" d="M37,40h5.17v1.723H37Z" transform="translate(-4.987 -5.402)" fill="#f2f2f2"/>
      <path id="Trazado_724858" data-name="Trazado 724858" d="M37,44h5.17v1.723H37Z" transform="translate(-4.987 -5.956)" fill="#f2f2f2"/>
      <path id="Trazado_724859" data-name="Trazado 724859" d="M14.323,22.293,11.917,24.7,9.512,22.293,8.293,23.512,10.7,25.917,8.293,28.323l1.219,1.219,2.405-2.406,2.406,2.406,1.219-1.219-2.406-2.406,2.406-2.405Z" transform="translate(-1.01 -2.949)" fill="#ddd"/>
      <path id="Trazado_724860" data-name="Trazado 724860" d="M20.446,24H18.723v1.723H17v1.723h1.723v1.723h1.724V27.446h1.724V25.723H20.447Z" transform="translate(-2.216 -3.185)" fill="#ddd"/>
      <path id="Trazado_724861" data-name="Trazado 724861" d="M28.749,23.434,27.37,22.4l-1.9,2.527L23.58,22.4,22.2,23.434l2.412,3.216v3.159h1.724V26.65Z" transform="translate(-2.937 -2.964)" fill="#ddd"/>
      <path id="Trazado_724862" data-name="Trazado 724862" d="M52.03,45.892H46.861a.861.861,0,0,1-.662-1.413l3.13-3.756H46V39h5.169a.861.861,0,0,1,.662,1.414L48.7,44.169H52.03Z" transform="translate(-6.233 -5.263)" fill="#f2f2f2"/>
      <path id="Trazado_724863" data-name="Trazado 724863" d="M22.061,44.922h-11.2A.861.861,0,0,1,10,44.061v-11.2a.861.861,0,0,1,1.471-.609l11.2,11.2a.861.861,0,0,1-.61,1.471ZM11.723,43.2h8.258l-8.258-8.257Z" transform="translate(-1.247 -4.293)" fill="#fad85d"/>
      <path id="Trazado_724864" data-name="Trazado 724864" d="M0,0H6.892V27.568H0Z" transform="translate(44.922 1.853) rotate(31.671)" fill="#f6b940"/>
      <g id="Grupo_957349" data-name="Grupo 957349" transform="translate(32.695 5.525)">
        <path id="Trazado_724865" data-name="Trazado 724865" d="M0,0H1.722V2.584H0Z" transform="translate(9.047 1.466) rotate(-58.329)" fill="#fad85d"/>
        <path id="Trazado_724866" data-name="Trazado 724866" d="M0,0H1.722V2.584H0Z" transform="translate(7.238 4.397) rotate(-58.329)" fill="#fad85d"/>
        <path id="Trazado_724867" data-name="Trazado 724867" d="M0,0H1.722V2.585H0Z" transform="translate(5.434 7.334) rotate(-58.329)" fill="#fad85d"/>
        <path id="Trazado_724868" data-name="Trazado 724868" d="M0,0H1.722V2.584H0Z" transform="translate(3.619 10.261) rotate(-58.329)" fill="#fad85d"/>
        <path id="Trazado_724869" data-name="Trazado 724869" d="M0,0H1.722V2.584H0Z" transform="translate(1.811 13.192) rotate(-58.329)" fill="#fad85d"/>
        <path id="Trazado_724870" data-name="Trazado 724870" d="M0,0H1.722V2.584H0Z" transform="translate(0 16.124) rotate(-58.329)" fill="#fad85d"/>
      </g>
      <path id="Trazado_724871" data-name="Trazado 724871" d="M53.551,14.784H50.966v-.861a.861.861,0,0,0-.861-.861H47.119l4.4-7.126a.861.861,0,0,0-.282-1.185L45.373,1.131a.853.853,0,0,0-.65-.105.861.861,0,0,0-.535.386L37,13.061h-4.12a6.036,6.036,0,0,0-5.169,2.929,6.03,6.03,0,0,0-5.169-2.929H5.307a.861.861,0,0,0-.861.861v.861H1.861A.861.861,0,0,0,1,15.646V50.105a.861.861,0,0,0,.861.861H38.905v2.584a.861.861,0,0,0,1.471.609l1.975-1.975,1.975,1.975a.861.861,0,0,0,1.471-.61V50.967h7.753a.861.861,0,0,0,.861-.861V15.646A.861.861,0,0,0,53.551,14.784ZM45.8,44.075H47.52V45.8H45.8ZM45.2,3.047l4.394,2.715L36.025,27.756,31.631,25.04l1.809-2.929,1.465.905.9-1.465-1.469-.91.905-1.465,1.465.905.9-1.465-1.465-.905.905-1.465,1.465.9.9-1.465-1.465-.9.905-1.465,1.465.9.9-1.465-1.465-.905.905-1.465,1.465.905.9-1.465-1.465-.905.9-1.465,1.465.905.9-1.465L43.387,6ZM32.875,14.784H35.93L29.707,24.869a.861.861,0,0,0,.281,1.185l5.865,3.618a.861.861,0,0,0,1.185-.281l9.017-14.607h3.187V42.352H36.026a12.529,12.529,0,0,0-7.459,2.436v-25.7A4.313,4.313,0,0,1,32.875,14.784ZM7.892,44.075h11.5A10.823,10.823,0,0,1,25.263,45.8H7.892Zm31.013,0V45.8H30.151a10.823,10.823,0,0,1,5.875-1.723ZM6.169,14.784H22.537a4.313,4.313,0,0,1,4.307,4.307v25.7a12.526,12.526,0,0,0-7.457-2.437H6.169ZM2.723,49.244V16.507H4.446V43.213a.861.861,0,0,0,.861.861h.861v2.584a.861.861,0,0,0,.861.861H38.905v1.723Zm40.238,1.113a.861.861,0,0,0-1.219,0l-1.114,1.115v-7.4h3.446v7.4Zm9.728-1.113H45.8V47.521h2.584a.861.861,0,0,0,.861-.861V44.075H50.1a.861.861,0,0,0,.861-.861V16.507h1.723Z" transform="translate(0 0)"/>
      <path id="Trazado_724872" data-name="Trazado 724872" d="M14.323,29.542l1.219-1.219-2.406-2.406,2.406-2.405-1.219-1.219L11.917,24.7,9.512,22.293,8.293,23.512,10.7,25.917,8.293,28.323l1.219,1.219,2.405-2.406Z" transform="translate(-1.01 -2.949)"/>
      <path id="Trazado_724873" data-name="Trazado 724873" d="M37,40h5.17v1.723H37Z" transform="translate(-4.987 -5.402)"/>
      <path id="Trazado_724874" data-name="Trazado 724874" d="M37,44h5.17v1.723H37Z" transform="translate(-4.987 -5.956)"/>
      <path id="Trazado_724875" data-name="Trazado 724875" d="M18.724,29.169h1.724V27.446h1.724V25.723H20.447V24H18.723v1.723H17v1.723h1.723Z" transform="translate(-2.216 -3.185)"/>
      <path id="Trazado_724876" data-name="Trazado 724876" d="M24.613,29.809h1.724V26.65l2.412-3.216L27.37,22.4l-1.9,2.527L23.58,22.4,22.2,23.434l2.412,3.216Z" transform="translate(-2.937 -2.964)"/>
      <path id="Trazado_724877" data-name="Trazado 724877" d="M46.2,44.479a.861.861,0,0,0,.662,1.413H52.03V44.169H48.7l3.13-3.755A.861.861,0,0,0,51.169,39H46v1.723h3.33Z" transform="translate(-6.233 -5.263)"/>
      <path id="Trazado_724878" data-name="Trazado 724878" d="M22.858,44.391a.861.861,0,0,0-.187-.939l-11.2-11.2A.861.861,0,0,0,10,32.861v11.2a.861.861,0,0,0,.861.861h11.2A.861.861,0,0,0,22.858,44.391ZM11.723,40.737A3.446,3.446,0,0,1,14.186,43.2H11.723ZM15.954,43.2a5.177,5.177,0,0,0-4.231-4.23V34.942L19.981,43.2Z" transform="translate(-1.247 -4.293)"/>
    </g>
  </g>
</svg>
