<svg xmlns="http://www.w3.org/2000/svg" width="130" height="130" viewBox="0 0 130 130">
  <g id="Grupo_957770" data-name="Grupo 957770" transform="translate(-4862.92 11365.248)">
    <circle id="Elipse_6672" data-name="Elipse 6672" cx="65" cy="65" r="65" transform="translate(4862.92 -11365.248)" fill="#fce9c7"/>
    <g id="matematicas" transform="translate(4899.28 -11337.225)">
      <g id="Grupo_957351" data-name="Grupo 957351" transform="translate(5.459 19.335)">
        <path id="Trazado_724879" data-name="Trazado 724879" d="M0,0H29.187V42.2H0Z" transform="translate(1.982 29.187) rotate(-89.484)" fill="#ffa75f"/>
        <path id="Trazado_724880" data-name="Trazado 724880" d="M0,0H26.626V36.978H0Z" transform="translate(4.595 29.21) rotate(-89.484)" fill="#4d5e80"/>
        <g id="Grupo_957350" data-name="Grupo 957350" transform="translate(7.02 25.623)">
          <path id="Trazado_724881" data-name="Trazado 724881" d="M0,0H3.617V10.249H0Z" transform="translate(0.001 3.617) rotate(-89.484)" fill="#0094ce"/>
          <path id="Trazado_724882" data-name="Trazado 724882" d="M0,0H3.617V7.536H0Z" transform="translate(0 3.618) rotate(-89.484)" fill="#fb3d80"/>
        </g>
        <path id="Trazado_724883" data-name="Trazado 724883" d="M0,0H3.215V46.122H0Z" transform="translate(0 32.39) rotate(-89.484)" fill="#ffbe82"/>
        <path id="Trazado_724884" data-name="Trazado 724884" d="M71.7,58.61,51.774,78.193l19.754.171ZM67.827,74.6l-7.189-.062,7.251-7.126Z" transform="translate(-33.508 -43.135)" fill="#fb3d80"/>
      </g>
      <g id="Grupo_957352" data-name="Grupo 957352" transform="translate(4.875 18.814)">
        <path id="Trazado_724885" data-name="Trazado 724885" d="M50.444,19.517a.7.7,0,0,0-.7-.7H7.538a.7.7,0,0,0-.7.7V48H5.578a.7.7,0,0,0-.7.7V51.92a.7.7,0,0,0,.7.7H18.8a.7.7,0,1,0,0-1.407H6.282V49.407H27.908l-4.529,4.53a.7.7,0,0,0,.5,1.2H43.631a.7.7,0,0,0,.7-.7V52.623H51.7a.7.7,0,0,0,.7-.7V48.7a.7.7,0,0,0-.7-.7H47.831V22.078a.7.7,0,0,0-.7-.7H21.455a.7.7,0,1,0,0,1.407H46.425V48h-2.09V34.679a.7.7,0,0,0-1.2-.5l-3.65,3.65a.7.7,0,1,0,.995.994l2.449-2.449V39.03h-.741a.7.7,0,0,0,0,1.407h.74v1.031h-.74a.7.7,0,1,0,0,1.407h.74V43.9h-.74a.7.7,0,0,0,0,1.407h.74v1.029h-.74a.7.7,0,0,0,0,1.407h.74v1.03h-.74a.7.7,0,0,0,0,1.407h.74v1.032h-.74a.7.7,0,0,0,0,1.407h.74v1.108H25.574l10.22-10.218a.7.7,0,1,0-.995-.995L29.314,48H23.527V45.087a.7.7,0,0,0-.7-.7H12.574a.7.7,0,0,0-.7.7V46.6a.7.7,0,1,0,1.407,0V45.79h6.129V48H10.854V22.782h5.172a.7.7,0,1,0,0-1.407H10.15a.7.7,0,0,0-.7.7V48H8.241V20.221h40.8V42.594a.7.7,0,0,0,1.407,0Zm-6.109,29.89H51v1.809H44.334ZM20.815,45.79h1.306V48H20.815Z" transform="translate(-4.875 -18.814)" fill="#292a2d"/>
        <path id="Trazado_724886" data-name="Trazado 724886" d="M115.453,82.24a.7.7,0,0,0-.7.7v.338a.7.7,0,1,0,1.407,0v-.338a.7.7,0,0,0-.7-.7Z" transform="translate(-70.588 -56.747)" fill="#292a2d"/>
        <path id="Trazado_724887" data-name="Trazado 724887" d="M46.838,99.43h-.585a.7.7,0,1,0,0,1.407h.586a.7.7,0,1,0,0-1.407Z" transform="translate(-29.201 -67.028)" fill="#292a2d"/>
        <path id="Trazado_724888" data-name="Trazado 724888" d="M74.274,52.8a.7.7,0,0,0-.995,0l-1.263,1.263L70.753,52.8a.7.7,0,1,0-.995.995l1.263,1.263-1.263,1.263a.7.7,0,1,0,.995.995l1.263-1.264,1.263,1.263a.7.7,0,1,0,.994-.994L73.011,55.06,74.274,53.8A.7.7,0,0,0,74.274,52.8Z" transform="translate(-43.557 -39.018)" fill="#292a2d"/>
        <path id="Trazado_724889" data-name="Trazado 724889" d="M86.013,72.172l.205-.205a.7.7,0,0,0-.995-.995l-.205.205a.7.7,0,0,0,.995.995Z" transform="translate(-52.683 -49.884)" fill="#292a2d"/>
        <path id="Trazado_724890" data-name="Trazado 724890" d="M72.428,86.674a.7.7,0,0,0,.65.434h7.189a.7.7,0,0,0,.7-.7V79.216a.7.7,0,0,0-1.2-.5l-7.189,7.189A.7.7,0,0,0,72.428,86.674Zm7.135-5.76V83.7H78.077a.7.7,0,0,0,0,1.407h1.487V85.7H74.776Z" transform="translate(-45.244 -54.517)" fill="#292a2d"/>
        <path id="Trazado_724891" data-name="Trazado 724891" d="M37.144,26.593h.238a.7.7,0,1,0,0-1.407h-.238a.7.7,0,0,0,0,1.407Z" transform="translate(-23.754 -22.625)" fill="#292a2d"/>
        <path id="Trazado_724892" data-name="Trazado 724892" d="M47.441,43.764H34.856a.7.7,0,0,0-.648.429l-2.847,6.728-1.282-3.03a.7.7,0,0,0-.648-.429h-1.04a.7.7,0,1,0,0,1.407h.574L30.713,53a.7.7,0,0,0,1.3,0l3.313-7.83H47.441a.7.7,0,1,0,0-1.407Z" transform="translate(-18.519 -33.736)" fill="#292a2d"/>
        <path id="Trazado_724893" data-name="Trazado 724893" d="M51.727,52.8a.7.7,0,0,0-.995,0l-1.263,1.263L48.206,52.8a.7.7,0,1,0-.994.995l1.263,1.263-1.263,1.263a.7.7,0,1,0,.994.995l1.263-1.264,1.263,1.263a.7.7,0,0,0,.995-.995l-1.263-1.262L51.727,53.8a.7.7,0,0,0,0-.995Z" transform="translate(-30.072 -39.018)" fill="#292a2d"/>
        <path id="Trazado_724894" data-name="Trazado 724894" d="M61.011,56.977a.7.7,0,1,0,0,1.407H62.9a.7.7,0,1,0,0-1.407Z" transform="translate(-38.028 -41.638)" fill="#292a2d"/>
      </g>
    </g>
  </g>
</svg>
