<svg xmlns="http://www.w3.org/2000/svg" width="105" height="105" viewBox="0 0 105 105">
  <g id="Grupo_957784" data-name="Grupo 957784" transform="translate(-747 -1362)">
    <circle id="Elipse_6703" data-name="Elipse 6703" cx="52.5" cy="52.5" r="52.5" transform="translate(747 1362)" fill="#34bc85"/>
    <g id="algas" transform="translate(759.002 1388)">
      <path id="Trazado_720917" data-name="Trazado 720917" d="M251.447,55.449,240.586,41.294a9.47,9.47,0,0,1-1.957-5.765V22.5H226l13.393,50.727h3.157a11.135,11.135,0,0,0,11.181-10.954,11,11,0,0,0-2.284-6.824Z" transform="translate(-188.795 -20.132)" fill="#7cf0ee"/>
      <path id="Trazado_720918" data-name="Trazado 720918" d="M68.49,62.259H56.8v-18L56,43.216a12.7,12.7,0,0,1-2.609-7.687V22.5H37.6V35.528a9.472,9.472,0,0,1-1.957,5.766L24.784,55.449A11,11,0,0,0,22.5,62.273,11.135,11.135,0,0,0,33.681,73.227H57.31A11.147,11.147,0,0,0,68.49,62.259Z" transform="translate(-6.712 -20.132)" fill="#bdf7f7"/>
      <path id="Trazado_720919" data-name="Trazado 720919" d="M324.644,242.387l-10.06-13.111H310.6l4.62,25.808h3.157a7.9,7.9,0,0,0,7.893-7.893A7.817,7.817,0,0,0,324.644,242.387Z" transform="translate(-264.495 -205.147)" fill="#5b9b40"/>
      <path id="Trazado_720920" data-name="Trazado 720920" d="M92.176,247.192a4.687,4.687,0,0,0-.977-2.881L79.663,229.277H64.19L54.13,242.388a7.817,7.817,0,0,0-1.63,4.8,7.9,7.9,0,0,0,7.893,7.893h23.89A7.9,7.9,0,0,0,92.176,247.192Z" transform="translate(-33.555 -205.147)" fill="#70ae3e"/>
      <circle id="Elipse_5457" data-name="Elipse 5457" cx="4.736" cy="4.736" r="4.736" transform="translate(49.15 37.308)" fill="#37774b"/>
      <path id="Trazado_720921" data-name="Trazado 720921" d="M319.157,10.657H316V7.5h3.157a1.579,1.579,0,1,1,0,3.157Z" transform="translate(-269.323 -6.711)" fill="#30caf3"/>
      <path id="Trazado_720922" data-name="Trazado 720922" d="M169.944,9.079a1.579,1.579,0,0,1-1.579,1.579H152.579a1.579,1.579,0,1,1,0-3.157h15.786A1.579,1.579,0,0,1,169.944,9.079Z" transform="translate(-121.688 -6.711)" fill="#3ae8e6"/>
      <circle id="Elipse_5458" data-name="Elipse 5458" cx="1.579" cy="1.579" r="1.579" transform="translate(52.307 40.465)" fill="#cede51"/>
      <circle id="Elipse_5459" data-name="Elipse 5459" cx="4.736" cy="4.736" r="4.736" transform="translate(22.103 37.308)" fill="#37774b"/>
      <circle id="Elipse_5460" data-name="Elipse 5460" cx="1.579" cy="1.579" r="1.579" transform="translate(25.26 40.465)" fill="#cede51"/>
      <circle id="Elipse_5461" data-name="Elipse 5461" cx="4.736" cy="4.736" r="4.736" transform="translate(29.787 27.287)" fill="#37774b"/>
      <g id="Grupo_956616" data-name="Grupo 956616" transform="translate(32.944 30.444)">
        <circle id="Elipse_5462" data-name="Elipse 5462" cx="1.579" cy="1.579" r="1.579" transform="translate(0)" fill="#cede51"/>
        <circle id="Elipse_5463" data-name="Elipse 5463" cx="1.579" cy="1.579" r="1.579" transform="translate(5.839 10.021)" fill="#cede51"/>
        <circle id="Elipse_5464" data-name="Elipse 5464" cx="1.579" cy="1.579" r="1.579" transform="translate(9.599 4.95)" fill="#cede51"/>
      </g>
      <path id="Trazado_720923" data-name="Trazado 720923" d="M63.278,34.836l-.007.005c-.066-.1-10.854-14.16-10.854-14.16A8.728,8.728,0,0,1,50.623,15.4V4.6a2.375,2.375,0,0,0,.924-.6A2.349,2.349,0,0,0,52.2,2.255,2.387,2.387,0,0,0,49.789,0H30.89a2.373,2.373,0,0,0-2.257,3.1A2.339,2.339,0,0,0,30.1,4.6V15.4a8.729,8.729,0,0,1-1.794,5.286L17.446,34.836A11.726,11.726,0,0,0,15,42.148a11.94,11.94,0,0,0,11.97,11.736H53.755a11.94,11.94,0,0,0,11.97-11.736A11.724,11.724,0,0,0,63.278,34.836ZM53.755,52.305H26.969A10.357,10.357,0,0,1,16.578,42.134,10.161,10.161,0,0,1,18.7,35.8L29.559,21.643A10.315,10.315,0,0,0,31.68,15.4V3.947a.789.789,0,0,0-.789-.789.774.774,0,0,1-.748-.523.8.8,0,0,1,.112-.735.783.783,0,0,1,.636-.321h18.9a.822.822,0,0,1,.833.75.789.789,0,0,1-.788.828H34.048a.789.789,0,1,0,0,1.579h15V15.4a10.315,10.315,0,0,0,2.12,6.246l1.523,1.985,9.336,12.167a10.163,10.163,0,0,1,2.122,6.339A10.357,10.357,0,0,1,53.755,52.305Z" transform="translate(0)"/>
      <path id="Trazado_720924" data-name="Trazado 720924" d="M80.525,347a5.525,5.525,0,1,0,5.525,5.525A5.532,5.532,0,0,0,80.525,347Zm0,9.472a3.947,3.947,0,1,1,3.947-3.947A3.951,3.951,0,0,1,80.525,356.472Z" transform="translate(-53.687 -310.481)"/>
      <path id="Trazado_720925" data-name="Trazado 720925" d="M107.368,377a2.368,2.368,0,1,0,2.368,2.368A2.371,2.371,0,0,0,107.368,377Zm0,3.157a.789.789,0,1,1,.789-.789A.79.79,0,0,1,107.368,380.157Z" transform="translate(-80.529 -337.324)"/>
      <path id="Trazado_720926" data-name="Trazado 720926" d="M159.066,257.3a5.525,5.525,0,1,0-5.525,5.525A5.532,5.532,0,0,0,159.066,257.3Zm-5.525,3.947a3.947,3.947,0,1,1,3.947-3.947A3.951,3.951,0,0,1,153.541,261.248Z" transform="translate(-119.018 -225.279)"/>
      <path id="Trazado_720927" data-name="Trazado 720927" d="M180.384,281.776a2.368,2.368,0,1,0,2.368,2.368A2.371,2.371,0,0,0,180.384,281.776Zm0,3.157a.789.789,0,1,1,.789-.789A.79.79,0,0,1,180.384,284.933Z" transform="translate(-145.861 -252.121)"/>
      <path id="Trazado_720928" data-name="Trazado 720928" d="M235.868,377a2.368,2.368,0,1,0,2.368,2.368A2.371,2.371,0,0,0,235.868,377Zm0,3.157a.789.789,0,1,1,.789-.789A.79.79,0,0,1,235.868,380.157Z" transform="translate(-195.506 -337.324)"/>
      <path id="Trazado_720929" data-name="Trazado 720929" d="M271.591,328.814a2.368,2.368,0,1,0,2.368,2.368A2.371,2.371,0,0,0,271.591,328.814Zm0,3.157a.789.789,0,1,1,.789-.789A.79.79,0,0,1,271.591,331.971Z" transform="translate(-227.469 -294.209)"/>
      <path id="Trazado_720930" data-name="Trazado 720930" d="M337.525,347a5.525,5.525,0,1,0,5.525,5.525A5.532,5.532,0,0,0,337.525,347Zm0,9.472a3.947,3.947,0,1,1,3.947-3.947A3.951,3.951,0,0,1,337.525,356.472Z" transform="translate(-283.639 -310.481)"/>
      <path id="Trazado_720931" data-name="Trazado 720931" d="M364.368,377a2.368,2.368,0,1,0,2.368,2.368A2.371,2.371,0,0,0,364.368,377Zm0,3.157a.789.789,0,1,1,.789-.789A.79.79,0,0,1,364.368,380.157Z" transform="translate(-310.482 -337.324)"/>
      <path id="Trazado_720932" data-name="Trazado 720932" d="M87.619,235.2,77.558,222.085a.789.789,0,0,0-.626-.309H57.48a.789.789,0,0,0-.626.309L46.793,235.2A8.6,8.6,0,0,0,45,240.48a8.692,8.692,0,0,0,8.682,8.682H80.73a8.692,8.692,0,0,0,8.682-8.682A8.6,8.6,0,0,0,87.619,235.2ZM80.73,247.584H53.682a7.112,7.112,0,0,1-7.1-7.1,7.034,7.034,0,0,1,1.467-4.323l9.824-12.8H76.543l9.824,12.8a7.034,7.034,0,0,1,1.467,4.323A7.112,7.112,0,0,1,80.73,247.584Z" transform="translate(-26.844 -198.436)"/>
    </g>
  </g>
</svg>
