<svg xmlns="http://www.w3.org/2000/svg" width="130" height="130" viewBox="0 0 130 130">
  <g id="Grupo_957767" data-name="Grupo 957767" transform="translate(-4862.92 11365.248)">
    <circle id="Elipse_6672" data-name="Elipse 6672" cx="65" cy="65" r="65" transform="translate(4862.92 -11365.248)" fill="#fce9c7"/>
    <g id="reaccion-quimica_2_" data-name="reaccion-quimica (2)" transform="translate(4898.92 -11328.262)">
      <g id="Grupo_956597" data-name="Grupo 956597" transform="translate(1.894 1.896)">
        <g id="Grupo_956574" data-name="Grupo 956574" transform="translate(0 32.201)">
          <path id="Trazado_720844" data-name="Trazado 720844" d="M18.995,39.789h.894a3.578,3.578,0,1,0,0,7.156v8.945a3.577,3.577,0,0,0,3.578,3.578H6.472a4.47,4.47,0,0,1-.6-8.9,2.324,2.324,0,0,1,.116-.322,5.379,5.379,0,0,1,4.955-3.3,3.559,3.559,0,0,0-1.771-3.086c-.009-.161-.018-.322-.018-.492A5.371,5.371,0,0,1,14.523,38a4.762,4.762,0,0,1,.957.089h.009A4.445,4.445,0,0,0,18.995,39.789Z" transform="translate(-2 -38)" fill="#e6e9ed"/>
        </g>
        <g id="Grupo_956575" data-name="Grupo 956575" transform="translate(12.523 23.256)">
          <path id="Trazado_720845" data-name="Trazado 720845" d="M30.311,32.472v2.683H20.472a.9.9,0,0,0-.894.894v1.789a.9.9,0,0,0,.894.894,4.472,4.472,0,1,1,1.592-8.658,4.809,4.809,0,0,1,.805-.948,4.473,4.473,0,0,1,7.442,3.345Z" transform="translate(-16 -28)" fill="#e6e9ed"/>
        </g>
        <g id="Grupo_956576" data-name="Grupo 956576" transform="translate(17.889 17.889)">
          <path id="Trazado_720846" data-name="Trazado 720846" d="M36.311,22a3.579,3.579,0,0,1,2.075,6.494,4.473,4.473,0,0,0-7.442,3.345A4.473,4.473,0,0,0,23.5,28.494,3.579,3.579,0,0,1,25.578,22v.894H36.311Z" transform="translate(-22 -22)" fill="#e6e9ed"/>
        </g>
        <g id="Grupo_956577" data-name="Grupo 956577" transform="translate(26.834 23.256)">
          <path id="Trazado_720847" data-name="Trazado 720847" d="M41.839,35.156H32V32.472a4.473,4.473,0,0,1,7.442-3.345,4.809,4.809,0,0,1,.805.948,4.487,4.487,0,0,1,6.064,4.186,4.478,4.478,0,0,1-4.472,4.472.9.9,0,0,0,.894-.894V36.05A.9.9,0,0,0,41.839,35.156Z" transform="translate(-32 -28)" fill="#e6e9ed"/>
        </g>
        <g id="Grupo_956578" data-name="Grupo 956578" transform="translate(32.201 32.201)">
          <path id="Trazado_720848" data-name="Trazado 720848" d="M55.594,50.567a4.47,4.47,0,0,1-.6,8.9H38a3.577,3.577,0,0,0,3.578-3.578V46.945a3.578,3.578,0,1,0,0-7.156h.894a4.444,4.444,0,0,0,3.506-1.7h.009A4.762,4.762,0,0,1,46.945,38a5.371,5.371,0,0,1,5.367,5.367c0,.17-.009.331-.018.492a3.559,3.559,0,0,0-1.771,3.086,5.379,5.379,0,0,1,4.955,3.3A2.325,2.325,0,0,1,55.594,50.567Z" transform="translate(-38 -38)" fill="#e6e9ed"/>
        </g>
        <g id="Grupo_956579" data-name="Grupo 956579" transform="translate(14.311 33.99)">
          <path id="Trazado_720849" data-name="Trazado 720849" d="M21.578,43.578v3.578a3.578,3.578,0,0,1,0-7.156Z" transform="translate(-18 -40)" fill="#69d6f4"/>
        </g>
        <g id="Grupo_956580" data-name="Grupo 956580" transform="translate(1.789 37.568)">
          <path id="Trazado_720850" data-name="Trazado 720850" d="M9.385,44.492a3.559,3.559,0,0,1,1.771,3.086,5.379,5.379,0,0,0-4.955,3.3,3.576,3.576,0,1,1,3.184-6.387Z" transform="translate(-4 -44)" fill="#69d6f4"/>
        </g>
        <g id="Grupo_956581" data-name="Grupo 956581" transform="translate(1.789 14.311)">
          <circle id="Elipse_5440" data-name="Elipse 5440" cx="5.367" cy="5.367" r="5.367" transform="translate(0 0)" fill="#69d6f4"/>
        </g>
        <g id="Grupo_956582" data-name="Grupo 956582" transform="translate(39.357 17.889)">
          <circle id="Elipse_5441" data-name="Elipse 5441" cx="1.789" cy="1.789" r="1.789" fill="#69d6f4"/>
        </g>
        <g id="Grupo_956583" data-name="Grupo 956583" transform="translate(46.512 24.151)">
          <circle id="Elipse_5442" data-name="Elipse 5442" cx="3.578" cy="3.578" r="3.578" fill="#69d6f4"/>
        </g>
        <g id="Grupo_956584" data-name="Grupo 956584" transform="translate(44.723 37.568)">
          <path id="Trazado_720851" data-name="Trazado 720851" d="M52,47.578a3.578,3.578,0,1,1,4.955,3.3A5.379,5.379,0,0,0,52,47.578Z" transform="translate(-52 -44)" fill="#69d6f4"/>
        </g>
        <g id="Grupo_956585" data-name="Grupo 956585" transform="translate(35.779 33.99)">
          <path id="Trazado_720852" data-name="Trazado 720852" d="M42,40a3.578,3.578,0,0,1,0,7.156Z" transform="translate(-42 -40)" fill="#69d6f4"/>
        </g>
        <g id="Grupo_956586" data-name="Grupo 956586" transform="translate(10.734 46.512)">
          <circle id="Elipse_5443" data-name="Elipse 5443" cx="1.789" cy="1.789" r="1.789" fill="#69d6f4"/>
        </g>
        <g id="Grupo_956587" data-name="Grupo 956587" transform="translate(39.357 46.512)">
          <circle id="Elipse_5444" data-name="Elipse 5444" cx="1.789" cy="1.789" r="1.789" fill="#69d6f4"/>
        </g>
        <g id="Grupo_956588" data-name="Grupo 956588" transform="translate(16.1 30.412)">
          <path id="Trazado_720853" data-name="Trazado 720853" d="M41.467,36.894v1.789a.9.9,0,0,1-.894.894H20.894A.9.9,0,0,1,20,38.683V36.894A.9.9,0,0,1,20.894,36H40.573A.9.9,0,0,1,41.467,36.894Z" transform="translate(-20 -36)" fill="#aab2bd"/>
        </g>
        <g id="Grupo_956589" data-name="Grupo 956589" transform="translate(17.889 33.99)">
          <path id="Trazado_720854" data-name="Trazado 720854" d="M22,54.311V40H39.889V56.1a3.577,3.577,0,0,1-3.578,3.578H25.578A3.577,3.577,0,0,1,22,56.1Z" transform="translate(-22 -40)" fill="#ffeaa7"/>
        </g>
        <g id="Grupo_956590" data-name="Grupo 956590" transform="translate(26.834 46.512)">
          <circle id="Elipse_5445" data-name="Elipse 5445" cx="1.789" cy="1.789" r="1.789" fill="#4fc1e9"/>
        </g>
        <g id="Grupo_956591" data-name="Grupo 956591" transform="translate(28.623 37.568)">
          <circle id="Elipse_5446" data-name="Elipse 5446" cx="1.789" cy="1.789" r="1.789" fill="#4fc1e9"/>
        </g>
        <g id="Grupo_956592" data-name="Grupo 956592" transform="translate(0 3.578)">
          <path id="Trazado_720855" data-name="Trazado 720855" d="M18.1,6h3.578v7.156H5.578A3.578,3.578,0,0,1,5.578,6H18.1Z" transform="translate(-2 -6)" fill="#ffeaa7"/>
        </g>
        <g id="Grupo_956593" data-name="Grupo 956593" transform="translate(19.678 1.789)">
          <path id="Trazado_720856" data-name="Trazado 720856" d="M27.578,12.945v.894a.9.9,0,0,1-.894.894H24.894A.9.9,0,0,1,24,13.839V4.894A.9.9,0,0,1,24.894,4h1.789a.9.9,0,0,1,.894.894Z" transform="translate(-24 -4)" fill="#fcd770"/>
        </g>
        <g id="Grupo_956594" data-name="Grupo 956594" transform="translate(30.412 3.578)">
          <path id="Trazado_720857" data-name="Trazado 720857" d="M39.578,13.156v.894a.9.9,0,0,1-.894.894H36.894A.9.9,0,0,1,36,14.05V6.894A.9.9,0,0,1,36.894,6h1.789a.9.9,0,0,1,.894.894v6.261Z" transform="translate(-36 -6)" fill="#b4dd7f"/>
        </g>
        <g id="Grupo_956595" data-name="Grupo 956595" transform="translate(33.99)">
          <path id="Trazado_720858" data-name="Trazado 720858" d="M47.156,12.734H40V7.367h7.156l7.308-4.875a2.969,2.969,0,0,1,3.274,0l1.145.769a1.772,1.772,0,0,1,.8,1.485v6.2c-2.084,0-2.084,1.789-4.168,1.789s-2.093-1.789-4.177-1.789S49.24,12.734,47.156,12.734Z" transform="translate(-40 -2)" fill="#e6e9ed"/>
        </g>
        <g id="Grupo_956596" data-name="Grupo 956596" transform="translate(41.146 8.945)">
          <path id="Trazado_720859" data-name="Trazado 720859" d="M60.523,12v4.41a1.772,1.772,0,0,1-.8,1.485l-1.145.769a2.969,2.969,0,0,1-3.274,0L48,13.789c2.084,0,2.084-1.789,4.177-1.789s2.084,1.789,4.177,1.789S58.438,12,60.523,12Z" transform="translate(-48 -12)" fill="#69d6f4"/>
        </g>
      </g>
      <g id="Grupo_956598" data-name="Grupo 956598" transform="translate(1 1.013)">
        <path id="Trazado_720860" data-name="Trazado 720860" d="M58.639,2.409,57.5,1.647a3.911,3.911,0,0,0-4.269,0L46.146,6.368h-5.99a1.791,1.791,0,0,0-1.789-1.789H36.578a1.791,1.791,0,0,0-1.789,1.789V11.9A2.68,2.68,0,0,0,33,14.418V20.68h1.789V14.418a.881.881,0,0,1,.087-.372,1.786,1.786,0,0,0,1.7,1.267h1.789a1.791,1.791,0,0,0,1.789-1.789h5.99l7.081,4.72a3.848,3.848,0,0,0,4.27,0l1.142-.762a2.677,2.677,0,0,0,1.2-2.232V4.642a2.68,2.68,0,0,0-1.2-2.233ZM38.367,13.524H36.578V6.368h1.79Zm1.789-1.789V8.157h1.789V9.946h1.789V8.157h1.789V9.946h1.789v-2.2l6.908-4.6a2.093,2.093,0,0,1,2.285,0l1.142.762a.892.892,0,0,1,.4.743v5.4a4.041,4.041,0,0,0-1.774,1.01,2.007,2.007,0,0,1-3.01,0,3.765,3.765,0,0,0-5.339,0,2.023,2.023,0,0,1-1.505.679Zm17.491,4.259-1.142.762a2.093,2.093,0,0,1-2.285,0l-5.766-3.844a7.4,7.4,0,0,0,.634-.5,2.007,2.007,0,0,1,3.01,0,3.763,3.763,0,0,0,5.337,0,3.972,3.972,0,0,1,.609-.457V15.25A.891.891,0,0,1,57.647,15.994Z" transform="translate(-4.377 -1.013)"/>
        <path id="Trazado_720861" data-name="Trazado 720861" d="M5.472,13.734H20.678a1.791,1.791,0,0,0,1.789,1.789h1.789a1.786,1.786,0,0,0,1.7-1.267.881.881,0,0,1,.087.372v6.261h1.789V14.628a2.68,2.68,0,0,0-1.789-2.519V4.789A1.791,1.791,0,0,0,24.256,3H22.467a1.791,1.791,0,0,0-1.789,1.789H5.472a4.472,4.472,0,0,0,0,8.945ZM22.467,4.789h1.789v8.945H22.467ZM5.472,6.578h.894v3.578H8.156V6.578H9.945V8.367h1.789V6.578h1.789v3.578h1.789V6.578H17.1V8.367h1.789V6.578h1.789v5.367H5.472a2.683,2.683,0,0,1,0-5.367Z" transform="translate(-1 -1.223)"/>
        <path id="Trazado_720862" data-name="Trazado 720862" d="M33.683,53a2.683,2.683,0,1,0,2.683,2.683A2.687,2.687,0,0,0,33.683,53Zm0,3.578a.894.894,0,1,1,.894-.894A.9.9,0,0,1,33.683,56.578Z" transform="translate(-4.166 -6.5)"/>
        <path id="Trazado_720863" data-name="Trazado 720863" d="M35.683,43a2.683,2.683,0,1,0,2.683,2.683A2.687,2.687,0,0,0,35.683,43Zm0,3.578a.894.894,0,1,1,.894-.894A.9.9,0,0,1,35.683,46.578Z" transform="translate(-4.377 -5.444)"/>
        <path id="Trazado_720864" data-name="Trazado 720864" d="M3,23.261A6.261,6.261,0,1,0,9.261,17,6.268,6.268,0,0,0,3,23.261Zm10.734,0a4.472,4.472,0,1,1-4.472-4.472A4.477,4.477,0,0,1,13.734,23.261Z" transform="translate(-1.211 -2.7)"/>
        <path id="Trazado_720865" data-name="Trazado 720865" d="M10,22.789a.9.9,0,0,1,.894.894h1.789A2.687,2.687,0,0,0,10,21Z" transform="translate(-1.95 -3.122)"/>
        <path id="Trazado_720866" data-name="Trazado 720866" d="M15.683,53a2.683,2.683,0,1,0,2.683,2.683A2.687,2.687,0,0,0,15.683,53Zm0,3.578a.894.894,0,1,1,.894-.894A.9.9,0,0,1,15.683,56.578Z" transform="translate(-2.266 -6.5)"/>
        <path id="Trazado_720867" data-name="Trazado 720867" d="M53.317,48.129a4.459,4.459,0,0,0-4.072-7.556,6.268,6.268,0,0,0-5.635-5.445,5.351,5.351,0,0,0-5.043-7.184,5.415,5.415,0,0,0-.972.088,4.461,4.461,0,0,0-2.606-7.153V19H33.2v5.367H34.99V22.742a2.671,2.671,0,0,1,1.127,4.281,5.35,5.35,0,0,0-7.388,1.538,5.35,5.35,0,0,0-7.388-1.538,2.671,2.671,0,0,1,1.127-4.281v1.624h1.789V19H22.467v1.879a4.461,4.461,0,0,0-2.606,7.153,5.373,5.373,0,0,0-6.339,5.279,5.329,5.329,0,0,0,.324,1.818,6.266,6.266,0,0,0-5.635,5.445A4.462,4.462,0,0,0,4.14,48.129,5.353,5.353,0,0,0,6.367,58.357H51.09a5.353,5.353,0,0,0,2.227-10.227Zm-.438-3.19a2.676,2.676,0,0,1-.957,2.055,6.265,6.265,0,0,0-4.274-2.857,2.676,2.676,0,0,1,5.231.8ZM33.2,27.945a3.581,3.581,0,0,1,3.578,3.578h1.789a5.317,5.317,0,0,0-.3-1.761c.1-.009.2-.028.3-.028a3.566,3.566,0,0,1,1.789,6.658V35.1a1.791,1.791,0,0,0-1.789-1.789H29.623V31.523A3.581,3.581,0,0,1,33.2,27.945Zm-14.311,10.9V43.88a2.667,2.667,0,0,1,0-5.037Zm0-1.954V35.1H38.568v1.789H18.889Zm19.678,1.954a2.668,2.668,0,0,1,0,5.038ZM18.889,29.734c.1,0,.2.019.3.028a5.317,5.317,0,0,0-.3,1.761h1.789a3.578,3.578,0,0,1,7.156,0v1.789H18.889A1.791,1.791,0,0,0,17.1,35.1v1.292a3.566,3.566,0,0,1,1.789-6.658ZM7.261,42.256A2.665,2.665,0,0,1,9.8,44.139,6.265,6.265,0,0,0,5.535,47a2.684,2.684,0,0,1,1.726-4.739ZM2.789,52.99a3.585,3.585,0,0,1,1.81-3.1c-.01.14-.021.278-.021.42a6.328,6.328,0,0,0,.087,1.043l1.765-.3a4.4,4.4,0,0,1-.063-.746,4.474,4.474,0,0,1,6.708-3.875l.9-1.547a6.245,6.245,0,0,0-2.322-.785,4.461,4.461,0,0,0-1.7-2.713c0-.008,0-.016,0-.024a4.354,4.354,0,0,1,5-4.426,5.4,5.4,0,0,0,1.7,1.245,4.467,4.467,0,0,0,2.242,7.563v8.141a4.426,4.426,0,0,0,.918,2.683H6.367A3.581,3.581,0,0,1,2.789,52.99Zm20.573,3.578a2.687,2.687,0,0,1-2.683-2.683V52.99h3.578V51.2H20.678V49.412h5.367V47.623H20.678V45.834h3.578V44.045H20.678V42.256h5.367V40.467H20.678V38.678h16.1V53.884A2.687,2.687,0,0,1,34.1,56.568Zm27.729,0H37.65a4.426,4.426,0,0,0,.918-2.683V45.744a4.467,4.467,0,0,0,2.242-7.563,5.37,5.37,0,0,0,1.7-1.245,4.354,4.354,0,0,1,5,4.426c0,.008,0,.016,0,.024a4.465,4.465,0,0,0-1.7,2.713,6.245,6.245,0,0,0-2.322.785l.9,1.547a4.476,4.476,0,0,1,6.646,4.621l1.765.3a6.427,6.427,0,0,0,.086-1.043c0-.142-.012-.281-.021-.42a3.573,3.573,0,0,1-1.767,6.682Z" transform="translate(-1 -2.911)"/>
        <path id="Trazado_720868" data-name="Trazado 720868" d="M47.683,53a2.683,2.683,0,1,0,2.683,2.683A2.687,2.687,0,0,0,47.683,53Zm0,3.578a.894.894,0,1,1,.894-.894A.9.9,0,0,1,47.683,56.578Z" transform="translate(-5.643 -6.5)"/>
        <path id="Trazado_720869" data-name="Trazado 720869" d="M57.472,28a4.472,4.472,0,1,0,4.472,4.472A4.477,4.477,0,0,0,57.472,28Zm0,7.156a2.683,2.683,0,1,1,2.683-2.683A2.687,2.687,0,0,1,57.472,35.156Z" transform="translate(-6.488 -3.861)"/>
        <path id="Trazado_720870" data-name="Trazado 720870" d="M50.367,23.683a2.683,2.683,0,1,0-2.683,2.683A2.687,2.687,0,0,0,50.367,23.683Zm-3.578,0a.894.894,0,1,1,.894.894A.9.9,0,0,1,46.789,23.683Z" transform="translate(-5.643 -3.122)"/>
      </g>
    </g>
  </g>
</svg>
