<svg xmlns="http://www.w3.org/2000/svg" width="130" height="130" viewBox="0 0 130 130">
  <g id="Grupo_957781" data-name="Grupo 957781" transform="translate(-11225 12338)">
    <circle id="Elipse_6672" data-name="Elipse 6672" cx="65" cy="65" r="65" transform="translate(11225 -12338)" fill="#fce9c7"/>
    <g id="sulfito" transform="translate(11209.37 -12297)">
      <g id="Grupo_956544" data-name="Grupo 956544" transform="translate(63.321 5.161)">
        <path id="Trazado_720803" data-name="Trazado 720803" d="M93.781,68.114V55.988H80.745V68.114a.935.935,0,0,1-.553.851,17.136,17.136,0,0,0-6.331,26.283,5.563,5.563,0,0,0,4.352,2.083h18.1a5.563,5.563,0,0,0,4.352-2.083,17.136,17.136,0,0,0-6.331-26.282A.936.936,0,0,1,93.781,68.114Z" transform="translate(-70.13 -55.988)" fill="#e4f6ff"/>
      </g>
      <g id="Grupo_956545" data-name="Grupo 956545" transform="translate(74.599 23.987)">
        <path id="Trazado_720804" data-name="Trazado 720804" d="M212.412,260.233c.054.608.083,1.223.083,1.845a20.682,20.682,0,0,1-20.021,20.671h14.905a5.563,5.563,0,0,0,4.352-2.083,17.133,17.133,0,0,0,.68-20.433Z" transform="translate(-192.474 -260.233)" fill="#d3effb"/>
      </g>
      <g id="Grupo_956546" data-name="Grupo 956546" transform="translate(73.936 5.161)">
        <path id="Trazado_720805" data-name="Trazado 720805" d="M185.289,55.988h13.036v2.793H185.289Z" transform="translate(-185.289 -55.988)" fill="#d3effb"/>
      </g>
      <g id="Grupo_956547" data-name="Grupo 956547" transform="translate(66.301 29.413)">
        <path id="Trazado_720806" data-name="Trazado 720806" d="M103.832,319.1a.933.933,0,0,0-.9.694A14.142,14.142,0,0,0,105.1,331.66a3.713,3.713,0,0,0,3.023,1.548H125.1a3.713,3.713,0,0,0,3.023-1.548,14.153,14.153,0,0,0,2.166-11.868.933.933,0,0,0-.9-.694H103.832Z" transform="translate(-102.455 -319.098)" fill="#75cef9"/>
      </g>
      <g id="Grupo_956548" data-name="Grupo 956548" transform="translate(84.656 30.197)">
        <path id="Trazado_720807" data-name="Trazado 720807" d="M301.583,340.924h4.287a3.713,3.713,0,0,0,3.023-1.548,14.154,14.154,0,0,0,2.19-11.779A20.709,20.709,0,0,1,301.583,340.924Z" transform="translate(-301.583 -327.597)" fill="#6bbef6"/>
      </g>
      <g id="Grupo_956549" data-name="Grupo 956549" transform="translate(71.515 0.691)">
        <path id="Trazado_720808" data-name="Trazado 720808" d="M175.971,7.5H159.955a.931.931,0,0,0-.931.931v2.607a.931.931,0,0,0,.931.931h16.016a.931.931,0,0,0,.931-.931V8.431A.931.931,0,0,0,175.971,7.5Z" transform="translate(-159.024 -7.5)" fill="#e4f6ff"/>
      </g>
      <g id="Grupo_956550" data-name="Grupo 956550" transform="translate(85.469 0.691)">
        <path id="Trazado_720809" data-name="Trazado 720809" d="M313.4,7.5H310.4a.931.931,0,0,1,.931.931v2.607a.931.931,0,0,1-.931.931H313.4a.931.931,0,0,0,.931-.931V8.431A.931.931,0,0,0,313.4,7.5Z" transform="translate(-310.405 -7.5)" fill="#d3effb"/>
      </g>
      <g id="Grupo_956552" data-name="Grupo 956552" transform="translate(74.857 25.574)">
        <g id="Grupo_956551" data-name="Grupo 956551" transform="translate(0)">
          <circle id="Elipse_5423" data-name="Elipse 5423" cx="1.862" cy="1.862" r="1.862" fill="#6bbef6"/>
        </g>
      </g>
      <g id="Grupo_956554" data-name="Grupo 956554" transform="translate(78.592 10.391)">
        <g id="Grupo_956553" data-name="Grupo 956553">
          <circle id="Elipse_5424" data-name="Elipse 5424" cx="1.862" cy="1.862" r="1.862" fill="#6bbef6"/>
        </g>
      </g>
      <g id="Grupo_956556" data-name="Grupo 956556" transform="translate(81.386 19.902)">
        <g id="Grupo_956555" data-name="Grupo 956555">
          <circle id="Elipse_5425" data-name="Elipse 5425" cx="1.862" cy="1.862" r="1.862" fill="#6bbef6"/>
        </g>
      </g>
      <g id="Grupo_956557" data-name="Grupo 956557" transform="translate(62.63 0)">
        <path id="Trazado_720810" data-name="Trazado 720810" d="M149.631,356.108a1.952,1.952,0,0,1-1.435-.6.691.691,0,1,0-1.025.928,3.355,3.355,0,0,0,2.459,1.055,2.3,2.3,0,0,0,2.344-1.781,2.1,2.1,0,0,0-1.62-2.309c-.687-.253-1.327-.53-1.522-.615a.394.394,0,0,1-.14-.371.567.567,0,0,1,.449-.453,1.868,1.868,0,0,1,1.544.357.691.691,0,0,0,.886-1.061,3.249,3.249,0,0,0-2.829-.619,1.958,1.958,0,0,0-1.419,1.581,1.769,1.769,0,0,0,.789,1.751.685.685,0,0,0,.1.052c.032.014.8.357,1.668.676.247.091.812.348.737.768a.95.95,0,0,1-.983.641Z" transform="translate(-139.217 -318.211)"/>
        <path id="Trazado_720811" data-name="Trazado 720811" d="M218.2,354a3.485,3.485,0,1,0,3.485-3.485A3.489,3.489,0,0,0,218.2,354Zm5.587,0a2.1,2.1,0,1,1-2.1-2.1A2.1,2.1,0,0,1,223.791,354Z" transform="translate(-203.864 -318.209)"/>
        <path id="Trazado_720812" data-name="Trazado 720812" d="M313.234,352.982a.646.646,0,0,0,.012-.069l.027-.212a.7.7,0,0,0,.006-.087,2.094,2.094,0,0,0-4.148-.405.691.691,0,0,0,1.357.266.711.711,0,0,1,1.407.1l-.016.123a3.029,3.029,0,0,1-.468.919c-.867,1.239-1.385,1.917-1.663,2.281-.347.455-.522.683-.405,1.062a.715.715,0,0,0,.465.471,4.506,4.506,0,0,0,1.251.058c.419,0,.989,0,1.769-.014a.691.691,0,0,0-.008-1.383h-.009c-.5.006-1.03.011-1.486.012.3-.4.7-.947,1.219-1.695A4.235,4.235,0,0,0,313.234,352.982Z" transform="translate(-286.397 -318.21)"/>
        <path id="Trazado_720813" data-name="Trazado 720813" d="M115.837,273.788H108.27a2.554,2.554,0,1,0-4.41,0H97.024A1.627,1.627,0,0,0,95.454,275a14.834,14.834,0,0,0,2.27,12.448,4.411,4.411,0,0,0,3.586,1.837h16.978a4.411,4.411,0,0,0,3.586-1.837A14.844,14.844,0,0,0,124.146,275a1.627,1.627,0,0,0-1.569-1.208h-3.509a.691.691,0,0,0,0,1.383h3.509a.242.242,0,0,1,.233.181,13.462,13.462,0,0,1-2.061,11.288,3.025,3.025,0,0,1-2.46,1.258H101.31a3.026,3.026,0,0,1-2.46-1.258,13.451,13.451,0,0,1-2.06-11.288.242.242,0,0,1,.233-.181h18.814a.691.691,0,1,0,0-1.383Zm-9.772-2.457a1.171,1.171,0,1,1-1.171,1.171A1.172,1.172,0,0,1,106.065,271.332Z" transform="translate(-91.975 -245.066)"/>
        <path id="Trazado_720814" data-name="Trazado 720814" d="M87.811,136.023a.246.246,0,0,1-.147-.221V131.24a.691.691,0,1,0-1.383,0V135.8a1.631,1.631,0,0,0,.959,1.48A16.484,16.484,0,0,1,96.9,152.262a16.263,16.263,0,0,1-3.58,10.242,4.845,4.845,0,0,1-3.812,1.823H71.4a4.845,4.845,0,0,1-3.812-1.823,16.441,16.441,0,0,1,.032-20.525.691.691,0,0,0-1.078-.865,17.869,17.869,0,0,0-3.916,11.148,17.632,17.632,0,0,0,3.882,11.1A6.221,6.221,0,0,0,71.4,165.71H89.5a6.221,6.221,0,0,0,4.893-2.343,17.632,17.632,0,0,0,3.882-11.1,17.869,17.869,0,0,0-10.468-16.238Z" transform="translate(-62.63 -118.515)"/>
        <path id="Trazado_720815" data-name="Trazado 720815" d="M128.515,21.408a.689.689,0,0,0,.449-.166,16.454,16.454,0,0,1,3.889-2.475,1.631,1.631,0,0,0,.959-1.48V5.852h11.653V9.494a.691.691,0,0,0,1.383,0V5.852h.8a1.624,1.624,0,0,0,1.622-1.623V1.622A1.624,1.624,0,0,0,147.645,0H131.63a1.624,1.624,0,0,0-1.622,1.622V4.23a1.624,1.624,0,0,0,1.622,1.623h.8V17.287a.246.246,0,0,1-.147.221,17.833,17.833,0,0,0-4.216,2.683.691.691,0,0,0,.449,1.217ZM131.39,4.23V1.622a.24.24,0,0,1,.24-.24h16.016a.24.24,0,0,1,.24.24V4.23a.24.24,0,0,1-.24.24H131.63A.24.24,0,0,1,131.39,4.23Z" transform="translate(-121.814 0)"/>
        <path id="Trazado_720816" data-name="Trazado 720816" d="M230.851,110.333a2.554,2.554,0,1,0-2.554-2.554A2.557,2.557,0,0,0,230.851,110.333Zm0-3.725a1.171,1.171,0,1,1-1.171,1.171A1.172,1.172,0,0,1,230.851,106.609Z" transform="translate(-213.026 -95.527)"/>
        <path id="Trazado_720817" data-name="Trazado 720817" d="M261.164,208.412a2.554,2.554,0,1,0,2.554,2.554A2.557,2.557,0,0,0,261.164,208.412Zm0,3.725a1.171,1.171,0,1,1,1.171-1.171A1.172,1.172,0,0,1,261.164,212.137Z" transform="translate(-240.545 -189.201)"/>
      </g>
    </g>
  </g>
</svg>
