<svg xmlns="http://www.w3.org/2000/svg" width="58.348" height="62" viewBox="0 0 58.348 62">
  <g id="obediente" transform="translate(-15.078)">
    <g id="Grupo_956634" data-name="Grupo 956634" transform="translate(27.337 0.908)">
      <path id="Trazado_720990" data-name="Trazado 720990" d="M155.483,7.5H116.92a.606.606,0,0,0-.605.605V24.892h3.971a2.967,2.967,0,0,1,.207,5.928V34.5h0a1.21,1.21,0,0,1,1.027,1.2v7.517a1.21,1.21,0,0,1-1.027,1.2h0V48.09a2.967,2.967,0,0,1-.207,5.928h-3.971v4.969h8.357a1.211,1.211,0,0,1,1.211,1.211v2.409s0,0,0,0h.923a1.211,1.211,0,0,1,1.211,1.211v3.862h28.072V8.105A.606.606,0,0,0,155.483,7.5Z" transform="translate(-116.315 -7.5)" fill="#fff3de"/>
    </g>
    <g id="Grupo_956635" data-name="Grupo 956635" transform="translate(27.337 0.908)">
      <path id="Trazado_720991" data-name="Trazado 720991" d="M120.286,24.892l.108,0V8.105A.606.606,0,0,1,121,7.5H116.92a.606.606,0,0,0-.605.605V24.892Z" transform="translate(-116.315 -7.5)" fill="#ffe5c2"/>
      <path id="Trazado_720992" data-name="Trazado 720992" d="M120.286,391.63h-3.971V396.6h4.079v-4.972Z" transform="translate(-116.315 -345.112)" fill="#ffe5c2"/>
    </g>
    <g id="Grupo_956653" data-name="Grupo 956653" transform="translate(15.986 18.301)">
      <g id="Grupo_956636" data-name="Grupo 956636" transform="translate(16.556 12.492)">
        <path id="Trazado_720993" data-name="Trazado 720993" d="M159.3,254.29H164.9v4.141H159.3Z" transform="translate(-159.296 -254.29)" fill="#883f2e"/>
        <path id="Trazado_720994" data-name="Trazado 720994" d="M237.5,254.29h8.006v4.141H237.5Z" transform="translate(-228.032 -254.29)" fill="#883f2e"/>
      </g>
      <g id="Grupo_956637" data-name="Grupo 956637" transform="translate(16.556 14.637)">
        <path id="Trazado_720995" data-name="Trazado 720995" d="M159.3,272H164.9v2H159.3Z" transform="translate(-159.296 -272)" fill="#6d3326"/>
        <path id="Trazado_720996" data-name="Trazado 720996" d="M237.5,272h8.006v2H237.5Z" transform="translate(-228.032 -272)" fill="#6d3326"/>
      </g>
      <g id="Grupo_956638" data-name="Grupo 956638" transform="translate(34.032 11.526)">
        <path id="Trazado_720997" data-name="Trazado 720997" d="M326.116,249.347a3.037,3.037,0,0,1-3.037,3.037H304.306a.69.69,0,0,1-.69-.69V247a.69.69,0,0,1,.69-.69h18.773A3.037,3.037,0,0,1,326.116,249.347Z" transform="translate(-303.616 -246.31)" fill="#ca6e59"/>
      </g>
      <g id="Grupo_956639" data-name="Grupo 956639" transform="translate(34.032 11.526)">
        <path id="Trazado_720998" data-name="Trazado 720998" d="M307.743,249.784a.69.69,0,0,1-.69-.69V246.31h-2.747a.69.69,0,0,0-.69.69v4.693a.69.69,0,0,0,.69.69h18.773a3.037,3.037,0,0,0,3-2.6Z" transform="translate(-303.616 -246.31)" fill="#bb5d4c"/>
      </g>
      <g id="Grupo_956640" data-name="Grupo 956640" transform="translate(22.161 11.526)">
        <path id="Trazado_720999" data-name="Trazado 720999" d="M209.45,246.916v4.863a.606.606,0,0,1-.605.605H206.19a.606.606,0,0,1-.605-.605v-4.863a.606.606,0,0,1,.605-.605h2.654A.605.605,0,0,1,209.45,246.916Z" transform="translate(-205.585 -246.311)" fill="#ca6e59"/>
      </g>
      <g id="Grupo_956641" data-name="Grupo 956641" transform="translate(22.161 11.526)">
        <path id="Trazado_721000" data-name="Trazado 721000" d="M207.341,251.779v-4.863a.606.606,0,0,1,.605-.605H206.19a.606.606,0,0,0-.605.605v4.863a.606.606,0,0,0,.605.605h1.756A.605.605,0,0,1,207.341,251.779Z" transform="translate(-205.585 -246.311)" fill="#bb5d4c"/>
      </g>
      <g id="Grupo_956642" data-name="Grupo 956642" transform="translate(7.523 5.928)">
        <path id="Trazado_721001" data-name="Trazado 721001" d="M92.525,312.313H84.887a1.215,1.215,0,0,1-.184-.016v3.681c.069,0,.137-.008.207-.008H92.5c.07,0,.139,0,.207.008V312.3A1.2,1.2,0,0,1,92.525,312.313Z" transform="translate(-84.703 -298.708)" fill="#883f2e"/>
        <path id="Trazado_721002" data-name="Trazado 721002" d="M84.887,312.313a1.215,1.215,0,0,1-.184-.016v3.681c.069,0,.137-.008.207-.008h2.842v-3.658H84.887Z" transform="translate(-84.703 -298.708)" fill="#6d3326"/>
        <path id="Trazado_721003" data-name="Trazado 721003" d="M84.887,203.745h7.637a1.217,1.217,0,0,1,.184.016v-3.681c-.069,0-.137.008-.207.008H84.91c-.07,0-.139,0-.207-.008v3.681A1.217,1.217,0,0,1,84.887,203.745Z" transform="translate(-84.703 -200.079)" fill="#883f2e"/>
        <path id="Trazado_721004" data-name="Trazado 721004" d="M84.887,203.744h2.865v-3.658H84.91c-.07,0-.139,0-.207-.008v3.681A1.233,1.233,0,0,1,84.887,203.744Z" transform="translate(-84.703 -200.078)" fill="#6d3326"/>
      </g>
      <g id="Grupo_956643" data-name="Grupo 956643" transform="translate(6.496 9.594)">
        <path id="Trazado_721005" data-name="Trazado 721005" d="M86.284,231.563v7.517a1.211,1.211,0,0,1-1.211,1.211H77.436a1.211,1.211,0,0,1-1.211-1.211v-7.517a1.211,1.211,0,0,1,1.211-1.211h7.637A1.211,1.211,0,0,1,86.284,231.563Z" transform="translate(-76.225 -230.352)" fill="#ca6e59"/>
      </g>
      <g id="Grupo_956644" data-name="Grupo 956644" transform="translate(6.496 9.594)">
        <path id="Trazado_721006" data-name="Trazado 721006" d="M80.315,239.08v-7.517a1.211,1.211,0,0,1,1.211-1.211h-4.09a1.211,1.211,0,0,0-1.211,1.211v7.517a1.211,1.211,0,0,0,1.211,1.211h4.09A1.211,1.211,0,0,1,80.315,239.08Z" transform="translate(-76.225 -230.352)" fill="#bb5d4c"/>
      </g>
      <g id="Grupo_956647" data-name="Grupo 956647" transform="translate(0 34.095)">
        <path id="Trazado_721007" data-name="Trazado 721007" d="M58.974,436.43a1.238,1.238,0,0,0,.006-.124V433.9a1.211,1.211,0,0,0-1.211-1.211H41.406a1.211,1.211,0,0,0-1.211,1.211v2.409a1.239,1.239,0,0,0,.006.124Z" transform="translate(-38.062 -432.685)" fill="#ca6e59"/>
        <path id="Trazado_721008" data-name="Trazado 721008" d="M44.295,436.43a1.239,1.239,0,0,1-.006-.124V433.9a1.211,1.211,0,0,1,1.211-1.211H41.406a1.211,1.211,0,0,0-1.211,1.211v2.409a1.239,1.239,0,0,0,.006.124Z" transform="translate(-38.062 -432.685)" fill="#bb5d4c"/>
        <g id="Grupo_956645" data-name="Grupo 956645" transform="translate(0 3.623)">
          <path id="Trazado_721009" data-name="Trazado 721009" d="M45.63,467.681H23.183a.606.606,0,0,1-.605-.605v-3.256a1.211,1.211,0,0,1,1.211-1.211h20.63a1.211,1.211,0,0,1,1.211,1.211Z" transform="translate(-22.578 -462.608)" fill="#883f2e"/>
        </g>
        <g id="Grupo_956646" data-name="Grupo 956646" transform="translate(0 3.623)">
          <path id="Trazado_721010" data-name="Trazado 721010" d="M26.625,467.075v-3.256a1.211,1.211,0,0,1,1.211-1.211H23.789a1.211,1.211,0,0,0-1.211,1.211v3.256a.606.606,0,0,0,.605.605h4.047A.606.606,0,0,1,26.625,467.075Z" transform="translate(-22.578 -462.608)" fill="#6d3326"/>
        </g>
      </g>
      <g id="Grupo_956652" data-name="Grupo 956652" transform="translate(4.762)">
        <g id="Grupo_956648" data-name="Grupo 956648" transform="translate(0 23.19)">
          <path id="Trazado_721011" data-name="Trazado 721011" d="M75.433,345.6a2.968,2.968,0,0,1-2.968,2.968H64.873a2.968,2.968,0,0,1,0-5.936h7.592A2.968,2.968,0,0,1,75.433,345.6Z" transform="translate(-61.905 -342.633)" fill="#ca6e59"/>
        </g>
        <g id="Grupo_956649" data-name="Grupo 956649" transform="translate(0 23.19)">
          <path id="Trazado_721012" data-name="Trazado 721012" d="M65.948,345.6a2.968,2.968,0,0,1,2.968-2.968H64.873a2.968,2.968,0,0,0,0,5.936h4.043A2.968,2.968,0,0,1,65.948,345.6Z" transform="translate(-61.905 -342.633)" fill="#bb5d4c"/>
        </g>
        <g id="Grupo_956650" data-name="Grupo 956650" transform="translate(0)">
          <path id="Trazado_721013" data-name="Trazado 721013" d="M75.433,154.1a2.968,2.968,0,0,1-2.968,2.968H64.873a2.968,2.968,0,0,1,0-5.936h7.592A2.968,2.968,0,0,1,75.433,154.1Z" transform="translate(-61.905 -151.128)" fill="#ca6e59"/>
        </g>
        <g id="Grupo_956651" data-name="Grupo 956651">
          <path id="Trazado_721014" data-name="Trazado 721014" d="M65.948,154.1a2.968,2.968,0,0,1,2.968-2.968H64.873a2.968,2.968,0,0,0,0,5.936h4.043A2.968,2.968,0,0,1,65.948,154.1Z" transform="translate(-61.905 -151.128)" fill="#bb5d4c"/>
        </g>
      </g>
    </g>
    <g id="Grupo_956656" data-name="Grupo 956656" transform="translate(38.727 6.552)">
      <g id="Grupo_956654" data-name="Grupo 956654" transform="translate(0)">
        <circle id="Elipse_5479" data-name="Elipse 5479" cx="8.497" cy="8.497" r="8.497" fill="#4fc123"/>
      </g>
      <g id="Grupo_956655" data-name="Grupo 956655" transform="translate(0)">
        <path id="Trazado_721015" data-name="Trazado 721015" d="M214.444,62.6a8.5,8.5,0,0,1,6.461-8.25,8.5,8.5,0,1,0,0,16.5A8.5,8.5,0,0,1,214.444,62.6Z" transform="translate(-210.372 -54.107)" fill="#47a920"/>
      </g>
    </g>
    <g id="Grupo_956657" data-name="Grupo 956657" transform="translate(15.078 0)">
      <path id="Trazado_721016" data-name="Trazado 721016" d="M69.481,28.919H68.019V13.2a.908.908,0,0,0-.936-.908.933.933,0,0,0-.88.946V28.918H60.115a.908.908,0,0,0,0,1.816h9.366a2.129,2.129,0,1,1,0,4.257H50.926V30.735h4.951a.908.908,0,0,0,0-1.816H50.708a1.6,1.6,0,0,0-1.467.966H42.816a1.515,1.515,0,0,0-1.41-.966H38.753a1.515,1.515,0,0,0-1.41.966H33.45v-.78a2.118,2.118,0,0,0-1.027-1.812V24.98a3.876,3.876,0,0,0-1.115-7.588H28.245V1.816H66.2V8.961a.908.908,0,0,0,.936.908.933.933,0,0,0,.88-.946V1.514A1.514,1.514,0,0,0,66.505,0H27.943a1.514,1.514,0,0,0-1.514,1.514V17.392H23.716A3.876,3.876,0,0,0,22.6,24.98v2.313a2.118,2.118,0,0,0-1.027,1.812v7.517A2.118,2.118,0,0,0,22.6,38.434v2.313a3.876,3.876,0,0,0,1.115,7.588h2.713v3.153h-7.1a2.122,2.122,0,0,0-2.119,2.119v1.5H17.2a2.122,2.122,0,0,0-2.119,2.119v3.256A1.515,1.515,0,0,0,16.592,62H66.505a1.514,1.514,0,0,0,1.514-1.514V36.809h1.462a3.945,3.945,0,0,0,0-7.89ZM42.92,31.7h6.19v2.325H42.92Zm-3.865-.966H41.1v4.257H39.055ZM33.45,31.7h3.789v2.325H33.45ZM21.657,21.268a2.062,2.062,0,0,1,2.06-2.06h7.592a2.06,2.06,0,1,1,0,4.119H23.716a2.062,2.062,0,0,1-2.06-2.06Zm2.037,15.656a.3.3,0,0,1-.3-.3V29.105a.3.3,0,0,1,.3-.3h7.638a.3.3,0,0,1,.3.3v7.517a.3.3,0,0,1-.3.3Zm6.913,1.816v1.842h-6.19V38.741Zm-6.19-11.755V25.144h6.19v1.842Zm-.7,19.532a2.06,2.06,0,1,1,0-4.119h7.592a2.06,2.06,0,1,1,0,4.119ZM38.13,60.184H16.894V57.23a.3.3,0,0,1,.3-.3h5.621a.908.908,0,0,0,0-1.816H19.028v-1.5a.3.3,0,0,1,.3-.3H35.694a.3.3,0,0,1,.3.3v1.5h-8.94a.908.908,0,1,0,0,1.816h10.77a.3.3,0,0,1,.3.3Zm28.073,0H39.946V57.23a2.122,2.122,0,0,0-2.119-2.119h-.014v-1.5a2.122,2.122,0,0,0-2.119-2.119H28.245V48.334h3.063a3.876,3.876,0,0,0,1.115-7.588V38.434a2.118,2.118,0,0,0,1.027-1.812v-.78h3.893a1.515,1.515,0,0,0,1.41.966h2.654a1.515,1.515,0,0,0,1.41-.966h6.425a1.6,1.6,0,0,0,1.467.966H66.2V60.184Z" transform="translate(-15.078 0)"/>
      <path id="Trazado_721017" data-name="Trazado 721017" d="M202.872,56.012a9.405,9.405,0,1,0,9.405-9.405A9.416,9.416,0,0,0,202.872,56.012Zm16.994,0a7.589,7.589,0,1,1-7.589-7.589A7.6,7.6,0,0,1,219.866,56.012Z" transform="translate(-180.131 -40.963)"/>
      <path id="Trazado_721018" data-name="Trazado 721018" d="M247.894,102.962a.908.908,0,0,0-1.284,1.284l2.794,2.794a.908.908,0,0,0,1.285,0l4.33-4.33a.908.908,0,0,0-1.284-1.284l-3.688,3.688Z" transform="translate(-218.338 -88.91)"/>
      <path id="Trazado_721019" data-name="Trazado 721019" d="M243.681,327.977a.908.908,0,0,0,.908.908h16.7a.908.908,0,0,0,0-1.816h-16.7A.908.908,0,0,0,243.681,327.977Z" transform="translate(-215.999 -287.463)"/>
      <path id="Trazado_721020" data-name="Trazado 721020" d="M320.019,363.546h-8.611a.908.908,0,0,0,0,1.816h8.611a.908.908,0,0,0,0-1.816Z" transform="translate(-274.726 -319.523)"/>
      <path id="Trazado_721021" data-name="Trazado 721021" d="M244.589,365.362h4.943a.908.908,0,1,0,0-1.816h-4.943a.908.908,0,1,0,0,1.816Z" transform="translate(-215.999 -319.523)"/>
      <path id="Trazado_721022" data-name="Trazado 721022" d="M261.291,400.023h-16.7a.908.908,0,0,0,0,1.816h16.7a.908.908,0,0,0,0-1.816Z" transform="translate(-215.998 -351.583)"/>
      <path id="Trazado_721023" data-name="Trazado 721023" d="M350.781,436.5h-4.373a.908.908,0,0,0,0,1.816h4.373a.908.908,0,0,0,0-1.816Z" transform="translate(-305.488 -383.643)"/>
      <path id="Trazado_721024" data-name="Trazado 721024" d="M254.134,436.5h-9.544a.908.908,0,1,0,0,1.816h9.544a.908.908,0,0,0,0-1.816Z" transform="translate(-215.999 -383.643)"/>
    </g>
  </g>
</svg>
