<svg xmlns="http://www.w3.org/2000/svg" width="110" height="110" viewBox="0 0 110 110">
  <g id="Grupo_957564" data-name="Grupo 957564" transform="translate(-180 -2174)">
    <rect id="Rectángulo_339870" data-name="Rectángulo 339870" width="110" height="110" transform="translate(180 2174)" fill="#badc61"/>
    <g id="certificado" transform="translate(193.635 2192)">
      <g id="Grupo_950856" data-name="Grupo 950856" transform="translate(5.462 1.098)">
        <path id="Trazado_704895" data-name="Trazado 704895" d="M64.551,15.62V52.092S29.6,78.562,27.9,80.263H21.256a9.386,9.386,0,0,1-9.4-9.4V15.62A8.12,8.12,0,0,1,19.98,7.5H56.431a8.12,8.12,0,0,1,8.12,8.12Z" transform="translate(-11.86 -7.5)" fill="#f9f6f9"/>
        <path id="Trazado_704896" data-name="Trazado 704896" d="M101.614,275.3v5.385s-34.95,26.47-36.651,28.171H58.319a9.4,9.4,0,0,1-3.039-.5V283.576a8.276,8.276,0,0,1,8.276-8.276Z" transform="translate(-48.923 -236.093)" fill="#dfeaef"/>
        <path id="Trazado_704897" data-name="Trazado 704897" d="M108.81,118.166v23.96a1.247,1.247,0,0,1-2.129.882l-1.959-1.959a1.247,1.247,0,0,0-1.764,0L101,143.008a1.247,1.247,0,0,1-2.129-.882v-23.96" transform="translate(-86.131 -101.964)" fill="#da4a54"/>
        <path id="Trazado_704898" data-name="Trazado 704898" d="M138.129,320.2v10.655a9.388,9.388,0,0,1-9.4,9.4H76.04a9.394,9.394,0,0,0,9.4-9.4V320.2a8.12,8.12,0,0,1,8.12-8.12h36.452A8.12,8.12,0,0,1,138.129,320.2Z" transform="translate(-66.644 -267.488)" fill="#f9f6f9"/>
        <path id="Trazado_704899" data-name="Trazado 704899" d="M137.722,459.05a9.4,9.4,0,0,1-8.989,6.654H76.04a9.4,9.4,0,0,0,8.989-6.654Z" transform="translate(-66.644 -392.941)" fill="#dfeaef"/>
        <path id="Trazado_704900" data-name="Trazado 704900" d="M53.49,88.086c2.235,0,5,1.9,6.8.852,1.862-1.077,1.588-4.456,2.665-6.318C64,80.815,67.1,79.389,67.1,77.154S64,73.493,62.96,71.688c-1.077-1.862-.8-5.241-2.665-6.318-1.8-1.044-4.57.852-6.8.852s-5-1.9-6.8-.852c-1.862,1.077-1.588,4.456-2.665,6.318-1.044,1.8-4.136,3.231-4.136,5.466s3.091,3.661,4.136,5.466c1.077,1.862.8,5.241,2.665,6.318C48.49,89.982,51.255,88.086,53.49,88.086Z" transform="translate(-35.781 -56.629)" fill="#f4dd45"/>
        <circle id="Elipse_5276" data-name="Elipse 5276" cx="6.74" cy="6.74" r="6.74" transform="translate(10.968 13.784)" fill="#eab14d"/>
      </g>
      <g id="Grupo_950857" data-name="Grupo 950857" transform="translate(4.365 0)">
        <path id="Trazado_704901" data-name="Trazado 704901" d="M71.552,45a1.1,1.1,0,1,0-.649,2.1,6.99,6.99,0,0,1,4.947,6.71V64.465a8.308,8.308,0,0,1-8.3,8.3H21.286a10.652,10.652,0,0,0,.994-.878,10.431,10.431,0,0,0,3.074-7.42V53.809a7.03,7.03,0,0,1,7.022-7.022H66.4a1.1,1.1,0,0,0,0-2.2H59.252V9.218A9.228,9.228,0,0,0,50.034,0H13.583A9.228,9.228,0,0,0,4.365,9.218V64.465A10.506,10.506,0,0,0,14.859,74.959H67.55a10.507,10.507,0,0,0,10.5-10.494V53.809A9.175,9.175,0,0,0,71.552,45ZM14.859,72.763a8.308,8.308,0,0,1-8.3-8.3V9.218A7.03,7.03,0,0,1,13.583,2.2H50.034a7.03,7.03,0,0,1,7.022,7.022V44.592H32.375a9.23,9.23,0,0,0-9.15,8.12H11.819a1.1,1.1,0,1,0,0,2.2H23.157v4.742H11.819a1.1,1.1,0,0,0,0,2.2H23.157v2.619a8.3,8.3,0,0,1-8.3,8.3Z" transform="translate(-4.365 0)"/>
        <path id="Trazado_704902" data-name="Trazado 704902" d="M36.667,76.781a8.9,8.9,0,0,1,.729,2.331c.367,1.635.783,3.489,2.337,4.388a3.389,3.389,0,0,0,1.287.424V90.4a2.345,2.345,0,0,0,4,1.658L46.98,90.1a.151.151,0,0,1,.213,0l1.959,1.959a2.345,2.345,0,0,0,4-1.658V83.926a3.391,3.391,0,0,0,1.286-.425c1.553-.9,1.97-2.752,2.337-4.388a8.894,8.894,0,0,1,.729-2.33,8.493,8.493,0,0,1,1.6-1.708c1.26-1.145,2.687-2.442,2.687-4.309S60.363,67.6,59.1,66.457a8.494,8.494,0,0,1-1.6-1.706,7.262,7.262,0,0,1-.625-1.879,1.1,1.1,0,0,0-2.14.493,8.844,8.844,0,0,0,.865,2.486,10.048,10.048,0,0,0,2.019,2.231c.968.879,1.969,1.789,1.969,2.684s-1,1.8-1.968,2.684a10.051,10.051,0,0,0-2.02,2.233,10.489,10.489,0,0,0-.971,2.949c-.282,1.254-.573,2.551-1.294,2.968-.676.391-1.919.009-3.121-.36a10.946,10.946,0,0,0-3.134-.64,10.94,10.94,0,0,0-3.132.64c-1.2.369-2.446.751-3.123.36-.721-.417-1.012-1.714-1.293-2.968a10.5,10.5,0,0,0-.971-2.95,10.053,10.053,0,0,0-2.019-2.231c-.968-.879-1.969-1.789-1.969-2.684s1-1.8,1.969-2.684a10.049,10.049,0,0,0,2.019-2.231,10.5,10.5,0,0,0,.971-2.95c.282-1.254.573-2.551,1.293-2.968.676-.391,1.92-.009,3.123.36a10.94,10.94,0,0,0,3.132.64,10.947,10.947,0,0,0,3.134-.64c1.187-.365,2.415-.742,3.1-.375a1.1,1.1,0,0,0,1.043-1.933c-1.488-.8-3.239-.266-4.783.208a9.456,9.456,0,0,1-2.49.543,9.457,9.457,0,0,1-2.488-.543c-1.576-.484-3.362-1.032-4.867-.162-1.553.9-1.969,2.752-2.336,4.388a8.9,8.9,0,0,1-.729,2.331,8.5,8.5,0,0,1-1.6,1.706c-1.26,1.145-2.688,2.442-2.688,4.309s1.428,3.165,2.688,4.309a8.491,8.491,0,0,1,1.6,1.706ZM44.6,83.339a9.456,9.456,0,0,1,2.488-.543,9.459,9.459,0,0,1,2.489.543c.448.138.913.28,1.384.394V90.4a.132.132,0,0,1-.092.138.134.134,0,0,1-.164-.033l-1.96-1.96a2.352,2.352,0,0,0-3.316,0l-1.959,1.959a.149.149,0,0,1-.254-.1V83.731C43.686,83.618,44.151,83.476,44.6,83.339Z" transform="translate(-28.281 -49.143)"/>
        <path id="Trazado_704903" data-name="Trazado 704903" d="M87.115,94.15a7.838,7.838,0,1,0,7.839,7.838A7.847,7.847,0,0,0,87.115,94.15Zm0,13.481a5.642,5.642,0,1,1,5.643-5.642A5.649,5.649,0,0,1,87.115,107.631Z" transform="translate(-68.31 -80.366)"/>
        <path id="Trazado_704904" data-name="Trazado 704904" d="M245.228,96.346h12.437a1.1,1.1,0,1,0,0-2.2H245.228a1.1,1.1,0,1,0,0,2.2Z" transform="translate(-209.027 -80.366)"/>
        <path id="Trazado_704905" data-name="Trazado 704905" d="M245.228,142.386h12.437a1.1,1.1,0,1,0,0-2.2H245.228a1.1,1.1,0,1,0,0,2.2Z" transform="translate(-209.027 -119.666)"/>
        <path id="Trazado_704906" data-name="Trazado 704906" d="M245.228,188.427h12.437a1.1,1.1,0,1,0,0-2.2H245.228a1.1,1.1,0,1,0,0,2.2Z" transform="translate(-209.027 -158.966)"/>
        <path id="Trazado_704907" data-name="Trazado 704907" d="M245.228,235.32h12.437a1.1,1.1,0,1,0,0-2.2H245.228a1.1,1.1,0,1,0,0,2.2Z" transform="translate(-209.027 -198.994)"/>
      </g>
    </g>
  </g>
</svg>
