<svg xmlns="http://www.w3.org/2000/svg" width="270" height="1067.486" viewBox="0 0 270 1067.486">
  <g id="Grupo_957808" data-name="Grupo 957808" transform="translate(-258.832 -43)">
    <path id="Trazado_725293" data-name="Trazado 725293" d="M10.364,0H1057.122a10.187,10.187,0,0,1,10.364,10V260a10.187,10.187,0,0,1-10.364,10H10.364A10.187,10.187,0,0,1,0,260V10A10.187,10.187,0,0,1,10.364,0Z" transform="translate(528.832 43) rotate(90)" fill="#f3f9ff"/>
    <g id="Grupo_957803" data-name="Grupo 957803" transform="translate(918.938 577.5) rotate(90)">
      <path id="Icon_awesome-arrow-circle-right" data-name="Icon awesome-arrow-circle-right" d="M18,.563A17.438,17.438,0,1,1,.563,18,17.434,17.434,0,0,1,18,.563Zm-2.032,10.1,5.309,5.091H8.438A1.683,1.683,0,0,0,6.75,17.438v1.125A1.683,1.683,0,0,0,8.438,20.25H21.277l-5.309,5.091a1.689,1.689,0,0,0-.028,2.412l.773.766a1.681,1.681,0,0,0,2.384,0l9.33-9.323a1.681,1.681,0,0,0,0-2.384L19.1,7.474a1.681,1.681,0,0,0-2.384,0l-.773.766a1.7,1.7,0,0,0,.028,2.419Z" transform="translate(245.938 504.563)" fill="#0e494d"/>
    </g>
    <g id="Grupo_957802" data-name="Grupo 957802" transform="translate(-499.457 449.875)">
      <path id="Trazado_725285" data-name="Trazado 725285" d="M10,0H220a10,10,0,0,1,10,10V220a10,10,0,0,1-10,10H10A10,10,0,0,1,0,220V10A10,10,0,0,1,10,0Z" transform="translate(780.832 409)" fill="#fff"/>
      <path id="Trazado_725286" data-name="Trazado 725286" d="M0,0H230V40a10,10,0,0,1-10,10H10A10,10,0,0,1,0,40Z" transform="translate(780.832 589)" fill="#badc61"/>
      <path id="Trazado_725287" data-name="Trazado 725287" d="M-43.625,0V-12.8H-39.5a6.064,6.064,0,0,1,3.05.769,5.406,5.406,0,0,1,2.114,2.171,6.554,6.554,0,0,1,.769,3.142v.589a6.592,6.592,0,0,1-.743,3.151A5.429,5.429,0,0,1-36.4-.8a5.93,5.93,0,0,1-3.01.8Zm3.085-10.415v8.042h1.072a2.4,2.4,0,0,0,2.039-.945,4.63,4.63,0,0,0,.712-2.808V-6.68a4.592,4.592,0,0,0-.712-2.795,2.442,2.442,0,0,0-2.074-.94ZM-27.523.176a4.889,4.889,0,0,1-3.542-1.305,4.507,4.507,0,0,1-1.354-3.4v-.246a5.84,5.84,0,0,1,.541-2.575A3.955,3.955,0,0,1-30.3-9.075a4.763,4.763,0,0,1,2.461-.611,4.117,4.117,0,0,1,3.164,1.244,4.887,4.887,0,0,1,1.16,3.467v1.151H-29.4a2.135,2.135,0,0,0,.694,1.257,2.066,2.066,0,0,0,1.389.457,2.662,2.662,0,0,0,2.2-.984l1.354,1.6A3.784,3.784,0,0,1-25.339-.277,5.3,5.3,0,0,1-27.523.176ZM-27.857-7.4q-1.3,0-1.547,1.723h2.988v-.229a1.467,1.467,0,0,0-.36-1.1A1.434,1.434,0,0,0-27.857-7.4ZM-18.3-2.109a1.317,1.317,0,0,0,.967-.338A1.241,1.241,0,0,0-17-3.393h2.777A3.288,3.288,0,0,1-15.346-.826a4.168,4.168,0,0,1-2.887,1,4.22,4.22,0,0,1-3.27-1.3,5.125,5.125,0,0,1-1.2-3.6v-.123A5.792,5.792,0,0,1-22.166-7.4a3.872,3.872,0,0,1,1.534-1.7,4.573,4.573,0,0,1,2.373-.593,4.116,4.116,0,0,1,2.944,1.028,3.647,3.647,0,0,1,1.09,2.786H-17A1.626,1.626,0,0,0-17.363-7a1.244,1.244,0,0,0-.967-.4q-1.151,0-1.345,1.468a10.357,10.357,0,0,0-.062,1.283,4.068,4.068,0,0,0,.343,1.986A1.187,1.187,0,0,0-18.3-2.109ZM-9.848,0h-2.971V-9.51h2.971Zm-3.146-11.962A1.322,1.322,0,0,1-12.538-13a1.724,1.724,0,0,1,1.187-.4,1.724,1.724,0,0,1,1.187.4,1.322,1.322,0,0,1,.457,1.037,1.322,1.322,0,0,1-.457,1.037,1.724,1.724,0,0,1-1.187.4,1.724,1.724,0,0,1-1.187-.4A1.322,1.322,0,0,1-12.995-11.962Zm9.949,9.29a.684.684,0,0,0-.4-.606,6.016,6.016,0,0,0-1.5-.475A6.853,6.853,0,0,1-6.772-4.4a3.062,3.062,0,0,1-1.1-.971,2.319,2.319,0,0,1-.378-1.31A2.628,2.628,0,0,1-7.167-8.837a4.453,4.453,0,0,1,2.83-.848,4.934,4.934,0,0,1,3.023.853A2.666,2.666,0,0,1-.171-6.592H-3.142q0-1.143-1.2-1.143a1.194,1.194,0,0,0-.782.259.8.8,0,0,0-.316.646.737.737,0,0,0,.387.642,3.654,3.654,0,0,0,1.235.4,10.671,10.671,0,0,1,1.49.378A2.706,2.706,0,0,1-.189-2.76,2.491,2.491,0,0,1-1.345-.642,5.068,5.068,0,0,1-4.337.176a5.172,5.172,0,0,1-2.18-.439,3.645,3.645,0,0,1-1.494-1.2A2.707,2.707,0,0,1-8.547-3.05h2.769a1.145,1.145,0,0,0,.439.962,1.808,1.808,0,0,0,1.081.3,1.422,1.422,0,0,0,.91-.246A.787.787,0,0,0-3.045-2.672ZM4.32,0H1.349V-9.51H4.32ZM1.173-11.962A1.322,1.322,0,0,1,1.63-13a1.724,1.724,0,0,1,1.187-.4A1.724,1.724,0,0,1,4-13a1.322,1.322,0,0,1,.457,1.037A1.322,1.322,0,0,1,4-10.925a1.724,1.724,0,0,1-1.187.4,1.724,1.724,0,0,1-1.187-.4A1.322,1.322,0,0,1,1.173-11.962Zm4.6,7.119a5.613,5.613,0,0,1,.554-2.536A3.96,3.96,0,0,1,7.915-9.088a4.791,4.791,0,0,1,2.435-.6,4.373,4.373,0,0,1,3.366,1.323,5.076,5.076,0,0,1,1.23,3.6v.105a4.925,4.925,0,0,1-1.235,3.529A4.384,4.384,0,0,1,10.367.176,4.434,4.434,0,0,1,7.106-1.042a4.761,4.761,0,0,1-1.327-3.3Zm2.962.185a3.538,3.538,0,0,0,.413,1.934,1.376,1.376,0,0,0,1.222.615q1.582,0,1.617-2.435v-.3q0-2.558-1.635-2.558-1.485,0-1.608,2.206ZM18.971-9.51l.1,1.116a3.225,3.225,0,0,1,2.716-1.292A2.713,2.713,0,0,1,24-8.8a4.226,4.226,0,0,1,.76,2.672V0H21.792V-6a1.6,1.6,0,0,0-.29-1.059A1.342,1.342,0,0,0,20.448-7.4a1.413,1.413,0,0,0-1.292.686V0H16.194V-9.51ZM31,.176a4.889,4.889,0,0,1-3.542-1.305,4.507,4.507,0,0,1-1.354-3.4v-.246a5.84,5.84,0,0,1,.541-2.575,3.955,3.955,0,0,1,1.578-1.727,4.763,4.763,0,0,1,2.461-.611,4.117,4.117,0,0,1,3.164,1.244,4.887,4.887,0,0,1,1.16,3.467v1.151H29.123a2.135,2.135,0,0,0,.694,1.257,2.066,2.066,0,0,0,1.389.457,2.662,2.662,0,0,0,2.2-.984l1.354,1.6A3.784,3.784,0,0,1,33.188-.277,5.3,5.3,0,0,1,31,.176ZM30.669-7.4q-1.3,0-1.547,1.723h2.988v-.229a1.467,1.467,0,0,0-.36-1.1A1.434,1.434,0,0,0,30.669-7.4ZM41.181-2.672a.684.684,0,0,0-.4-.606,6.016,6.016,0,0,0-1.5-.475A6.853,6.853,0,0,1,37.455-4.4a3.062,3.062,0,0,1-1.1-.971,2.319,2.319,0,0,1-.378-1.31,2.628,2.628,0,0,1,1.081-2.158,4.453,4.453,0,0,1,2.83-.848,4.934,4.934,0,0,1,3.023.853,2.666,2.666,0,0,1,1.143,2.241H41.084q0-1.143-1.2-1.143a1.194,1.194,0,0,0-.782.259.8.8,0,0,0-.316.646.737.737,0,0,0,.387.642,3.654,3.654,0,0,0,1.235.4,10.671,10.671,0,0,1,1.49.378A2.706,2.706,0,0,1,44.038-2.76,2.491,2.491,0,0,1,42.882-.642a5.068,5.068,0,0,1-2.993.817,5.172,5.172,0,0,1-2.18-.439,3.645,3.645,0,0,1-1.494-1.2,2.707,2.707,0,0,1-.536-1.591h2.769a1.145,1.145,0,0,0,.439.962,1.808,1.808,0,0,0,1.081.3,1.422,1.422,0,0,0,.91-.246A.787.787,0,0,0,41.181-2.672Z" transform="translate(895.832 620)" fill="#12263f"/>
      <path id="Trazado_725291" data-name="Trazado 725291" d="M65,0A65,65,0,1,1,0,65,65,65,0,0,1,65,0Z" transform="translate(827.832 433)" fill="#f7c773" opacity="0.4"/>
      <path id="Trazado_704571" data-name="Trazado 704571" d="M29.25,146.642l-15.063-15.6L8,137.233l1.768-19.446,19.446-1.768-5.3,5.3,11.59,11.59v13.728Z" transform="translate(846.082 360.108)" fill="#f7d74f"/>
      <path id="Trazado_704572" data-name="Trazado 704572" d="M136,336.5V313.783c0-5.4,3.991-9.783,8.914-9.783h18.422c4.923,0,8.914,4.38,8.914,9.783V336.5Z" transform="translate(738.082 201.5)" fill="#23a3db"/>
      <path id="Trazado_704573" data-name="Trazado 704573" d="M240,344v20l2.5,3.75L245,364V344Z" transform="translate(650.332 167.75)" fill="#3dfaff"/>
      <path id="Trazado_704574" data-name="Trazado 704574" d="M240,312h5v5h-5Z" transform="translate(650.332 194.75)" fill="#23d8d8"/>
      <path id="Trazado_704575" data-name="Trazado 704575" d="M208,176v10.59a4.356,4.356,0,0,0,3.293,4.54A2.528,2.528,0,0,1,213,193.5v3.75h5V193.5a2.528,2.528,0,0,1,1.707-2.37A4.356,4.356,0,0,0,223,186.59V176Z" transform="translate(677.332 309.5)" fill="#fdcaa7"/>
      <path id="Trazado_704576" data-name="Trazado 704576" d="M213,144h10v5H211.75l-1.25,5-2.5,2.5V149A5,5,0,0,1,213,144Z" transform="translate(677.332 336.5)" fill="#894619"/>
      <path id="Trazado_704577" data-name="Trazado 704577" d="M248,165.25h4.092a2.586,2.586,0,0,1,1.364-1.12,4.356,4.356,0,0,0,3.293-4.54V144h-5v16.632a3.958,3.958,0,0,1-1.762,3.293Z" transform="translate(643.582 336.5)" fill="#e28f56" opacity="0.3"/>
      <path id="Trazado_704578" data-name="Trazado 704578" d="M168.5,26.75V20.5H161L176,8l15,12.5h-7.5v6.25Z" transform="translate(716.988 451.25)" fill="#3dfaff"/>
      <path id="Trazado_704579" data-name="Trazado 704579" d="M28,319.5H20.5V312L8,327l12.5,15v-7.5H28Z" transform="translate(846.082 194.75)" fill="#f4b651"/>
      <path id="Trazado_704581" data-name="Trazado 704581" d="M38.76,116.02l-19.446,1.768,25.732,26.166V132.914l-11.59-11.59Z" transform="translate(836.535 360.108)" fill="#f2cb2a"/>
      <path id="Trazado_704582" data-name="Trazado 704582" d="M28,319.5H20.5V312L8,327H28Z" transform="translate(846.082 194.75)" fill="#f2a536"/>
      <path id="Trazado_704585" data-name="Trazado 704585" d="M168,360h2.5v23.75H168Z" transform="translate(711.082 154.25)"/>
      <path id="Trazado_704587" data-name="Trazado 704587" d="M240,200h2.5v2.5H240Z" transform="translate(650.332 289.25)"/>
      <path id="Trazado_704589" data-name="Trazado 704589" d="M175.5,13.75V20H178V15h6.25a1.25,1.25,0,0,0,.8-2.21l-15-12.5a1.25,1.25,0,0,0-1.6,0l-15,12.5a1.25,1.25,0,0,0,.8,2.21h6.25v5H163V13.75a1.25,1.25,0,0,0-1.25-1.25H157.7L169.25,2.877,180.8,12.5H176.75A1.25,1.25,0,0,0,175.5,13.75Z" transform="translate(723.738 458)"/>
      <path id="Trazado_704591" data-name="Trazado 704591" d="M12.79,194.3a1.25,1.25,0,0,0,2.21-.8v-6.25h5v7.5h2.5V171.625a8.134,8.134,0,0,1,8.125-8.125H36.25v23.75a1.25,1.25,0,0,0,.21.693l2.5,3.75a1.25,1.25,0,0,0,2.08,0l2.5-3.75a1.25,1.25,0,0,0,.21-.693V163.5h4.375a8.134,8.134,0,0,1,8.125,8.125V194.75h2.5v-7.5H65v6.25a1.25,1.25,0,0,0,2.21.8l12.5-15a1.25,1.25,0,0,0,0-1.6l-12.5-15a1.25,1.25,0,0,0-2.21.8v6.25H58.581A10.641,10.641,0,0,0,48.125,161H43.75v-1.25a1.272,1.272,0,0,1,.876-1.193,5.58,5.58,0,0,0,4.124-5.717V137.25A1.25,1.25,0,0,0,47.5,136h-10a6.257,6.257,0,0,0-6.25,6.25v10.59a5.58,5.58,0,0,0,4.124,5.717,1.272,1.272,0,0,1,.876,1.193V161H30.625a10.641,10.641,0,0,0-10.456,8.75H15V163.5a1.25,1.25,0,0,0-2.21-.8l-12.5,15a1.25,1.25,0,0,0,0,1.6ZM66.25,172.25A1.25,1.25,0,0,0,67.5,171v-4.047L77.123,178.5,67.5,190.047V186a1.25,1.25,0,0,0-1.25-1.25h-7.5v-12.5Zm-27.5-8.75h2.5V166h-2.5ZM40,188.747l-1.25-1.875V168.5h2.5v18.372Zm-6.25-46.5a3.754,3.754,0,0,1,3.75-3.75h8.75V141h-10a1.25,1.25,0,0,0-1.213.947l-1.166,4.664-.121.121ZM36.213,156.2a3.136,3.136,0,0,1-2.463-3.363v-2.572l2.134-2.134a1.25,1.25,0,0,0,.328-.581l1.014-4.053H46.25v9.34a3.136,3.136,0,0,1-2.463,3.363,3.792,3.792,0,0,0-2.537,3.548V161h-2.5v-1.25A3.792,3.792,0,0,0,36.213,156.2ZM12.5,166.953V171a1.25,1.25,0,0,0,1.25,1.25H20v12.5H13.75A1.25,1.25,0,0,0,12.5,186v4.047L2.877,178.5Z" transform="translate(852.832 343.25)"/>
      <path id="Trazado_704592" data-name="Trazado 704592" d="M16.276,115.457l11.59,11.59,1.768-1.768L18.928,114.573l4.42-4.42a1.25,1.25,0,0,0-1-2.129L2.9,109.793a1.25,1.25,0,0,0-1.132,1.132L.005,130.37a1.25,1.25,0,0,0,2.129,1l5.3-5.3,14.179,14.179,1.768-1.768L8.322,123.413a1.25,1.25,0,0,0-1.768,0l-3.746,3.745,1.361-14.969,14.97-1.361-2.862,2.861a1.25,1.25,0,0,0,0,1.768Z" transform="translate(852.832 366.858)"/>
      <path id="Trazado_704569" data-name="Trazado 704569" d="M368,319.5h8.75V312l12.5,15-12.5,15v-7.5H368Z" transform="translate(542.332 194.75)" fill="#f4b651"/>
      <path id="Trazado_704570" data-name="Trazado 704570" d="M334.25,146.642l15.063-15.6,6.187,6.187-1.768-19.446-19.446-1.768,5.3,5.3L328,132.914v13.728Z" transform="translate(576.082 360.108)" fill="#f7d74f"/>
      <path id="Trazado_704580" data-name="Trazado 704580" d="M256.11,8.116V26.75h7.639V20.5h7.5l-15-12.5Z" transform="translate(636.74 451.25)" fill="#1fe8e8"/>
      <path id="Trazado_704583" data-name="Trazado 704583" d="M328,143.083l25.732-25.3-19.446-1.768,5.3,5.3L328,132.913Z" transform="translate(576.082 360.108)" fill="#f2cb2a"/>
      <path id="Trazado_704584" data-name="Trazado 704584" d="M376.75,319.5H368V327h21.25l-12.5-15Z" transform="translate(542.332 194.75)" fill="#f2a536"/>
      <path id="Trazado_704586" data-name="Trazado 704586" d="M320,360h2.5v23.75H320Z" transform="translate(582.832 154.25)"/>
      <path id="Trazado_704588" data-name="Trazado 704588" d="M272,200h2.5v2.5H272Z" transform="translate(623.332 289.25)"/>
      <path id="Trazado_704590" data-name="Trazado 704590" d="M344.539,123.046a1.25,1.25,0,0,0-.884.366l-15.063,15.063,1.768,1.768,14.179-14.179,5.3,5.3a1.25,1.25,0,0,0,2.129-1L350.2,110.925a1.25,1.25,0,0,0-1.132-1.132l-19.446-1.768a1.25,1.25,0,0,0-1,2.129l4.42,4.42L322.343,125.28l1.768,1.768,11.59-11.59a1.25,1.25,0,0,0,0-1.768l-2.862-2.862,14.97,1.361,1.361,14.97-3.746-3.746A1.25,1.25,0,0,0,344.539,123.046Z" transform="translate(580.855 366.858)"/>
    </g>
    <g id="Grupo_957805" data-name="Grupo 957805" transform="translate(-247.457 185)">
      <g id="Grupo_957801" data-name="Grupo 957801">
        <path id="Trazado_725288" data-name="Trazado 725288" d="M10,0H220a10,10,0,0,1,10,10V220a10,10,0,0,1-10,10H10A10,10,0,0,1,0,220V10A10,10,0,0,1,10,0Z" transform="translate(528.832 409)" fill="#fff"/>
        <path id="Trazado_725289" data-name="Trazado 725289" d="M0,0H230V40a10,10,0,0,1-10,10H10A10,10,0,0,1,0,40Z" transform="translate(528.832 589)" fill="#badc61"/>
        <path id="Trazado_725290" data-name="Trazado 725290" d="M-39.8-4.526h-1.67V0h-3.085V-12.8h5.036a5.621,5.621,0,0,1,3.56,1.01,3.421,3.421,0,0,1,1.283,2.853,4.155,4.155,0,0,1-.541,2.213A3.837,3.837,0,0,1-36.91-5.3l2.672,5.167V0h-3.3ZM-41.471-6.9h1.951A1.751,1.751,0,0,0-38.2-7.362a1.788,1.788,0,0,0,.444-1.291,1.809,1.809,0,0,0-.448-1.3,1.735,1.735,0,0,0-1.318-.471h-1.951ZM-28.349.176a4.889,4.889,0,0,1-3.542-1.305,4.507,4.507,0,0,1-1.354-3.4v-.246A5.84,5.84,0,0,1-32.7-7.348a3.955,3.955,0,0,1,1.578-1.727,4.763,4.763,0,0,1,2.461-.611A4.117,4.117,0,0,1-25.5-8.442a4.887,4.887,0,0,1,1.16,3.467v1.151H-30.23a2.135,2.135,0,0,0,.694,1.257,2.066,2.066,0,0,0,1.389.457,2.662,2.662,0,0,0,2.2-.984l1.354,1.6A3.784,3.784,0,0,1-26.165-.277,5.3,5.3,0,0,1-28.349.176ZM-28.683-7.4q-1.3,0-1.547,1.723h2.988v-.229a1.467,1.467,0,0,0-.36-1.1A1.434,1.434,0,0,0-28.683-7.4Zm10.512,4.729a.684.684,0,0,0-.4-.606,6.016,6.016,0,0,0-1.5-.475A6.853,6.853,0,0,1-21.9-4.4,3.062,3.062,0,0,1-23-5.37a2.319,2.319,0,0,1-.378-1.31,2.628,2.628,0,0,1,1.081-2.158,4.453,4.453,0,0,1,2.83-.848,4.934,4.934,0,0,1,3.023.853A2.666,2.666,0,0,1-15.3-6.592h-2.971q0-1.143-1.2-1.143a1.194,1.194,0,0,0-.782.259.8.8,0,0,0-.316.646.737.737,0,0,0,.387.642,3.654,3.654,0,0,0,1.235.4,10.671,10.671,0,0,1,1.49.378A2.706,2.706,0,0,1-15.315-2.76,2.491,2.491,0,0,1-16.471-.642a5.068,5.068,0,0,1-2.993.817,5.172,5.172,0,0,1-2.18-.439,3.645,3.645,0,0,1-1.494-1.2,2.707,2.707,0,0,1-.536-1.591H-20.9a1.145,1.145,0,0,0,.439.962,1.808,1.808,0,0,0,1.081.3,1.422,1.422,0,0,0,.91-.246A.787.787,0,0,0-18.171-2.672Zm9.905,1.644a3.054,3.054,0,0,1-2.54,1.2,3,3,0,0,1-2.369-.91,3.826,3.826,0,0,1-.8-2.615V-9.51h2.962v6.179A1.065,1.065,0,0,0-9.831-2.109a1.548,1.548,0,0,0,1.45-.729V-9.51H-5.4V0H-8.178ZM-.655,0H-3.625V-13.5H-.655ZM4.619-11.874V-9.51H6.183v2.057H4.619V-3.1a1.111,1.111,0,0,0,.193.747,1.037,1.037,0,0,0,.765.211A4.345,4.345,0,0,0,6.315-2.2V-.079a5.466,5.466,0,0,1-1.67.255A3.1,3.1,0,0,1,2.386-.545a2.954,2.954,0,0,1-.729-2.188v-4.72H.444V-9.51H1.657v-2.364ZM12.7,0a3.344,3.344,0,0,1-.281-.853A2.754,2.754,0,0,1,10.138.176,3.374,3.374,0,0,1,7.853-.637a2.588,2.588,0,0,1-.94-2.043A2.66,2.66,0,0,1,8.055-5.019a5.821,5.821,0,0,1,3.322-.791h.914v-.5q0-1.316-1.134-1.316A.927.927,0,0,0,10.1-6.587H7.141A2.655,2.655,0,0,1,8.314-8.825a4.931,4.931,0,0,1,2.993-.86,4.323,4.323,0,0,1,2.874.888,3.086,3.086,0,0,1,1.081,2.435v4.21a4.311,4.311,0,0,0,.4,2V0ZM10.85-1.934a1.652,1.652,0,0,0,.918-.237,1.487,1.487,0,0,0,.523-.536V-4.228H11.43q-1.547,0-1.547,1.389a.848.848,0,0,0,.272.655A.986.986,0,0,0,10.85-1.934Zm5.678-2.892a5.809,5.809,0,0,1,.976-3.56,3.211,3.211,0,0,1,2.725-1.3,2.731,2.731,0,0,1,2.145,1V-13.5h2.971V0H22.68l-.149-1.02a2.8,2.8,0,0,1-2.32,1.2,3.205,3.205,0,0,1-2.689-1.3A5.993,5.993,0,0,1,16.528-4.825Zm2.962.185q0,2.531,1.477,2.531a1.458,1.458,0,0,0,1.406-.826V-6.557A1.419,1.419,0,0,0,20.984-7.4q-1.371,0-1.485,2.215Zm7.163-.2a5.613,5.613,0,0,1,.554-2.536A3.96,3.96,0,0,1,28.8-9.088a4.791,4.791,0,0,1,2.435-.6A4.373,4.373,0,0,1,34.6-8.363a5.076,5.076,0,0,1,1.23,3.6v.105a4.925,4.925,0,0,1-1.235,3.529A4.384,4.384,0,0,1,31.25.176a4.434,4.434,0,0,1-3.261-1.217,4.761,4.761,0,0,1-1.327-3.3Zm2.962.185a3.538,3.538,0,0,0,.413,1.934,1.376,1.376,0,0,0,1.222.615q1.582,0,1.617-2.435v-.3q0-2.558-1.635-2.558-1.485,0-1.608,2.206Zm12.5,1.986a.684.684,0,0,0-.4-.606,6.016,6.016,0,0,0-1.5-.475A6.853,6.853,0,0,1,38.386-4.4a3.062,3.062,0,0,1-1.1-.971,2.319,2.319,0,0,1-.378-1.31,2.628,2.628,0,0,1,1.081-2.158,4.453,4.453,0,0,1,2.83-.848,4.934,4.934,0,0,1,3.023.853,2.666,2.666,0,0,1,1.143,2.241H42.016q0-1.143-1.2-1.143a1.194,1.194,0,0,0-.782.259.8.8,0,0,0-.316.646.737.737,0,0,0,.387.642,3.654,3.654,0,0,0,1.235.4,10.671,10.671,0,0,1,1.49.378A2.706,2.706,0,0,1,44.969-2.76,2.491,2.491,0,0,1,43.813-.642a5.068,5.068,0,0,1-2.993.817,5.172,5.172,0,0,1-2.18-.439,3.645,3.645,0,0,1-1.494-1.2,2.707,2.707,0,0,1-.536-1.591h2.769a1.145,1.145,0,0,0,.439.962,1.808,1.808,0,0,0,1.081.3,1.422,1.422,0,0,0,.91-.246A.787.787,0,0,0,42.113-2.672Z" transform="translate(643.832 620)" fill="#12263f"/>
        <path id="Trazado_725292" data-name="Trazado 725292" d="M65,0A65,65,0,1,1,0,65,65,65,0,0,1,65,0Z" transform="translate(575.832 433)" fill="#f7c773" opacity="0.4"/>
        <g id="Grupo_950726" data-name="Grupo 950726" transform="translate(608.18 452.451)">
          <path id="Trazado_704455" data-name="Trazado 704455" d="M198.764,12.961h-8.191A5.461,5.461,0,0,0,185.112,7.5h-5.461a5.461,5.461,0,0,0-5.461,5.461H166V23.882h32.764V12.961Z" transform="translate(-149.618 -7.5)" fill="#ffc45c" fill-rule="evenodd"/>
          <path id="Trazado_704456" data-name="Trazado 704456" d="M92.382,57.961V52.5H76v79.544a2.739,2.739,0,0,0,2.73,2.73H138.8a2.739,2.739,0,0,0,2.73-2.73V52.5H125.146v5.461h10.922v60.431l-10.921,10.921H81.461V57.961Z" transform="translate(-76 -44.309)" fill="#ffc45c" fill-rule="evenodd"/>
          <path id="Trazado_704457" data-name="Trazado 704457" d="M116.922,82.5H106v71.353h43.685V142.931h10.921V82.5H149.685v2.73H116.922Zm2.437,35.857,5.578-3.22V108.7l-5.578-3.22V99.035l5.578-3.22,5.578,3.22v6.441l5.578,3.22v6.441l-5.578,3.22V124.8l-5.578,3.22-5.578-3.22Z" transform="translate(-100.539 -68.848)" fill="#fff" fill-rule="evenodd"/>
          <path id="Trazado_704458" data-name="Trazado 704458" d="M356.921,414.5H346v10.921Z" transform="translate(-296.854 -340.417)" fill="#9ee6fa" fill-rule="evenodd"/>
          <path id="Trazado_704459" data-name="Trazado 704459" d="M184.968,274.684l5.578-3.22v-6.441l-5.578-3.22-5.578,3.22v6.441Z" transform="translate(-160.571 -215.514)" fill="#97eeba" fill-rule="evenodd"/>
          <path id="Trazado_704460" data-name="Trazado 704460" d="M210.034,218.387l5.578,3.22,5.578-3.22v-6.441l-5.578-3.221-5.578,3.221Z" transform="translate(-185.637 -172.098)" fill="#ffee89" fill-rule="evenodd"/>
          <path id="Trazado_704461" data-name="Trazado 704461" d="M184.968,168.532l5.578-3.221V158.87l-5.578-3.22-5.578,3.22v6.441Z" transform="translate(-160.571 -128.683)" fill="#00e7f0" fill-rule="evenodd"/>
          <path id="Trazado_704462" data-name="Trazado 704462" d="M80.1,52.5H76v79.544a2.739,2.739,0,0,0,2.73,2.73h4.1a2.739,2.739,0,0,1-2.73-2.73V52.5Z" transform="translate(-76 -44.309)" fill="#ff8e42" fill-rule="evenodd"/>
          <path id="Trazado_704463" data-name="Trazado 704463" d="M106,82.5h4.1v71.353H106Z" transform="translate(-100.539 -68.848)" fill="#9ee6fa" fill-rule="evenodd"/>
          <path id="Trazado_704464" data-name="Trazado 704464" d="M166,37.5h4.1V48.421H166Z" transform="translate(-149.619 -32.039)" fill="#ff8e42" fill-rule="evenodd"/>
        </g>
        <g id="Grupo_950727" data-name="Grupo 950727" transform="translate(606.814 451.086)">
          <path id="Trazado_704465" data-name="Trazado 704465" d="M120.376,8.191V5.461h-8.328A6.838,6.838,0,0,0,105.359,0H99.9A6.838,6.838,0,0,0,93.21,5.461H84.882v2.73H68.5v8.191h2.73v-5.46H84.882v2.73H73.961V87.735h45.616L131.3,76.014V13.652H120.376v-2.73h13.652V89.1a1.367,1.367,0,0,1-1.365,1.365h-4.1V93.2h4.1a4.1,4.1,0,0,0,4.1-4.1V8.191Zm-32.764,0H95.8V6.826a4.1,4.1,0,0,1,4.1-4.1h5.461a4.1,4.1,0,0,1,4.1,4.1V8.191h8.191v8.191H87.613Zm32.764,74.883v-6.26h6.26Zm8.191-66.692v57.7H117.646V85H76.691V16.382h8.191v2.73h35.494v-2.73Z" transform="translate(-68.5)"/>
          <path id="Trazado_704466" data-name="Trazado 704466" d="M368.5,497h2.73v2.73H368.5Z" transform="translate(-313.893 -406.535)"/>
          <path id="Trazado_704467" data-name="Trazado 704467" d="M71.23,174.987V105H68.5v69.987a4.1,4.1,0,0,0,4.1,4.1h47.781v-2.73H72.6A1.367,1.367,0,0,1,71.23,174.987Z" transform="translate(-68.5 -85.888)"/>
          <path id="Trazado_704468" data-name="Trazado 704468" d="M368.5,105h2.73v2.73H368.5Z" transform="translate(-313.893 -85.887)"/>
          <path id="Trazado_704469" data-name="Trazado 704469" d="M368.5,135h2.73v2.731H368.5Z" transform="translate(-313.893 -110.426)"/>
          <path id="Trazado_704470" data-name="Trazado 704470" d="M248.5,30h2.73v2.73H248.5Z" transform="translate(-215.736 -24.539)"/>
          <path id="Trazado_704471" data-name="Trazado 704471" d="M196.932,151.787H194.2v5.653l-4.213,2.432-4.213-2.432V151l-6.943-4.008L171.89,151v8.017l5.578,3.22V167.1l-5.578,3.22v8.017l6.943,4.008,6.943-4.008V171.9l4.213-2.432,4.9,2.826,1.365-2.364-4.9-2.826v-4.864l4.213-2.432,4.9,2.826,1.365-2.364-4.9-2.826Zm-22.312.788,4.213-2.432,4.213,2.432v4.865l-4.213,2.432-4.213-2.432Zm4.213,26.619-4.213-2.432V171.9l4.213-2.432,4.213,2.432v4.864Zm9.791-12.093-4.213,2.432L180.2,167.1v-4.864l4.213-2.432,4.213,2.432Z" transform="translate(-153.071 -120.235)"/>
          <path id="Trazado_704472" data-name="Trazado 704472" d="M237.25,363.85h12.286v2.73H237.25Z" transform="translate(-206.534 -297.621)"/>
          <path id="Trazado_704473" data-name="Trazado 704473" d="M237.25,393.85h12.286v2.73H237.25Z" transform="translate(-206.534 -322.161)"/>
          <path id="Trazado_704474" data-name="Trazado 704474" d="M207.25,363.85h2.73v2.73h-2.73Z" transform="translate(-181.994 -297.621)"/>
          <path id="Trazado_704475" data-name="Trazado 704475" d="M207.25,393.85h2.73v2.73h-2.73Z" transform="translate(-181.994 -322.161)"/>
        </g>
      </g>
    </g>
    <path id="Trazado_704596" data-name="Trazado 704596" d="M46.324,200H38.438v23.657L24.664,239.936a2.885,2.885,0,0,0,2.208,4.75H57.89a2.892,2.892,0,0,0,2.891-2.891h0a2.88,2.88,0,0,0-.683-1.864L46.324,223.657Z" transform="translate(328.191 291.567)" fill="#29abe2"/>
    <g id="Grupo_950746" data-name="Grupo 950746" transform="translate(352.182 487.625)">
      <path id="Trazado_704597" data-name="Trazado 704597" d="M53.053,392H31.821l-7.1,8.393a2.891,2.891,0,0,0,2.2,4.75H57.946a2.891,2.891,0,0,0,2.2-4.75Z" transform="translate(-24.048 -356.514)" fill="#0071bc"/>
      <path id="Trazado_704598" data-name="Trazado 704598" d="M95.981,176h13.143v5.257H95.981Z" transform="translate(-84.163 -176)" fill="#0071bc"/>
    </g>
    <path id="Trazado_704600" data-name="Trazado 704600" d="M159.981,416h2.629v2.629h-2.629Z" transform="translate(214.533 111.054)"/>
    <path id="Trazado_704605" data-name="Trazado 704605" d="M207.981,224h2.629v2.629h-2.629Z" transform="translate(174.42 271.511)"/>
    <path id="Trazado_704606" data-name="Trazado 704606" d="M159.981,96h2.629v2.629h-2.629Z" transform="translate(214.533 378.481)"/>
    <path id="Trazado_704607" data-name="Trazado 704607" d="M191.981,96h2.629v2.629h-2.629Z" transform="translate(187.791 378.481)"/>
    <g id="Grupo_957800" data-name="Grupo 957800" transform="translate(5.543 -77.125)">
      <path id="Trazado_725294" data-name="Trazado 725294" d="M10,0H220a10,10,0,0,1,10,10V220a10,10,0,0,1-10,10H10A10,10,0,0,1,0,220V10A10,10,0,0,1,10,0Z" transform="translate(275.832 409)" fill="#fff"/>
      <path id="Trazado_725295" data-name="Trazado 725295" d="M0,0H230V40a10,10,0,0,1-10,10H10A10,10,0,0,1,0,40Z" transform="translate(275.832 589)" fill="#badc61"/>
      <path id="Trazado_725296" data-name="Trazado 725296" d="M-59.076-2.391H-63.3L-64.042,0h-3.3l4.693-12.8h2.9L-55.015,0h-3.313Zm-3.489-2.382h2.751l-1.38-4.438ZM-51.921-9.51l.1,1.116a3.225,3.225,0,0,1,2.716-1.292A2.713,2.713,0,0,1-46.89-8.8a4.226,4.226,0,0,1,.76,2.672V0H-49.1V-6a1.6,1.6,0,0,0-.29-1.059A1.342,1.342,0,0,0-50.445-7.4a1.413,1.413,0,0,0-1.292.686V0H-54.7V-9.51ZM-39.133,0a3.344,3.344,0,0,1-.281-.853A2.754,2.754,0,0,1-41.7.176a3.374,3.374,0,0,1-2.285-.813,2.588,2.588,0,0,1-.94-2.043,2.66,2.66,0,0,1,1.143-2.338A5.821,5.821,0,0,1-40.46-5.81h.914v-.5q0-1.316-1.134-1.316a.927.927,0,0,0-1.055,1.042H-44.7a2.655,2.655,0,0,1,1.173-2.239,4.931,4.931,0,0,1,2.993-.86,4.323,4.323,0,0,1,2.874.888,3.086,3.086,0,0,1,1.081,2.435v4.21a4.311,4.311,0,0,0,.4,2V0Zm-1.854-1.934a1.652,1.652,0,0,0,.918-.237,1.487,1.487,0,0,0,.523-.536V-4.228h-.861q-1.547,0-1.547,1.389a.848.848,0,0,0,.272.655A.986.986,0,0,0-40.988-1.934ZM-40.25-13.5h3.129l-2.443,2.76-2.417,0ZM-31.812,0h-2.971V-13.5h2.971Zm4.948,0h-2.971V-9.51h2.971ZM-30.01-11.962A1.322,1.322,0,0,1-29.553-13a1.724,1.724,0,0,1,1.187-.4,1.724,1.724,0,0,1,1.187.4,1.322,1.322,0,0,1,.457,1.037,1.322,1.322,0,0,1-.457,1.037,1.724,1.724,0,0,1-1.187.4,1.724,1.724,0,0,1-1.187-.4A1.322,1.322,0,0,1-30.01-11.962Zm9.949,9.29a.684.684,0,0,0-.4-.606,6.016,6.016,0,0,0-1.5-.475A6.853,6.853,0,0,1-23.788-4.4a3.062,3.062,0,0,1-1.1-.971,2.319,2.319,0,0,1-.378-1.31,2.628,2.628,0,0,1,1.081-2.158,4.453,4.453,0,0,1,2.83-.848,4.934,4.934,0,0,1,3.023.853,2.666,2.666,0,0,1,1.143,2.241h-2.971q0-1.143-1.2-1.143a1.194,1.194,0,0,0-.782.259.8.8,0,0,0-.316.646.737.737,0,0,0,.387.642,3.654,3.654,0,0,0,1.235.4,10.671,10.671,0,0,1,1.49.378A2.706,2.706,0,0,1-17.2-2.76,2.491,2.491,0,0,1-18.36-.642a5.068,5.068,0,0,1-2.993.817,5.172,5.172,0,0,1-2.18-.439,3.645,3.645,0,0,1-1.494-1.2,2.707,2.707,0,0,1-.536-1.591h2.769a1.145,1.145,0,0,0,.439.962,1.808,1.808,0,0,0,1.081.3,1.422,1.422,0,0,0,.91-.246A.787.787,0,0,0-20.061-2.672ZM-12.7,0h-2.971V-9.51H-12.7Zm-3.146-11.962A1.322,1.322,0,0,1-15.385-13a1.724,1.724,0,0,1,1.187-.4,1.724,1.724,0,0,1,1.187.4,1.322,1.322,0,0,1,.457,1.037,1.322,1.322,0,0,1-.457,1.037,1.724,1.724,0,0,1-1.187.4,1.724,1.724,0,0,1-1.187-.4A1.322,1.322,0,0,1-15.842-11.962Zm9.949,9.29a.684.684,0,0,0-.4-.606,6.016,6.016,0,0,0-1.5-.475A6.853,6.853,0,0,1-9.62-4.4a3.062,3.062,0,0,1-1.1-.971A2.319,2.319,0,0,1-11.1-6.68a2.628,2.628,0,0,1,1.081-2.158,4.453,4.453,0,0,1,2.83-.848,4.934,4.934,0,0,1,3.023.853A2.666,2.666,0,0,1-3.019-6.592H-5.99q0-1.143-1.2-1.143a1.194,1.194,0,0,0-.782.259.8.8,0,0,0-.316.646.737.737,0,0,0,.387.642,3.654,3.654,0,0,0,1.235.4,10.671,10.671,0,0,1,1.49.378A2.706,2.706,0,0,1-3.037-2.76,2.491,2.491,0,0,1-4.192-.642,5.068,5.068,0,0,1-7.185.176a5.172,5.172,0,0,1-2.18-.439,3.645,3.645,0,0,1-1.494-1.2A2.707,2.707,0,0,1-11.4-3.05h2.769a1.145,1.145,0,0,0,.439.962,1.808,1.808,0,0,0,1.081.3A1.422,1.422,0,0,0-6.2-2.03.787.787,0,0,0-5.893-2.672Zm8.35-2.18A5.709,5.709,0,0,1,3.441-8.4,3.233,3.233,0,0,1,6.157-9.686a2.761,2.761,0,0,1,2.338,1.2l.211-1.02h2.566V3.656H8.3V-.791A2.757,2.757,0,0,1,6.139.176,3.2,3.2,0,0,1,3.454-1.129,6.027,6.027,0,0,1,2.457-4.852Zm2.962.185q0,2.558,1.477,2.558A1.43,1.43,0,0,0,8.3-2.883V-6.645A1.4,1.4,0,0,0,6.913-7.4q-1.38,0-1.485,2.206ZM18.611-1.028a3.054,3.054,0,0,1-2.54,1.2A3,3,0,0,1,13.7-.734a3.826,3.826,0,0,1-.8-2.615V-9.51H15.86v6.179a1.065,1.065,0,0,0,1.187,1.222,1.548,1.548,0,0,0,1.45-.729V-9.51h2.979V0H18.7ZM26.328,0H23.348V-9.51h2.979ZM25.22-13.324h3.129l-2.443,2.76-2.417,0ZM31.03-9.51l.1,1.116a3.27,3.27,0,0,1,2.716-1.292,2.407,2.407,0,0,1,2.435,1.433,3.165,3.165,0,0,1,2.795-1.433q2.892,0,2.971,3.5V0H39.072V-6a1.813,1.813,0,0,0-.246-1.063,1.048,1.048,0,0,0-.9-.334,1.4,1.4,0,0,0-1.31.782l.009.123V0H33.658V-5.985a1.906,1.906,0,0,0-.237-1.081,1.045,1.045,0,0,0-.905-.334,1.42,1.42,0,0,0-1.3.782V0H28.252V-9.51ZM46.859,0H43.888V-9.51h2.971ZM43.712-11.962A1.322,1.322,0,0,1,44.169-13a1.724,1.724,0,0,1,1.187-.4,1.724,1.724,0,0,1,1.187.4A1.322,1.322,0,0,1,47-11.962a1.322,1.322,0,0,1-.457,1.037,1.724,1.724,0,0,1-1.187.4,1.724,1.724,0,0,1-1.187-.4A1.322,1.322,0,0,1,43.712-11.962ZM52.7-2.109a1.317,1.317,0,0,0,.967-.338A1.241,1.241,0,0,0,54-3.393h2.777A3.288,3.288,0,0,1,55.661-.826a4.168,4.168,0,0,1-2.887,1,4.22,4.22,0,0,1-3.27-1.3,5.125,5.125,0,0,1-1.2-3.6v-.123A5.792,5.792,0,0,1,48.841-7.4a3.872,3.872,0,0,1,1.534-1.7,4.573,4.573,0,0,1,2.373-.593,4.116,4.116,0,0,1,2.944,1.028,3.647,3.647,0,0,1,1.09,2.786H54A1.626,1.626,0,0,0,53.644-7a1.244,1.244,0,0,0-.967-.4q-1.151,0-1.345,1.468a10.357,10.357,0,0,0-.062,1.283,4.068,4.068,0,0,0,.343,1.986A1.187,1.187,0,0,0,52.7-2.109Zm4.957-2.733a5.613,5.613,0,0,1,.554-2.536,3.96,3.96,0,0,1,1.591-1.709,4.791,4.791,0,0,1,2.435-.6,4.373,4.373,0,0,1,3.366,1.323,5.076,5.076,0,0,1,1.23,3.6v.105A4.925,4.925,0,0,1,65.6-1.129,4.384,4.384,0,0,1,62.257.176,4.434,4.434,0,0,1,59-1.042a4.761,4.761,0,0,1-1.327-3.3Zm2.962.185a3.538,3.538,0,0,0,.413,1.934,1.376,1.376,0,0,0,1.222.615q1.582,0,1.617-2.435v-.3q0-2.558-1.635-2.558-1.485,0-1.608,2.206Z" transform="translate(390.832 619)" fill="#12263f"/>
      <path id="Trazado_725297" data-name="Trazado 725297" d="M65,0A65,65,0,1,1,0,65,65,65,0,0,1,65,0Z" transform="translate(322.832 433)" fill="#f7c773" opacity="0.4"/>
      <path id="Trazado_704593" data-name="Trazado 704593" d="M119.981,32h55.2v72.286h-55.2Z" transform="translate(247.963 431.967)" fill="#e6e6e6"/>
      <path id="Trazado_704594" data-name="Trazado 704594" d="M207.981,8h23.657v7.886H207.981Z" transform="translate(174.42 452.024)" fill="#0071bc"/>
      <path id="Trazado_704595" data-name="Trazado 704595" d="M231.981,304H260.9l-2.629,5.257V331.6H231.981Z" transform="translate(154.361 204.653)" fill="#f7931e"/>
      <path id="Trazado_704599" data-name="Trazado 704599" d="M17.006,71.945a4.206,4.206,0,0,0,3.212,6.913H88.3a1.314,1.314,0,0,0,1.314-1.314V5.257A1.314,1.314,0,0,0,88.3,3.943H72.527V1.314A1.314,1.314,0,0,0,71.213,0H47.555a1.314,1.314,0,0,0-1.314,1.314V3.943H33.1a1.314,1.314,0,0,0-1.314,1.314V27.6H29.155a1.314,1.314,0,0,0-1.314,1.314v5.257a1.314,1.314,0,0,0,1.314,1.314H30.47V56.034Zm3.212,4.285a1.577,1.577,0,0,1-1.2-2.587l2.251-2.671H37.041V68.343H23.5l2.224-2.629h20l6.7,7.929a1.571,1.571,0,0,1-1.2,2.585Zm49.68,0V60.458H67.27V76.229H55.13a4.173,4.173,0,0,0-.682-4.285l-1.635-1.932V51.258H78.286l-1.678,3.355a1.314,1.314,0,0,0-.138.587H72.527v2.629H76.47v2.629H72.527v2.629H76.47v2.629H72.527v2.629H76.47v2.629H72.527V73.6H76.47v2.629ZM48.87,2.629H69.9V7.886H48.87V2.629ZM34.412,6.571H46.241V9.2a1.314,1.314,0,0,0,1.314,1.314H71.213A1.314,1.314,0,0,0,72.527,9.2V6.571H86.984V76.229H79.1V55.511l2.5-4.98a1.314,1.314,0,0,0-1.183-1.9H51.5a1.314,1.314,0,0,0-1.314,1.314V66.907l-9.2-10.873V35.486H42.3a1.314,1.314,0,0,0,1.314-1.314V28.915A1.314,1.314,0,0,0,42.3,27.6H34.412V6.571ZM30.47,30.229H40.984v2.629H30.47Zm7.886,5.257V56.515a1.315,1.315,0,0,0,.311.849l4.842,5.722H27.945l4.842-5.722a1.315,1.315,0,0,0,.311-.849V51.258h2.629V48.629H33.1V46h2.629V43.372H33.1V40.743h2.629V38.115H33.1V35.486Z" transform="translate(334.846 458.71)"/>
      <path id="Trazado_704601" data-name="Trazado 704601" d="M327.981,336h2.629v2.629h-2.629Z" transform="translate(74.133 177.91)"/>
      <path id="Trazado_704602" data-name="Trazado 704602" d="M207.981,102.457h3.633l4.253,2.127v3.131H218.5v-3.131l3.943-1.971,3.943,1.971v3.131h2.629v-3.131l4.53-2.258a1.314,1.314,0,0,0,.727-1.183V95.886H236.9V93.257h-3.633l-4.253-2.127V88h-2.629v3.131L222.438,93.1,218.5,91.131V88h-2.629v3.131l-4.53,2.265a1.315,1.315,0,0,0-.727,1.176v5.257h-2.629Zm23.657-2.127L227.7,102.3l-3.943-1.971V95.384l3.943-1.971,3.943,1.971Zm-18.4-4.947,3.943-1.971,3.943,1.971v4.947l-3.943,1.971-3.943-1.971Z" transform="translate(174.42 385.167)"/>
      <path id="Trazado_704603" data-name="Trazado 704603" d="M191.981,256h32.857v2.629H191.981Z" transform="translate(187.791 244.768)"/>
      <path id="Trazado_704604" data-name="Trazado 704604" d="M239.981,224H270.21v2.629H239.981Z" transform="translate(147.676 271.511)"/>
      <path id="Trazado_704608" data-name="Trazado 704608" d="M375.981,80h2.629v2.629h-2.629Z" transform="translate(34.02 391.853)"/>
      <path id="Trazado_704609" data-name="Trazado 704609" d="M407.981,80h2.629v2.629h-2.629Z" transform="translate(7.277 391.853)"/>
    </g>
    <g id="Grupo_957799" data-name="Grupo 957799" transform="translate(259.543 -342)">
      <path id="Trazado_725298" data-name="Trazado 725298" d="M10,0H220a10,10,0,0,1,10,10V220a10,10,0,0,1-10,10H10A10,10,0,0,1,0,220V10A10,10,0,0,1,10,0Z" transform="translate(21.832 409)" fill="#fff"/>
      <path id="Trazado_725299" data-name="Trazado 725299" d="M0,0H230V40a10,10,0,0,1-10,10H10A10,10,0,0,1,0,40Z" transform="translate(21.832 589)" fill="#badc61"/>
      <path id="Trazado_725300" data-name="Trazado 725300" d="M-28.6-12.8l2.856,8.9,2.848-8.9h4.061V0h-3.094V-2.988l.3-6.117L-24.724,0h-2.039l-3.1-9.114.3,6.126V0h-3.085V-12.8ZM-11.347-1.028a3.054,3.054,0,0,1-2.54,1.2,3,3,0,0,1-2.369-.91,3.826,3.826,0,0,1-.8-2.615V-9.51H-14.1v6.179a1.065,1.065,0,0,0,1.187,1.222,1.548,1.548,0,0,0,1.45-.729V-9.51h2.979V0h-2.777Zm9.088,1.2A4.889,4.889,0,0,1-5.8-1.129a4.507,4.507,0,0,1-1.354-3.4v-.246a5.84,5.84,0,0,1,.541-2.575A3.955,3.955,0,0,1-5.036-9.075a4.763,4.763,0,0,1,2.461-.611A4.117,4.117,0,0,1,.589-8.442a4.887,4.887,0,0,1,1.16,3.467v1.151H-4.14a2.135,2.135,0,0,0,.694,1.257,2.066,2.066,0,0,0,1.389.457,2.662,2.662,0,0,0,2.2-.984l1.354,1.6A3.784,3.784,0,0,1-.075-.277,5.3,5.3,0,0,1-2.259.176ZM-2.593-7.4q-1.3,0-1.547,1.723h2.988v-.229a1.467,1.467,0,0,0-.36-1.1A1.434,1.434,0,0,0-2.593-7.4ZM7.919-2.672a.684.684,0,0,0-.4-.606,6.016,6.016,0,0,0-1.5-.475A6.853,6.853,0,0,1,4.192-4.4a3.062,3.062,0,0,1-1.1-.971,2.319,2.319,0,0,1-.378-1.31A2.628,2.628,0,0,1,3.8-8.837a4.453,4.453,0,0,1,2.83-.848,4.934,4.934,0,0,1,3.023.853,2.666,2.666,0,0,1,1.143,2.241H7.822q0-1.143-1.2-1.143a1.194,1.194,0,0,0-.782.259.8.8,0,0,0-.316.646.737.737,0,0,0,.387.642,3.654,3.654,0,0,0,1.235.4,10.671,10.671,0,0,1,1.49.378A2.706,2.706,0,0,1,10.775-2.76,2.491,2.491,0,0,1,9.62-.642,5.068,5.068,0,0,1,6.627.176a5.172,5.172,0,0,1-2.18-.439,3.645,3.645,0,0,1-1.494-1.2A2.707,2.707,0,0,1,2.417-3.05H5.186a1.145,1.145,0,0,0,.439.962,1.808,1.808,0,0,0,1.081.3,1.422,1.422,0,0,0,.91-.246A.787.787,0,0,0,7.919-2.672Zm7.69-9.2V-9.51h1.564v2.057H15.609V-3.1a1.111,1.111,0,0,0,.193.747,1.037,1.037,0,0,0,.765.211,4.345,4.345,0,0,0,.738-.053V-.079a5.466,5.466,0,0,1-1.67.255,3.1,3.1,0,0,1-2.259-.721,2.954,2.954,0,0,1-.729-2.188v-4.72H11.435V-9.51h1.213v-2.364Zm8.481,5.045-.976-.07a1.752,1.752,0,0,0-1.793.879V0H18.36V-9.51h2.777l.1,1.222a2.294,2.294,0,0,1,2.083-1.4,2.888,2.888,0,0,1,.826.105ZM30.252,0a3.344,3.344,0,0,1-.281-.853A2.754,2.754,0,0,1,27.686.176,3.374,3.374,0,0,1,25.4-.637a2.588,2.588,0,0,1-.94-2.043A2.66,2.66,0,0,1,25.6-5.019a5.821,5.821,0,0,1,3.322-.791h.914v-.5q0-1.316-1.134-1.316A.927.927,0,0,0,27.65-6.587H24.688a2.655,2.655,0,0,1,1.173-2.239,4.931,4.931,0,0,1,2.993-.86,4.323,4.323,0,0,1,2.874.888A3.086,3.086,0,0,1,32.81-6.363v4.21a4.311,4.311,0,0,0,.4,2V0ZM28.4-1.934a1.652,1.652,0,0,0,.918-.237,1.487,1.487,0,0,0,.523-.536V-4.228h-.861q-1.547,0-1.547,1.389a.848.848,0,0,0,.272.655A.986.986,0,0,0,28.4-1.934Z" transform="translate(136.832 620)" fill="#12263f"/>
      <path id="Trazado_725301" data-name="Trazado 725301" d="M65,0A65,65,0,1,1,0,65,65,65,0,0,1,65,0Z" transform="translate(68.832 433)" fill="#f7c773" opacity="0.4"/>
      <g id="flat_final" data-name="flat final" transform="translate(89.771 468.789)">
        <path id="Trazado_704445" data-name="Trazado 704445" d="M120.565,158.547c.135-.162.409-.01.588-.03,1.277-.143,2.8-1.293,4.061-3.076s1.855-3.592,1.572-4.835a52.168,52.168,0,0,0-3.125-7.548l-.17-.342s-.779-.06-1.813-.06c-.732,0-1.621.013-2.641.04-2.7.07-6.974.63-8.219.8a1.788,1.788,0,0,0-.9.4c-.445.371-1.93,1.609-3.835,3.191l-2.987,4.91s-7.922,7.851-9.243,9.884a3.6,3.6,0,0,0,.665,4.8c1.184.823,3.753.731,5.913-1.753,1.3-1.5,1.8-1.557,1.8-1.557s-2.268,3.35-2.6,5.329a3.344,3.344,0,0,0,1.712,3.869c1.233.591,3.434.095,5.065-2.157l.131-.18a4.679,4.679,0,0,0-.365,1.537,3,3,0,0,0,2.207,3.185c1.232.308,3.18-.543,4.316-2.876.907-1.863,2.576-4.855,2.576-4.855S118.639,160.861,120.565,158.547Z" transform="translate(-75.89 -133.313)" fill="#ffc7b5"/>
        <path id="Trazado_704446" data-name="Trazado 704446" d="M118.806,110.667S106.571,90.75,104.892,88.586c-1.071-1.38-2.438-1.325-4.827-1.229s-17.118,1.93-17.839,2a7.816,7.816,0,0,0-2.863,1.661c-.795.653-13.7,11.907-15.033,13.4s-3.272,3.6-1.9,5.981c1.471,2.551,4.043,2.686,5.694,1.349,1.577-1.278,14.313-11.734,16.233-13.335a1.106,1.106,0,0,1,.563-.247c1.193-.163,5.465-.725,8.145-.793,3.14-.081,4-.012,4-.012a52.694,52.694,0,0,1,3.072,7.4c.511,2.243-2.719,6.829-5.05,7.09s-7.812-1.49-10.616-2.88l-4.8,9.1c2.99.869,7.559,2.168,8.343,2.414,2.352.739,3.608,1.237,4.313,2.3,1.4,2.117,3.679,6.586,6.849,8.863,4.615,3.313,13.51,3.5,13.51,3.5h.82l12.736-17.725Z" transform="translate(-49.899 -87.314)" fill="#fcd3c4"/>
        <path id="Trazado_704447" data-name="Trazado 704447" d="M347.8,272.12,360.537,254.4l-2.525-2.3-14.172,19.776c1.85.216,3.139.243,3.139.243Z" transform="translate(-284.195 -224.281)" fill="#ffc7b5"/>
        <path id="Trazado_704448" data-name="Trazado 704448" d="M378.441,258.31l-9.488-6.745-16.014,22.347,9.393,6.878h16.109Z" transform="translate(-291.757 -223.837)" fill="#d0e5ff"/>
        <path id="Trazado_704449" data-name="Trazado 704449" d="M126.127,137.491l-2.064,3.94,11.545,6.09,2.065-3.944a.627.627,0,0,0-.263-.846l-10.435-5.5a.627.627,0,0,0-.848.264Z" transform="translate(-101.519 -128.741)" fill="#34507d"/>
        <path id="Trazado_704450" data-name="Trazado 704450" d="M0,0H16.618V36.8A8.309,8.309,0,0,1,0,36.8V0Z" transform="matrix(0.884, 0.467, -0.467, 0.884, 21.064, 11.603)" fill="#d0e5ff"/>
        <path id="Trazado_704451" data-name="Trazado 704451" d="M8.965,290.357a8.309,8.309,0,0,0,14.7,7.754l10.36-19.644H15.236Z" transform="translate(-5.053 -246.196)" fill="#44e444"/>
        <path id="Trazado_704452" data-name="Trazado 704452" d="M120.413,200.215c-2.006-1-6.924-3.089-9.259-3.105-1.5-.01-4.621-.02-5.693,3.613a4.536,4.536,0,0,0,.625,4.123,11.3,11.3,0,0,0,4.567,3.274c1.7.775,3.58.753,5.514,1.366l4.761-9.024C120.747,200.378,120.575,200.3,120.413,200.215Z" transform="translate(-85.864 -178.573)" fill="#fcd3c4"/>
      </g>
      <g id="outline" transform="translate(91.959 467.441)">
        <path id="Trazado_704453" data-name="Trazado 704453" d="M283.414,114.05l-9.488-6.745a1.351,1.351,0,0,0-1.88.314l-.488.682L265.9,103.16c-1.256-2.044-12.255-19.923-13.9-22.039-1.5-1.929-3.461-1.85-5.948-1.75-1.152.046-4.463.365-7.178.648a1.35,1.35,0,1,0,.28,2.686c3.359-.35,6.109-.6,7.006-.636,2.482-.1,3.12-.046,3.706.708,1.293,1.665,9.612,15.092,13.83,21.96a1.347,1.347,0,0,0,.242.292l6.028,5.482-2.334,3.258a1.351,1.351,0,1,0,2.2,1.573l3.623-5.057,8.39,5.965a1.35,1.35,0,1,0,1.566-2.2Z" transform="translate(-197.547 -79.329)"/>
        <path id="Trazado_704454" data-name="Trazado 704454" d="M69.771,142.016l-8.314-6.089,8.5-11.864a1.351,1.351,0,1,0-2.2-1.574l-7.251,10.118c-2.12-.123-8.54-.695-12.051-3.215-2.319-1.665-4.186-4.73-5.548-6.967-.345-.567-.671-1.1-.962-1.542-1.079-1.633-2.892-2.192-6.185-3.205-.49-.151-9.568-2.012-12.02-3.21a10.623,10.623,0,0,1-4.027-2.827,3.2,3.2,0,0,1-.43-2.959c.727-2.463,2.566-2.654,4.388-2.645,1.792.012,6.185,1.729,8.667,2.964,2.533,1.26,8.506,3.346,11.392,3.024,2.112-.237,3.876-2.426,4.536-3.356.516-.726,2.161-3.26,1.68-5.376a52.735,52.735,0,0,0-3.179-7.7,1.351,1.351,0,0,0-1.1-.745c-.1-.008-1.024-.072-4.145.008-3.181.082-8.4.82-8.619.851a1.351,1.351,0,0,0-.675.3l-1.117.931-5.827-3.073c1.762-1.541,3.108-2.707,3.429-2.971a9.494,9.494,0,0,1,2.363-1.4c.411-.113,2.359-.405,6.594-.886a1.351,1.351,0,0,0-.305-2.684c-3.949.449-6.306.774-7,.965A11.554,11.554,0,0,0,27,88.809c-.7.574-13.755,11.948-15.183,13.546-1.4,1.572-3.756,4.2-2.1,7.489a5.531,5.531,0,0,0,1.075,1.483L1.116,129.681A9.659,9.659,0,0,0,18.2,138.694l6.187-11.729a3.843,3.843,0,0,0,.686.062,5.1,5.1,0,0,0,2.508-.716,3.688,3.688,0,0,0,2.733,2.664,3.536,3.536,0,0,0,.856.1,6.413,6.413,0,0,0,5.29-3.525c.618-1.1,1.62-2.859,2.256-3.973a2.436,2.436,0,0,1,.979.794c.263.4.562.89.908,1.458,1.483,2.436,3.515,5.772,6.28,7.757,3.371,2.42,8.679,3.283,11.786,3.588l-.19.265a1.351,1.351,0,0,0,.3,1.876l9.393,6.878a1.351,1.351,0,1,0,1.594-2.179ZM47.294,104.531a7.2,7.2,0,0,1-1.222,2.575,5.211,5.211,0,0,1-2.636,2.236c-1.614.181-5.71-.965-8.6-2.175l.108-.205,2.769-1.714Zm-5.7-6.972c1.543-.04,2.525-.043,3.112-.036.545,1.135,1.345,2.87,1.93,4.348l-9.459.708a1.349,1.349,0,0,0-.61.2l-2.13,1.319,1.6-3.032a1.351,1.351,0,0,0-.564-1.825l-1.739-.917c1.333-.18,5.353-.7,7.862-.763ZM33.02,101l-.983,1.863-9.156-4.83.983-1.863Zm-20.885,7.629c-.769-1.525.219-2.816,1.7-4.474.2-.229.746-.744,1.507-1.444l-3.164,6C12.164,108.682,12.149,108.656,12.135,108.628Zm3.68,28.806a6.958,6.958,0,1,1-12.309-6.493L20.044,99.589l11.548,6.092c-2.374-1.032-5.832-2.33-7.895-2.344-1.54-.01-5.634-.038-7,4.581a5.858,5.858,0,0,0,.818,5.287,12.7,12.7,0,0,0,5.107,3.721c.111.051.222.1.333.146H13.367a1.351,1.351,0,0,0,0,2.7H25.132ZM27.841,122.5a5.041,5.041,0,0,1-1.957,1.64l2.9-5.5,1.668.352S28.437,121.708,27.841,122.5Zm6.266,1.735c-1,1.781-2.558,2.267-3.134,2.124-.265-.067-.97-.243-.864-1.673a4.2,4.2,0,0,1,.229-1.012c.839-1.118,2.925-3.94,2.925-3.94l2.89.9s-1.491,2.614-2.045,3.6Z" transform="translate(0.001 -84.803)"/>
      </g>
    </g>
    <g id="Grupo_957806" data-name="Grupo 957806" transform="translate(918.938 50.5) rotate(90)">
      <path id="Icon_awesome-arrow-circle-right-2" data-name="Icon awesome-arrow-circle-right" d="M18,.563A17.438,17.438,0,1,1,.563,18,17.434,17.434,0,0,1,18,.563Zm-2.032,10.1,5.309,5.091H8.438A1.683,1.683,0,0,0,6.75,17.438v1.125A1.683,1.683,0,0,0,8.438,20.25H21.277l-5.309,5.091a1.689,1.689,0,0,0-.028,2.412l.773.766a1.681,1.681,0,0,0,2.384,0l9.33-9.323a1.681,1.681,0,0,0,0-2.384L19.1,7.474a1.681,1.681,0,0,0-2.384,0l-.773.766a1.7,1.7,0,0,0,.028,2.419Z" transform="translate(245.938 504.563)" fill="#0e494d"/>
    </g>
    <g id="Grupo_957807" data-name="Grupo 957807" transform="translate(918.938 312.625) rotate(90)">
      <path id="Icon_awesome-arrow-circle-right-3" data-name="Icon awesome-arrow-circle-right" d="M18,.563A17.438,17.438,0,1,1,.563,18,17.434,17.434,0,0,1,18,.563Zm-2.032,10.1,5.309,5.091H8.438A1.683,1.683,0,0,0,6.75,17.438v1.125A1.683,1.683,0,0,0,8.438,20.25H21.277l-5.309,5.091a1.689,1.689,0,0,0-.028,2.412l.773.766a1.681,1.681,0,0,0,2.384,0l9.33-9.323a1.681,1.681,0,0,0,0-2.384L19.1,7.474a1.681,1.681,0,0,0-2.384,0l-.773.766a1.7,1.7,0,0,0,.028,2.419Z" transform="translate(245.938 504.563)" fill="#0e494d"/>
    </g>
  </g>
</svg>
