<svg xmlns="http://www.w3.org/2000/svg" xmlns:xlink="http://www.w3.org/1999/xlink" width="130" height="130" viewBox="0 0 130 130">
  <defs>
    <clipPath id="clip-path">
      <rect id="Rectángulo_339950" data-name="Rectángulo 339950" width="67.676" height="76.493" fill="none"/>
    </clipPath>
  </defs>
  <g id="Grupo_957789" data-name="Grupo 957789" transform="translate(-893 -2266)">
    <circle id="Elipse_6687" data-name="Elipse 6687" cx="65" cy="65" r="65" transform="translate(893 2266)" fill="#fce9c7"/>
    <g id="Grupo_957676" data-name="Grupo 957676" transform="translate(924 2293)">
      <g id="Grupo_957675" data-name="Grupo 957675" transform="translate(0)" clip-path="url(#clip-path)">
        <path id="Trazado_725222" data-name="Trazado 725222" d="M59.86,39.752v37.06A14.179,14.179,0,0,1,45.682,90.991H24.375A14.179,14.179,0,0,1,10.2,76.812V39.784A2.524,2.524,0,0,0,7.673,37.26,5.174,5.174,0,0,1,2.5,32.087v-.07a5.174,5.174,0,0,1,5.174-5.173H62.9a5.173,5.173,0,0,1,5.173,5.174v.03a5.173,5.173,0,0,1-5.106,5.172l-.614.008a2.524,2.524,0,0,0-2.491,2.524" transform="translate(-1.447 -15.549)" fill="#fff"/>
        <path id="Trazado_725223" data-name="Trazado 725223" d="M108.158,26.843H80.637V90.99h10.3a14.178,14.178,0,0,0,14.178-14.178V39.751a2.524,2.524,0,0,1,2.492-2.523l.613-.008a5.173,5.173,0,0,0,5.106-5.172v-.03a5.173,5.173,0,0,0-5.173-5.174" transform="translate(-46.707 -15.548)" fill="#e5e6e7"/>
        <path id="Trazado_725224" data-name="Trazado 725224" d="M27.98,94.664V114.5a12.452,12.452,0,0,0,12.451,12.452H59.143A12.452,12.452,0,0,0,71.594,114.5V94.664Z" transform="translate(-16.207 -54.832)" fill="#296"/>
        <path id="Trazado_725225" data-name="Trazado 725225" d="M29.595,151.435a12.455,12.455,0,0,0,11.772,8.4H60.079a12.455,12.455,0,0,0,11.772-8.4Z" transform="translate(-17.142 -87.715)" fill="#106e44"/>
        <path id="Trazado_725226" data-name="Trazado 725226" d="M111.78,137.332a.842.842,0,0,1-.454-1.551c3.543-2.26,5.123-5.28,5.123-9.791v-7.083a.842.842,0,0,1,1.683,0v7.083c0,5.08-1.875,8.641-5.9,11.21a.844.844,0,0,1-.452.132" transform="translate(-64.258 -68.386)" fill="#fff"/>
        <path id="Trazado_725227" data-name="Trazado 725227" d="M44.234,90.594H22.927A15.247,15.247,0,0,1,7.7,75.364V38.336a1.473,1.473,0,0,0-1.472-1.472A6.232,6.232,0,0,1,0,30.638v-.069a6.232,6.232,0,0,1,6.225-6.225H61.451a6.226,6.226,0,0,1,6.225,6.226,6.256,6.256,0,0,1-6.145,6.254l-.613.008A1.478,1.478,0,0,0,59.464,38.3v37.06a15.247,15.247,0,0,1-15.23,15.23M6.225,26.448A4.126,4.126,0,0,0,2.1,30.569v.069A4.126,4.126,0,0,0,6.225,34.76,3.58,3.58,0,0,1,9.8,38.336V75.364A13.141,13.141,0,0,0,22.927,88.49H44.234A13.141,13.141,0,0,0,57.36,75.364V38.3a3.59,3.59,0,0,1,3.53-3.576l.613-.008a4.136,4.136,0,0,0-.053-8.272Z" transform="translate(0 -14.101)" fill="#272525"/>
        <path id="Trazado_725228" data-name="Trazado 725228" d="M95.026,39.206a1.04,1.04,0,0,1-.433-.095,1.051,1.051,0,0,1-.523-1.392L110.9.618a1.052,1.052,0,1,1,1.915.868l-16.827,37.1a1.052,1.052,0,0,1-.959.618" transform="translate(-54.433 0)" fill="#272525"/>
        <path id="Trazado_725229" data-name="Trazado 725229" d="M52.62,46.192H43.862a1.052,1.052,0,0,1,0-2.1H52.62a1.052,1.052,0,0,1,0,2.1" transform="translate(-24.797 -25.537)" fill="#272525"/>
        <path id="Trazado_725230" data-name="Trazado 725230" d="M52.62,66.171H43.862a1.052,1.052,0,0,1,0-2.1H52.62a1.052,1.052,0,1,1,0,2.1" transform="translate(-24.797 -37.109)" fill="#272525"/>
        <path id="Trazado_725231" data-name="Trazado 725231" d="M52.62,86.151H43.862a1.052,1.052,0,0,1,0-2.1H52.62a1.052,1.052,0,1,1,0,2.1" transform="translate(-24.797 -48.682)" fill="#272525"/>
        <path id="Trazado_725232" data-name="Trazado 725232" d="M52.62,106.13H43.862a1.052,1.052,0,0,1,0-2.1H52.62a1.052,1.052,0,1,1,0,2.1" transform="translate(-24.797 -60.255)" fill="#272525"/>
        <path id="Trazado_725233" data-name="Trazado 725233" d="M52.62,126.11H43.862a1.052,1.052,0,1,1,0-2.1H52.62a1.052,1.052,0,1,1,0,2.1" transform="translate(-24.797 -71.828)" fill="#272525"/>
        <path id="Trazado_725234" data-name="Trazado 725234" d="M52.62,146.089H43.862a1.052,1.052,0,0,1,0-2.1H52.62a1.052,1.052,0,0,1,0,2.1" transform="translate(-24.797 -83.4)" fill="#272525"/>
      </g>
    </g>
  </g>
</svg>
