<svg xmlns="http://www.w3.org/2000/svg" xmlns:xlink="http://www.w3.org/1999/xlink" width="130" height="130" viewBox="0 0 130 130">
  <defs>
    <clipPath id="clip-path">
      <rect id="Rectángulo_339951" data-name="Rectángulo 339951" width="67.676" height="76.493" fill="none"/>
    </clipPath>
  </defs>
  <g id="Grupo_957790" data-name="Grupo 957790" transform="translate(-1208 -2266)">
    <circle id="Elipse_6688" data-name="Elipse 6688" cx="65" cy="65" r="65" transform="translate(1208 2266)" fill="#fce9c7"/>
    <g id="Grupo_957678" data-name="Grupo 957678" transform="translate(1239 2293)">
      <g id="Grupo_957677" data-name="Grupo 957677" clip-path="url(#clip-path)">
        <path id="Trazado_725235" data-name="Trazado 725235" d="M59.86,39.752v37.06A14.179,14.179,0,0,1,45.682,90.991H24.375A14.179,14.179,0,0,1,10.2,76.812V39.784A2.524,2.524,0,0,0,7.673,37.26,5.174,5.174,0,0,1,2.5,32.087v-.07a5.174,5.174,0,0,1,5.174-5.173H62.9a5.173,5.173,0,0,1,5.173,5.174v.03a5.173,5.173,0,0,1-5.106,5.172l-.614.008a2.524,2.524,0,0,0-2.491,2.524" transform="translate(-1.447 -15.549)" fill="#fff"/>
        <path id="Trazado_725236" data-name="Trazado 725236" d="M108.158,26.843H80.637V90.99h10.3a14.178,14.178,0,0,0,14.178-14.178V39.751a2.524,2.524,0,0,1,2.492-2.523l.613-.008a5.173,5.173,0,0,0,5.106-5.172v-.03a5.173,5.173,0,0,0-5.173-5.174" transform="translate(-46.707 -15.548)" fill="#e5e6e7"/>
        <path id="Trazado_725237" data-name="Trazado 725237" d="M27.98,94.664V114.5a12.452,12.452,0,0,0,12.451,12.452H59.143A12.452,12.452,0,0,0,71.594,114.5V94.664Z" transform="translate(-16.207 -54.832)" fill="#106e44"/>
        <path id="Trazado_725238" data-name="Trazado 725238" d="M27.98,110.664v13.1a12.452,12.452,0,0,0,12.451,12.452H59.143a12.452,12.452,0,0,0,12.451-12.452v-13.1Z" transform="translate(-16.207 -64.099)" fill="#084628"/>
        <path id="Trazado_725239" data-name="Trazado 725239" d="M111.78,137.332a.842.842,0,0,1-.454-1.551c3.543-2.26,5.123-5.28,5.123-9.791v-7.083a.842.842,0,0,1,1.683,0v7.083c0,5.08-1.875,8.641-5.9,11.21a.844.844,0,0,1-.452.132" transform="translate(-64.258 -68.386)" fill="#fff"/>
        <path id="Trazado_725240" data-name="Trazado 725240" d="M44.234,90.594H22.927A15.247,15.247,0,0,1,7.7,75.364V38.336a1.473,1.473,0,0,0-1.472-1.472A6.232,6.232,0,0,1,0,30.638v-.069a6.232,6.232,0,0,1,6.225-6.225H61.451a6.226,6.226,0,0,1,6.225,6.226,6.256,6.256,0,0,1-6.145,6.254l-.613.008A1.478,1.478,0,0,0,59.464,38.3v37.06a15.247,15.247,0,0,1-15.23,15.23M6.225,26.448A4.126,4.126,0,0,0,2.1,30.569v.069A4.126,4.126,0,0,0,6.225,34.76,3.58,3.58,0,0,1,9.8,38.336V75.364A13.141,13.141,0,0,0,22.927,88.49H44.234A13.141,13.141,0,0,0,57.36,75.364V38.3a3.59,3.59,0,0,1,3.53-3.576l.613-.008a4.136,4.136,0,0,0-.053-8.272Z" transform="translate(0 -14.101)" fill="#272525"/>
        <path id="Trazado_725241" data-name="Trazado 725241" d="M95.026,39.206a1.04,1.04,0,0,1-.433-.095,1.051,1.051,0,0,1-.523-1.392L110.9.618a1.052,1.052,0,1,1,1.915.868l-16.827,37.1a1.052,1.052,0,0,1-.959.618" transform="translate(-54.433 0)" fill="#272525"/>
        <path id="Trazado_725242" data-name="Trazado 725242" d="M52.62,46.192H43.862a1.052,1.052,0,0,1,0-2.1H52.62a1.052,1.052,0,0,1,0,2.1" transform="translate(-24.797 -25.537)" fill="#272525"/>
        <path id="Trazado_725243" data-name="Trazado 725243" d="M52.62,66.171H43.862a1.052,1.052,0,0,1,0-2.1H52.62a1.052,1.052,0,1,1,0,2.1" transform="translate(-24.797 -37.109)" fill="#272525"/>
        <path id="Trazado_725244" data-name="Trazado 725244" d="M52.62,86.151H43.862a1.052,1.052,0,0,1,0-2.1H52.62a1.052,1.052,0,1,1,0,2.1" transform="translate(-24.797 -48.682)" fill="#272525"/>
        <path id="Trazado_725245" data-name="Trazado 725245" d="M52.62,106.13H43.862a1.052,1.052,0,0,1,0-2.1H52.62a1.052,1.052,0,1,1,0,2.1" transform="translate(-24.797 -60.255)" fill="#272525"/>
        <path id="Trazado_725246" data-name="Trazado 725246" d="M52.62,126.11H43.862a1.052,1.052,0,1,1,0-2.1H52.62a1.052,1.052,0,1,1,0,2.1" transform="translate(-24.797 -71.828)" fill="#272525"/>
        <path id="Trazado_725247" data-name="Trazado 725247" d="M52.62,146.089H43.862a1.052,1.052,0,0,1,0-2.1H52.62a1.052,1.052,0,0,1,0,2.1" transform="translate(-24.797 -83.4)" fill="#272525"/>
      </g>
    </g>
  </g>
</svg>
