<svg xmlns="http://www.w3.org/2000/svg" width="130" height="130" viewBox="0 0 130 130">
  <g id="Grupo_957761" data-name="Grupo 957761" transform="translate(-420 -532)">
    <circle id="Elipse_6672" data-name="Elipse 6672" cx="65" cy="65" r="65" transform="translate(420 532)" fill="#fce9c7"/>
    <g id="molecular" transform="translate(453 562)">
      <g id="Grupo_956460" data-name="Grupo 956460">
        <g id="Grupo_956446" data-name="Grupo 956446">
          <path id="Trazado_720763" data-name="Trazado 720763" d="M33.78,39.85l-8.21,4.1a11.046,11.046,0,0,0-1.79-3.58l6.66-3.32a5,5,0,0,0,3.34,2.8Z" fill="#ccd1d9"/>
        </g>
        <g id="Grupo_956447" data-name="Grupo 956447">
          <path id="Trazado_720764" data-name="Trazado 720764" d="M25.71,19.5l12.18,5.33a10.961,10.961,0,0,0-1.59,3.61l-.3-.07-11.9-5.2a10.706,10.706,0,0,0,1.61-3.67Z" fill="#ccd1d9"/>
        </g>
        <g id="Grupo_956448" data-name="Grupo 956448">
          <path id="Trazado_720765" data-name="Trazado 720765" d="M7,4a5,5,0,0,1,4.39,2.6v.01a11.017,11.017,0,0,0-6.78,6.78A5,5,0,0,1,7,4Z" fill="#fc6e51"/>
        </g>
        <g id="Grupo_956449" data-name="Grupo 956449">
          <path id="Trazado_720766" data-name="Trazado 720766" d="M21,2a5,5,0,0,1,3.14,8.89,10.9,10.9,0,0,0-8.05-4.83V6.05A4.993,4.993,0,0,1,21,2Z" fill="#fc6e51"/>
        </g>
        <g id="Grupo_956450" data-name="Grupo 956450">
          <path id="Trazado_720767" data-name="Trazado 720767" d="M57.57,34.04a5,5,0,1,1-5.29,6.61A10.982,10.982,0,0,0,57.57,34.04Z" fill="#fc6e51"/>
        </g>
        <g id="Grupo_956451" data-name="Grupo 956451">
          <path id="Trazado_720768" data-name="Trazado 720768" d="M51,14a5,5,0,0,1,3.29,8.76A10.942,10.942,0,0,0,47,20a8.833,8.833,0,0,0-.89.04A5.1,5.1,0,0,1,46,19,5,5,0,0,1,51,14Z" fill="#fc6e51"/>
        </g>
        <g id="Grupo_956452" data-name="Grupo 956452">
          <path id="Trazado_720769" data-name="Trazado 720769" d="M35,30a4.712,4.712,0,0,1,1,.1h.04c-.03.3-.04.6-.04.9a10.942,10.942,0,0,0,2.76,7.29A4.963,4.963,0,0,1,35,40a4.912,4.912,0,0,1-1.22-.15A5,5,0,0,1,35,30Z" fill="#fc6e51"/>
        </g>
        <g id="Grupo_956453" data-name="Grupo 956453">
          <path id="Trazado_720770" data-name="Trazado 720770" d="M26,57a5,5,0,0,1-9.9,1l-.01-.06a10.936,10.936,0,0,0,8.06-4.83A5,5,0,0,1,26,57Z" fill="#fc6e51"/>
        </g>
        <g id="Grupo_956454" data-name="Grupo 956454">
          <path id="Trazado_720771" data-name="Trazado 720771" d="M11.39,57.39a5,5,0,1,1-6.78-6.78,11.017,11.017,0,0,0,6.78,6.78Z" fill="#fc6e51"/>
        </g>
        <g id="Grupo_956455" data-name="Grupo 956455">
          <path id="Trazado_720772" data-name="Trazado 720772" d="M17.98,27.59c.01.14.02.27.02.41A5,5,0,0,1,8,28a4.937,4.937,0,0,1,.48-2.14,11.012,11.012,0,0,0,9.5,1.73Z" fill="#fc6e51"/>
        </g>
        <g id="Grupo_956456" data-name="Grupo 956456">
          <path id="Trazado_720773" data-name="Trazado 720773" d="M8.93,37.82A11.179,11.179,0,0,0,5.2,41.99a3.5,3.5,0,1,1,3.73-4.17Z" fill="#fc6e51"/>
        </g>
        <g id="Grupo_956457" data-name="Grupo 956457">
          <path id="Trazado_720774" data-name="Trazado 720774" d="M57.57,34.04A11,11,0,0,1,36,31c0-.3.01-.6.04-.9a10.245,10.245,0,0,1,.26-1.66,10.986,10.986,0,0,1,9.81-8.4A8.833,8.833,0,0,1,47,20,11,11,0,0,1,57.57,34.04Z" fill="#ff826e"/>
        </g>
        <g id="Grupo_956458" data-name="Grupo 956458">
          <path id="Trazado_720775" data-name="Trazado 720775" d="M25.57,43.95a10.989,10.989,0,0,1-9.48,13.99A9.818,9.818,0,0,1,15,58a10.772,10.772,0,0,1-3.61-.61,11.017,11.017,0,0,1-6.78-6.78A10.772,10.772,0,0,1,4,47a10.956,10.956,0,0,1,1.2-5.01,11.179,11.179,0,0,1,3.73-4.17,11,11,0,0,1,16.64,6.13Z" fill="#ff826e"/>
        </g>
        <g id="Grupo_956459" data-name="Grupo 956459">
          <path id="Trazado_720776" data-name="Trazado 720776" d="M25.71,19.5a10.706,10.706,0,0,1-1.61,3.67A11,11,0,0,1,4,17a10.772,10.772,0,0,1,.61-3.61,11.017,11.017,0,0,1,6.78-6.78A10.772,10.772,0,0,1,15,6a9.818,9.818,0,0,1,1.09.06A10.985,10.985,0,0,1,25.71,19.5Z" fill="#ff826e"/>
        </g>
      </g>
      <g id="Grupo_956461" data-name="Grupo 956461">
        <path id="Trazado_720777" data-name="Trazado 720777" d="M58.778,33.271a11.9,11.9,0,0,0-3.1-10.531A6,6,0,1,0,45,19c0,.06.008.119.009.179A11.991,11.991,0,0,0,37.572,23.6L26.834,18.9a11.68,11.68,0,0,0-1.423-7.845A5.993,5.993,0,1,0,15.349,5.018C15.232,5.014,15.118,5,15,5a11.942,11.942,0,0,0-3.171.439,6,6,0,1,0-8.39,8.391A11.9,11.9,0,0,0,7.287,26.18a6,6,0,1,0,11.7,2.126A12.034,12.034,0,0,0,24.428,24.4L34.95,29a5.975,5.975,0,0,0-5.742,7.538l-5.173,2.587A11.94,11.94,0,0,0,9.45,36.371a4.489,4.489,0,1,0-5.623,6.283,11.765,11.765,0,0,0-.388,7.517,6,6,0,1,0,8.391,8.39A11.929,11.929,0,0,0,15,59c.119,0,.234-.014.353-.018a5.991,5.991,0,1,0,10.058-6.039,11.893,11.893,0,0,0,1.32-8.454L33.915,40.9A6.065,6.065,0,0,0,35,41a5.992,5.992,0,0,0,3.74-1.318,11.932,11.932,0,0,0,13.068,2.305,6,6,0,1,0,6.97-8.716ZM51,15a4,4,0,0,1,3.186,6.412A11.926,11.926,0,0,0,47,19,4,4,0,0,1,51,15ZM21,3a3.983,3.983,0,0,1,3.228,6.34A12.008,12.008,0,0,0,17.42,5.246,4,4,0,0,1,21,3ZM3,9A4,4,0,0,1,9.837,6.184a12.055,12.055,0,0,0-5.653,5.653A4,4,0,0,1,3,9ZM13,32a4,4,0,0,1-4-4,4.073,4.073,0,0,1,.064-.585,11.686,11.686,0,0,0,7.846,1.418A4,4,0,0,1,13,32Zm2-5A10,10,0,1,1,25,17,10.011,10.011,0,0,1,15,27Zm11.347-6.128,10.1,4.419a11.939,11.939,0,0,0-.794,1.836l-10.1-4.419A12.038,12.038,0,0,0,26.347,20.872ZM3,38.5a2.495,2.495,0,0,1,4.761-1.048,12.053,12.053,0,0,0-3.053,3.41A2.514,2.514,0,0,1,3,38.5ZM7,59a4,4,0,0,1-2.816-6.837,12.055,12.055,0,0,0,5.653,5.653A4,4,0,0,1,7,59ZM5,47A10,10,0,1,1,15,57,10.011,10.011,0,0,1,5,47ZM25,57a3.99,3.99,0,0,1-7.579,1.754,12.005,12.005,0,0,0,6.807-4.094A3.975,3.975,0,0,1,25,57Zm1.135-14.449a11.954,11.954,0,0,0-.9-1.786l4.8-2.4a6.042,6.042,0,0,0,1.469,1.5ZM31,35a4,4,0,0,1,4-4,11.923,11.923,0,0,0,2.412,7.186A4,4,0,0,1,31,35Zm6-4A10,10,0,1,1,47,41,10.011,10.011,0,0,1,37,31ZM57,43a4,4,0,0,1-3.435-1.967A12.048,12.048,0,0,0,58.228,35.2,4,4,0,0,1,57,43Z"/>
        <path id="Trazado_720778" data-name="Trazado 720778" d="M40.143,26.877l1.713,1.032A5.959,5.959,0,0,1,47,25V23a7.944,7.944,0,0,0-6.857,3.877Z"/>
        <path id="Trazado_720779" data-name="Trazado 720779" d="M39,31h2a5.948,5.948,0,0,1,.249-1.714l-1.917-.571A7.994,7.994,0,0,0,39,31Z"/>
        <path id="Trazado_720780" data-name="Trazado 720780" d="M8.143,12.877l1.713,1.032A5.959,5.959,0,0,1,15,11V9A7.944,7.944,0,0,0,8.143,12.877Z"/>
        <path id="Trazado_720781" data-name="Trazado 720781" d="M7,17H9a5.948,5.948,0,0,1,.249-1.714l-1.917-.571A8,8,0,0,0,7,17Z"/>
        <path id="Trazado_720782" data-name="Trazado 720782" d="M8.143,42.877l1.713,1.031A5.96,5.96,0,0,1,15,41V39a7.943,7.943,0,0,0-6.857,3.877Z"/>
        <path id="Trazado_720783" data-name="Trazado 720783" d="M7,47H9a5.953,5.953,0,0,1,.249-1.714l-1.917-.572A8,8,0,0,0,7,47Z"/>
      </g>
    </g>
  </g>
</svg>
