<svg xmlns="http://www.w3.org/2000/svg" width="130" height="130" viewBox="0 0 130 130">
  <g id="Grupo_957762" data-name="Grupo 957762" transform="translate(-1050 -529)">
    <circle id="Elipse_6701" data-name="Elipse 6701" cx="65" cy="65" r="65" transform="translate(1050 529)" fill="#fce9c7"/>
    <g id="atomo" transform="translate(1083 566)">
      <g id="Grupo_956444" data-name="Grupo 956444">
        <g id="Grupo_956430" data-name="Grupo 956430">
          <path id="Trazado_720744" data-name="Trazado 720744" d="M26,34a5.993,5.993,0,0,1,.5-2.4,8.018,8.018,0,0,1-5.64-.24A6.955,6.955,0,0,0,18,37a6.767,6.767,0,0,0,.33,2.12,7,7,0,0,0,3.7,4.22,8.012,8.012,0,0,1,4.63-6.61A5.98,5.98,0,0,1,26,34Z" fill="#b4dd7f"/>
        </g>
        <g id="Grupo_956431" data-name="Grupo 956431">
          <path id="Trazado_720745" data-name="Trazado 720745" d="M40,24a2.811,2.811,0,0,1-.01.29,5.821,5.821,0,0,1-1.54,3.72l-.02.02a5.812,5.812,0,0,1-2.34,1.59A5.934,5.934,0,0,0,32,28a6.12,6.12,0,0,0-1.14.11,7.99,7.99,0,0,0-.46-8.91A6,6,0,0,1,40,24Z" fill="#b4dd7f"/>
        </g>
        <g id="Grupo_956432" data-name="Grupo 956432">
          <path id="Trazado_720746" data-name="Trazado 720746" d="M38.45,28.01l-.02.02a5.812,5.812,0,0,1-2.34,1.59A5.94,5.94,0,0,1,38,34a6,6,0,0,1-2.12,4.58,7.064,7.064,0,0,1,.98,1.32A7.848,7.848,0,0,1,38,44a8,8,0,0,0,.45-15.99Z" fill="#b4dd7f"/>
        </g>
        <g id="Grupo_956433" data-name="Grupo 956433">
          <path id="Trazado_720747" data-name="Trazado 720747" d="M59.86,34.97A3.88,3.88,0,0,1,60,36a4,4,0,0,1-3.24,3.93A4.667,4.667,0,0,1,56,40a4,4,0,1,1,3.86-5.03Z" fill="#ff826e"/>
        </g>
        <g id="Grupo_956434" data-name="Grupo 956434">
          <path id="Trazado_720748" data-name="Trazado 720748" d="M56,46a2.006,2.006,0,0,1-2,2,1.956,1.956,0,0,1-1.2-.41A1.993,1.993,0,0,1,54,44a1.878,1.878,0,0,1,.94.24A1.99,1.99,0,0,1,56,46Z" fill="#ff826e"/>
        </g>
        <g id="Grupo_956435" data-name="Grupo 956435">
          <path id="Trazado_720749" data-name="Trazado 720749" d="M17.91,53.86a4.1,4.1,0,0,1-.54,1.29A3.944,3.944,0,0,1,14,57a4,4,0,0,1-4-4,3.949,3.949,0,0,1,1.36-3,4.081,4.081,0,0,1,1.22-.73A3.941,3.941,0,0,1,14,49a4.015,4.015,0,0,1,3.91,4.86Z" fill="#ff826e"/>
        </g>
        <g id="Grupo_956436" data-name="Grupo 956436">
          <path id="Trazado_720750" data-name="Trazado 720750" d="M11.85,26.08A2.817,2.817,0,0,1,12,27a3,3,0,0,1-5.73,1.24c-.04-.1-.08-.2-.11-.3A2.653,2.653,0,0,1,6,27a2.94,2.94,0,0,1,1.04-2.26v-.01a2.994,2.994,0,0,1,4.81,1.35Z" fill="#ff826e"/>
        </g>
        <g id="Grupo_956437" data-name="Grupo 956437">
          <path id="Trazado_720751" data-name="Trazado 720751" d="M15.72,11.74A2.944,2.944,0,0,1,16,13a3,3,0,0,1-3,3,2.944,2.944,0,0,1-1.26-.28,3,3,0,1,1,3.98-3.98Z" fill="#ff826e"/>
        </g>
        <g id="Grupo_956438" data-name="Grupo 956438">
          <path id="Trazado_720752" data-name="Trazado 720752" d="M52,13a3,3,0,0,1-6,0,3.011,3.011,0,0,1,3-3A3,3,0,0,1,52,13Z" fill="#ff826e"/>
        </g>
        <g id="Grupo_956439" data-name="Grupo 956439">
          <path id="Trazado_720753" data-name="Trazado 720753" d="M48.53,52.07A5.927,5.927,0,0,1,50,56a6,6,0,0,1-11.87,1.26A6.567,6.567,0,0,1,38,56a6,6,0,0,1,10.53-3.93Z" fill="#b4dd7f"/>
        </g>
        <g id="Grupo_956440" data-name="Grupo 956440">
          <path id="Trazado_720754" data-name="Trazado 720754" d="M36.86,39.9c-1.58.06-3.2.1-4.86.1a5.992,5.992,0,0,1-5.34-3.27,8.012,8.012,0,0,0-4.63,6.61Q22,43.67,22,44a8,8,0,0,0,16,0A7.848,7.848,0,0,0,36.86,39.9Z" fill="#fcd770"/>
        </g>
        <g id="Grupo_956441" data-name="Grupo 956441">
          <path id="Trazado_720755" data-name="Trazado 720755" d="M36.09,29.62A5.94,5.94,0,0,1,38,34a6,6,0,1,1-7.14-5.89A6.12,6.12,0,0,1,32,28,5.934,5.934,0,0,1,36.09,29.62Z" fill="#fcd770"/>
        </g>
        <g id="Grupo_956442" data-name="Grupo 956442">
          <path id="Trazado_720756" data-name="Trazado 720756" d="M30.4,19.2a7.99,7.99,0,0,1,.46,8.91A6.023,6.023,0,0,0,26.5,31.6a8.018,8.018,0,0,1-5.64-.24,8.543,8.543,0,0,1-1.66-.96,8,8,0,0,1-3.1-5.18A7.09,7.09,0,0,1,16,24a8,8,0,0,1,14.4-4.8Z" fill="#fcd770"/>
        </g>
        <g id="Grupo_956443" data-name="Grupo 956443">
          <path id="Trazado_720757" data-name="Trazado 720757" d="M37.85,6.67A5.831,5.831,0,0,1,38,8,6,6,0,0,1,26,8a5.831,5.831,0,0,1,.15-1.33,6,6,0,0,1,11.7,0Z" fill="#b4dd7f"/>
        </g>
      </g>
      <g id="Grupo_956445" data-name="Grupo 956445">
        <path id="Trazado_720758" data-name="Trazado 720758" d="M33,31H31v2H29v2h2v2h2V35h2V33H33Z"/>
        <path id="Trazado_720759" data-name="Trazado 720759" d="M29,7h6V9H29Z"/>
        <path id="Trazado_720760" data-name="Trazado 720760" d="M41,55h6v2H41Z"/>
        <path id="Trazado_720761" data-name="Trazado 720761" d="M25,19H23v4H19v2h4v4h2V25h4V23H25Z"/>
        <path id="Trazado_720762" data-name="Trazado 720762" d="M63,32c0-1.816-1.508-3.436-4.446-4.825a26.766,26.766,0,0,0-5.912-12.543A4.047,4.047,0,0,0,53,13a3.991,3.991,0,0,0-6.016-3.448A26.306,26.306,0,0,0,38.63,5.836a6.963,6.963,0,0,0-13.261,0,26.8,26.8,0,0,0-9.417,4.469,4,4,0,1,0-5.65,5.641,26.377,26.377,0,0,0-4.133,8.219l-.129.115v.033A3.952,3.952,0,0,0,5,27c0,.132.019.253.03.379C2.366,28.713,1,30.263,1,32c0,1.816,1.507,3.435,4.446,4.824a26.685,26.685,0,0,0,5.605,12.17c-.116.085-.239.157-.348.252a5,5,0,1,0,7.508,6.447c.077-.118.138-.245.2-.37A26.949,26.949,0,0,0,32,59a26.454,26.454,0,0,0,5.448-.57A6.993,6.993,0,0,0,51,56a6.963,6.963,0,0,0-1.119-3.785,26.823,26.823,0,0,0,3.194-3.365A2.938,2.938,0,0,0,54,49a3,3,0,0,0,2.2-5.035,25.747,25.747,0,0,0,1.339-3.223A5,5,0,0,0,61,36a4.837,4.837,0,0,0-.039-.592A4.391,4.391,0,0,0,63,32ZM51,36a4.95,4.95,0,0,0,.134,1.124c-1.367.308-2.82.581-4.35.816a8.978,8.978,0,0,0-6.6-10.672,6.883,6.883,0,0,0,.683-1.908c6.487.541,12.19,1.689,15.883,3.2a24.776,24.776,0,0,1,.217,2.546A4.95,4.95,0,0,0,51,36ZM38.929,42.931a9.017,9.017,0,0,0-.515-2.121c1.719-.1,3.4-.235,5.025-.412a6.994,6.994,0,0,1-4.51,2.533ZM37,44a7,7,0,1,1-13.152-3.3c1.672.123,3.394.207,5.152.253V43H25v2h4v4h2V45h4V43H31V40.991c.333,0,.665.009,1,.009,1.444,0,2.869-.036,4.28-.09A6.988,6.988,0,0,1,37,44ZM21.313,41.714a6.008,6.008,0,0,1-1.277-1.368q.831.094,1.684.176A9,9,0,0,0,21.313,41.714ZM7.685,25.505l.141-.123A1.994,1.994,0,0,1,10.9,26.406,1.822,1.822,0,0,1,11,27a2,2,0,0,1-3.8.869c-.029-.071-.059-.143-.1-.284A1.649,1.649,0,0,1,7,27a1.948,1.948,0,0,1,.685-1.5Zm-.434,9.932A24.993,24.993,0,0,1,7,32c0-.509.024-1.014.054-1.518A3.982,3.982,0,0,0,13,27c0-.05-.01-.1-.012-.148q1.127-.252,2.34-.473A8.945,8.945,0,0,0,18.6,31.2c.176.132.357.254.541.371A8.026,8.026,0,0,0,17,37a7.8,7.8,0,0,0,.067.919A45.14,45.14,0,0,1,7.251,35.437Zm30.431-8.071a4.787,4.787,0,0,1-1.424,1.091,6.949,6.949,0,0,0-3.8-1.434,8.818,8.818,0,0,0-.658-7.5A4.955,4.955,0,0,1,34,19a5.006,5.006,0,0,1,5,5,4.932,4.932,0,0,1-1.318,3.366ZM32,39a5,5,0,1,1,5-5A5.006,5.006,0,0,1,32,39Zm-5.691-.939a6.989,6.989,0,0,0,.684.821q-.837-.039-1.66-.09A6.955,6.955,0,0,1,26.309,38.061ZM31,24a6.972,6.972,0,0,1-.82,3.248,7.016,7.016,0,0,0-4.374,3.5,7.058,7.058,0,0,1-6-1.149A7,7,0,1,1,31,24ZM19,37a6.024,6.024,0,0,1,2.045-4.5A8.972,8.972,0,0,0,24,33a8.863,8.863,0,0,0,1.093-.087,6.719,6.719,0,0,0,.3,3.376,8.966,8.966,0,0,0-2.566,2.32c-1.262-.11-2.494-.24-3.685-.393A5.934,5.934,0,0,1,19,37Zm18.382,1.868c-.052-.075-.1-.153-.157-.227a6.954,6.954,0,0,0,.463-8.706,6.713,6.713,0,0,0,1.128-.88,6.976,6.976,0,0,1,5.809,9.187C42.324,38.531,39.9,38.745,37.382,38.868ZM49,11a2,2,0,0,1,2,2,2.028,2.028,0,0,1-.37,1.164A2,2,0,0,1,47,13a2.01,2.01,0,0,1,2-2ZM27.125,6.889a5,5,0,0,1,9.751.007A4.84,4.84,0,0,1,37,8,5,5,0,0,1,27,8,4.89,4.89,0,0,1,27.125,6.889ZM32,15a7.007,7.007,0,0,0,7-6.972,24.314,24.314,0,0,1,6.546,3,3.986,3.986,0,0,0,5.819,5.2A24.766,24.766,0,0,1,56.335,26.26a63.343,63.343,0,0,0-15.367-2.892A7.007,7.007,0,0,0,34,17a6.932,6.932,0,0,0-3.4.893A8.917,8.917,0,0,0,24,15a9.011,9.011,0,0,0-9,9c0,.136.017.268.023.4q-1.357.246-2.613.53A3.962,3.962,0,0,0,9,23c-.108,0-.214.02-.321.029a24.406,24.406,0,0,1,3.436-6.13A4.051,4.051,0,0,0,13,17a4,4,0,0,0,4-4,3.958,3.958,0,0,0-.106-.9A24.851,24.851,0,0,1,25,8a7.008,7.008,0,0,0,7,7ZM13,11a2,2,0,0,1,1.816,1.169A1.938,1.938,0,0,1,15,13a2,2,0,0,1-2,2,1.963,1.963,0,0,1-.845-.19A2,2,0,0,1,13,11ZM3,32c0-.751.758-1.594,2.117-2.4C5.047,30.392,5,31.193,5,32s.043,1.607.113,2.4C3.754,33.588,3,32.747,3,32ZM16.528,54.613A2.973,2.973,0,0,1,14,56a3,3,0,0,1-3-3,2.939,2.939,0,0,1,1.015-2.245A3.038,3.038,0,0,1,14,50a3,3,0,0,1,3,3A2.937,2.937,0,0,1,16.528,54.613ZM44,61a5.022,5.022,0,0,1-4.889-3.932A5.6,5.6,0,0,1,39,56a5,5,0,1,1,5,5Zm4.567-10.291A6.988,6.988,0,0,0,37,56c0,.156.014.317.025.476A24.457,24.457,0,0,1,32,57a24.949,24.949,0,0,1-13.023-3.669c.007-.11.023-.219.023-.331a5.006,5.006,0,0,0-5-5,4.915,4.915,0,0,0-1.068.131,24.7,24.7,0,0,1-5.27-10.4,52.545,52.545,0,0,0,9.957,2.3,8.025,8.025,0,0,0,3.388,3.876c0,.03-.007.059-.007.089a9,9,0,0,0,17.949.949,9.012,9.012,0,0,0,7.063-4.87c2.135-.3,4.139-.668,5.986-1.1a4.973,4.973,0,0,0,3.322,1.974q-.405,1.062-.918,2.1A2.852,2.852,0,0,0,54,43a2.965,2.965,0,0,0-2.5,4.616,24.887,24.887,0,0,1-2.935,3.093ZM53.4,46.79A.993.993,0,0,1,54,45a.922.922,0,0,1,.477.126A1,1,0,0,1,55,46,1.01,1.01,0,0,1,53.4,46.79Zm3.2-7.847A3.6,3.6,0,0,1,56,39a3,3,0,1,1,2.9-3.766A2.84,2.84,0,0,1,59,36a3,3,0,0,1-2.4,2.943ZM60.238,33.4A4.979,4.979,0,0,0,59,32.028c0-.01,0-.019,0-.028,0-.806-.043-1.607-.113-2.4C60.246,30.412,61,31.253,61,32A2.1,2.1,0,0,1,60.238,33.4Z"/>
      </g>
    </g>
  </g>
</svg>
