<svg xmlns="http://www.w3.org/2000/svg" width="25.144" height="25.774" viewBox="0 0 25.144 25.774">
  <path id="Icon_awesome-arrow-right" data-name="Icon awesome-arrow-right" d="M10.777,4.3l1.256-1.256a1.352,1.352,0,0,1,1.918,0l11,10.992a1.352,1.352,0,0,1,0,1.918l-11,11a1.352,1.352,0,0,1-1.918,0L10.777,25.7a1.359,1.359,0,0,1,.023-1.94l6.817-6.494H1.358A1.354,1.354,0,0,1,0,15.9v-1.81a1.354,1.354,0,0,1,1.358-1.358H17.617L10.8,6.242A1.349,1.349,0,0,1,10.777,4.3Z" transform="translate(27.348 -0.046) rotate(89)"/>
</svg>
